<?xml version="1.0" encoding="UTF-8" standalone="no"?>
<!-- Created with Inkscape (http://www.inkscape.org/) -->

<svg
   width="619.99988mm"
   height="619.99988mm"
   viewBox="-15 -15 650 650"
   version="1.1"
   id="svg538"
   inkscape:version="1.2.2 (b0a8486541, 2022-12-01)"
   sodipodi:docname="ekofour_finished.svg"
   xmlns:inkscape="http://www.inkscape.org/namespaces/inkscape"
   xmlns:sodipodi="http://sodipodi.sourceforge.net/DTD/sodipodi-0.dtd"
   xmlns:xlink="http://www.w3.org/1999/xlink"
   xmlns="http://www.w3.org/2000/svg"
   xmlns:svg="http://www.w3.org/2000/svg">
  <sodipodi:namedview
     id="namedview540"
     pagecolor="#ffffff"
     bordercolor="#000000"
     borderopacity="0.25"
     inkscape:showpageshadow="2"
     inkscape:pageopacity="0.0"
     inkscape:pagecheckerboard="0"
     inkscape:deskcolor="#d1d1d1"
     inkscape:document-units="mm"
     showgrid="false"
     inkscape:zoom="0.35355339"
     inkscape:cx="1230.3658"
     inkscape:cy="1661.7009"
     inkscape:window-width="1854"
     inkscape:window-height="1011"
     inkscape:window-x="66"
     inkscape:window-y="32"
     inkscape:window-maximized="1"
     inkscape:current-layer="layer1" />
  <defs
     id="defs535">
    <inkscape:path-effect
       effect="fillet_chamfer"
       id="path-effect26101"
       is_visible="true"
       lpeversion="1"
       nodesatellites_param="F,0,0,1,0,1.0583333,0,1 @ F,0,0,1,0,25.608927,0,1 @ F,0,0,1,0,1.0583333,0,1 @ F,0,0,1,0,1.0583333,0,1 @ F,0,0,1,0,1.0583333,0,1"
       unit="px"
       method="auto"
       mode="F"
       radius="4"
       chamfer_steps="1"
       flexible="false"
       use_knot_distance="true"
       apply_no_radius="true"
       apply_with_radius="true"
       only_selected="true"
       hide_knots="false" />
    <inkscape:path-effect
       effect="fillet_chamfer"
       id="path-effect26099"
       is_visible="true"
       lpeversion="1"
       nodesatellites_param="F,0,0,1,0,37.420535,0,1 @ F,0,0,1,0,1.0583333,0,1 @ F,0,0,1,0,1.0583333,0,1 @ F,0,0,1,0,1.0583333,0,1 @ F,0,0,1,0,1.0583333,0,1"
       unit="px"
       method="auto"
       mode="F"
       radius="4"
       chamfer_steps="1"
       flexible="false"
       use_knot_distance="true"
       apply_no_radius="true"
       apply_with_radius="true"
       only_selected="true"
       hide_knots="false" />
    <inkscape:path-effect
       effect="fillet_chamfer"
       id="path-effect26015"
       is_visible="true"
       lpeversion="1"
       nodesatellites_param="F,0,0,1,0,0.52916667,0,1 @ F,0,0,1,0,0.52916667,0,1 @ F,0,0,1,0,0.52916667,0,1 @ F,0,0,1,0,0.52916667,0,1 @ F,0,0,1,0,30.797771,0,1"
       unit="px"
       method="auto"
       mode="F"
       radius="2"
       chamfer_steps="1"
       flexible="false"
       use_knot_distance="true"
       apply_no_radius="true"
       apply_with_radius="true"
       only_selected="true"
       hide_knots="false" />
    <inkscape:path-effect
       effect="fillet_chamfer"
       id="path-effect26013"
       is_visible="true"
       lpeversion="1"
       nodesatellites_param="F,0,0,1,0,0,0,1 @ F,0,0,1,0,0,0,1 @ F,0,0,1,0,0,0,1 @ F,0,0,1,0,0,0,1 @ F,0,0,1,0,0,0,1"
       unit="px"
       method="auto"
       mode="F"
       radius="0"
       chamfer_steps="1"
       flexible="false"
       use_knot_distance="true"
       apply_no_radius="true"
       apply_with_radius="true"
       only_selected="true"
       hide_knots="false" />
    <inkscape:path-effect
       effect="fillet_chamfer"
       id="path-effect25996"
       is_visible="true"
       lpeversion="1"
       nodesatellites_param="F,0,0,1,0,3.6409271,0,1 @ F,0,0,1,0,4.0619933,0,1 @ F,0,0,1,0,4.450707,0,1 @ F,0,0,1,0,24.227134,0,1 @ F,0,0,1,0,4.6659549,0,1"
       unit="px"
       method="auto"
       mode="F"
       radius="25"
       chamfer_steps="1"
       flexible="false"
       use_knot_distance="true"
       apply_no_radius="true"
       apply_with_radius="true"
       only_selected="true"
       hide_knots="false" />
    <inkscape:path-effect
       effect="fillet_chamfer"
       id="path-effect25994"
       is_visible="false"
       lpeversion="1"
       nodesatellites_param="F,0,0,1,0,21.166667,0,1 @ F,0,0,1,0,21.166667,0,1 @ F,0,0,1,0,21.166667,0,1 @ F,0,0,1,0,21.166667,0,1 @ F,0,0,1,0,21.166667,0,1"
       unit="px"
       method="auto"
       mode="F"
       radius="80"
       chamfer_steps="1"
       flexible="false"
       use_knot_distance="true"
       apply_no_radius="true"
       apply_with_radius="true"
       only_selected="false"
       hide_knots="false" />
    <linearGradient
       inkscape:collect="always"
       id="linearGradient21941">
      <stop
         style="stop-color:#9ba4e0;stop-opacity:0.98039216;"
         offset="0"
         id="stop21937" />
      <stop
         style="stop-color:#92d0f3;stop-opacity:0.40392157;"
         offset="1"
         id="stop21939" />
    </linearGradient>
    <linearGradient
       inkscape:collect="always"
       id="linearGradient18345">
      <stop
         style="stop-color:#9ba7e1;stop-opacity:0.96078432;"
         offset="0"
         id="stop18341" />
      <stop
         style="stop-color:#94cbf2;stop-opacity:0.36921558;"
         offset="1"
         id="stop18343" />
    </linearGradient>
    <linearGradient
       inkscape:collect="always"
       id="linearGradient13468">
      <stop
         style="stop-color:#9ba6e1;stop-opacity:0.97254902;"
         offset="0"
         id="stop13464" />
      <stop
         style="stop-color:#93cff3;stop-opacity:0.50290614;"
         offset="1"
         id="stop13466" />
    </linearGradient>
    <linearGradient
       inkscape:collect="always"
       id="linearGradient11851">
      <stop
         style="stop-color:#9ca3e0;stop-opacity:1;"
         offset="0"
         id="stop11847" />
      <stop
         style="stop-color:#92d0f3;stop-opacity:0.40065116;"
         offset="0.77474618"
         id="stop11849" />
    </linearGradient>
    <linearGradient
       id="linearGradient6910">
      <stop
         style="stop-color:#babaf8;stop-opacity:1;"
         offset="0"
         id="stop6914" />
      <stop
         style="stop-color:#babaf8;stop-opacity:0;"
         offset="1"
         id="stop6916" />
    </linearGradient>
    <filter
       style="color-interpolation-filters:sRGB"
       inkscape:label="Drop Shadow"
       id="filter696"
       x="-0.077652328"
       y="-0.085955836"
       width="1.2441777"
       height="1.1636358">
      <feFlood
         flood-opacity="0.498039"
         flood-color="rgb(0,0,0)"
         result="flood"
         id="feFlood686" />
      <feComposite
         in="flood"
         in2="SourceGraphic"
         operator="in"
         result="composite1"
         id="feComposite688" />
      <feGaussianBlur
         in="composite1"
         stdDeviation="18.203"
         result="blur"
         id="feGaussianBlur690" />
      <feOffset
         dx="50"
         dy="-4.65437"
         result="offset"
         id="feOffset692" />
      <feComposite
         in="SourceGraphic"
         in2="offset"
         operator="over"
         result="composite2"
         id="feComposite694" />
    </filter>
    <style
       type="text/css"
       id="style2">

   #tr, #tl, #bl, #br {
      transition: transform 0.35s ease;
      transform-origin: center;
      backface-visibility: hidden;
      will-change: transform;
   }

  

</style>
    <linearGradient
       inkscape:collect="always"
       xlink:href="#linearGradient11851"
       id="linearGradient11853"
       x1="3.2772348"
       y1="616.26404"
       x2="296.1424"
       y2="320.13101"
       gradientUnits="userSpaceOnUse" />
    <linearGradient
       inkscape:collect="always"
       xlink:href="#linearGradient13468"
       id="linearGradient13470"
       x1="606.64612"
       y1="606.80457"
       x2="357.59015"
       y2="364.82919"
       gradientUnits="userSpaceOnUse" />
    <linearGradient
       inkscape:collect="always"
       xlink:href="#linearGradient18345"
       id="linearGradient18347"
       x1="614.02692"
       y1="5.1890216"
       x2="323.42181"
       y2="295.14294"
       gradientUnits="userSpaceOnUse" />
    <linearGradient
       inkscape:collect="always"
       xlink:href="#linearGradient21941"
       id="linearGradient21943"
       x1="22.920578"
       y1="17.803267"
       x2="249.26431"
       y2="246.00713"
       gradientUnits="userSpaceOnUse" />
  </defs>
  <g
     inkscape:label="Layer 1"
     inkscape:groupmode="layer"
     id="layer1">
    <g
       id="g10124"
       style="display:inline"
       inkscape:label="middle"
       transform="matrix(0.2645834,0,0,0.26458339,44.82335,45.283695)">
      <g
         id="EKOFOUR">
        <path
           class="st1"
           d="m 1281,1000.4 c 0,155.3 -125.9,281.2 -281.3,281.2 -155.3,0 -281.3,-125.9 -281.3,-281.2 0,-155.3 125.9,-281.2 281.3,-281.2 155.4,-0.1 281.3,125.8 281.3,281.2"
           id="path9079"
           style="display:inline;fill:#e9e8e7;fill-opacity:0.602791" />
        <g
           id="g9401"
           style="display:inline">
          <path
             class="st355"
             d="m 871.4,1036.9 h -39.3 v -70 h 37.7 v 9.9 h -26.1 v 19.8 H 868 v 9.8 h -24.2 v 20.7 h 27.7 v 9.8 z"
             id="path9387"
             style="fill:#1b2a6b" />
          <path
             class="st355"
             d="m 928,1036.9 h -14.6 l -19.3,-24.4 H 894 v 24.4 h -11.4 v -74 H 894 v 47 h 0.2 l 18.2,-23 h 14.1 l -20.8,23.8 z"
             id="path9389"
             style="fill:#1b2a6b" />
          <path
             class="st355"
             d="m 957.3,1038.1 c -7.8,0 -14,-2.3 -18.6,-7 -4.6,-4.7 -6.9,-10.9 -6.9,-18.8 0,-8.3 2.4,-14.8 7.1,-19.5 4.7,-4.7 11.1,-7.1 19.3,-7.1 7.8,0 14,2.3 18.4,6.9 4.4,4.6 6.6,10.9 6.6,18.8 0,8.1 -2.3,14.6 -7,19.4 -4.6,4.9 -10.9,7.3 -18.9,7.3 z m 0.5,-9.1 c 4.5,0 8,-1.5 10.3,-4.4 2.4,-3 3.5,-7.2 3.5,-12.8 0,-5.5 -1.2,-9.7 -3.6,-12.6 -2.4,-2.9 -5.8,-4.3 -10.4,-4.3 -4.5,0 -8,1.5 -10.5,4.6 -2.6,3.1 -3.8,7.3 -3.8,12.7 0,5.4 1.3,9.6 3.8,12.6 2.7,2.8 6.2,4.2 10.7,4.2 z"
             id="path9391"
             style="fill:#1b2a6b" />
          <path
             d="m 1032.2,974.3 h -27.3 v 24.2 h 25.3 v 7.4 h -25.3 v 31 h -8.2 v -70 h 35.5 z"
             id="path9393" />
          <path
             d="m 1065.3,1038.1 c -7.4,0 -13.3,-2.3 -17.7,-7 -4.4,-4.7 -6.6,-10.9 -6.6,-18.6 0,-8.4 2.3,-14.9 6.8,-19.6 4.6,-4.7 10.8,-7.1 18.7,-7.1 7.5,0 13.3,2.3 17.5,6.9 4.2,4.6 6.3,11 6.3,19.1 0,8 -2.3,14.4 -6.8,19.2 -4.5,4.8 -10.6,7.1 -18.2,7.1 z m 0.6,-6.8 c 5.2,0 9.2,-1.7 11.9,-5.1 2.8,-3.4 4.2,-8.1 4.2,-14.3 0,-6.3 -1.4,-11.1 -4.2,-14.5 -2.8,-3.4 -6.8,-5.1 -11.9,-5.1 -5.1,0 -9.2,1.8 -12.2,5.3 -3,3.5 -4.5,8.3 -4.5,14.5 0,5.9 1.5,10.6 4.5,14 3,3.5 7.1,5.2 12.2,5.2 z"
             id="path9395" />
          <path
             d="m 1143.4,1036.9 h -8 v -7.9 h -0.2 c -1.7,3 -3.8,5.3 -6.3,6.8 -2.6,1.5 -5.6,2.3 -9.1,2.3 -6,0 -10.4,-1.8 -13.4,-5.3 -3,-3.5 -4.5,-8.9 -4.5,-16 v -29.9 h 8 v 28.6 c 0,5.3 1,9.2 3,11.9 2,2.6 5,4 9.1,4 3.9,0 7.1,-1.4 9.6,-4.3 2.5,-2.9 3.8,-6.6 3.8,-11.3 V 987 h 8 z"
             id="path9397" />
          <path
             d="m 1184.2,993.7 c -0.6,-0.2 -1.2,-0.3 -1.7,-0.4 -0.5,-0.1 -1.1,-0.1 -1.9,-0.1 -4.1,0 -7.3,1.7 -9.6,5.2 -2.3,3.5 -3.5,7.8 -3.5,13 v 25.5 h -8 v -50 h 8 v 9.9 h 0.2 c 1.1,-3.5 2.9,-6.2 5.2,-8 2.3,-1.8 5,-2.8 8.1,-2.8 1,0 1.9,0 2.6,0.1 0.7,0.1 1.3,0.2 1.9,0.4 z"
             id="path9399" />
        </g>
        <path
           class="st23"
           d="m 999.7,742.4 c -142.3,0 -258.1,115.8 -258.1,258.1 0,142.3 115.8,258.1 258.1,258.1 142.3,0 258.1,-115.8 258.1,-258.1 0,-142.3 -115.8,-258.1 -258.1,-258.1 z m 0,519.1 c -69.7,0 -135.3,-27.2 -184.6,-76.5 -49.3,-49.3 -76.5,-114.9 -76.5,-184.6 0,-69.7 27.2,-135.3 76.5,-184.6 49.3,-49.3 114.9,-76.5 184.6,-76.5 69.7,0 135.3,27.2 184.6,76.5 49.3,49.3 76.5,114.9 76.5,184.6 0,69.7 -27.2,135.3 -76.5,184.6 -49.3,49.4 -114.9,76.5 -184.6,76.5"
           id="path9083"
           style="display:inline;fill:#464648" />
        <path
           class="st23"
           d="m 999.8,735.2 c -146.4,0 -265.4,119.1 -265.4,265.4 0,146.3 119.1,265.4 265.4,265.4 146.4,0 265.4,-119.1 265.4,-265.4 0,-146.3 -119.1,-265.4 -265.4,-265.4 z m 0,540.9 c -73.6,0 -142.7,-28.7 -194.8,-80.7 -52,-52 -80.7,-121.2 -80.7,-194.8 0,-73.6 28.7,-142.7 80.7,-194.7 52,-52 121.2,-80.7 194.8,-80.7 73.6,0 142.7,28.7 194.8,80.7 52,52 80.7,121.2 80.7,194.8 0,73.6 -28.7,142.7 -80.7,194.8 -52.1,52 -121.3,80.6 -194.8,80.6"
           id="path9081"
           style="display:inline;fill:#464648" />
      </g>
    </g>
    <g
       id="tl"
       inkscape:label="tl">
      <path
         id="rect815"
         style="fill:url(#linearGradient21943);fill-opacity:1;fill-rule:evenodd;stroke-width:0.264583"
         d="M 0,37.420535 V 298.94145 a 1.0583333,1.0583333 45 0 0 1.0583333,1.05833 H 219.56231 c 0.5845,0 1.11064,-0.47096 1.18271,-1.05099 5.08063,-40.8928 37.31097,-73.12314 78.20377,-78.20377 0.58003,-0.0721 1.05099,-0.59821 1.05099,-1.18271 V 1.0583333 A 1.0583333,1.0583333 45 0 0 298.94145,0 H 37.420535 A 37.420535,37.420535 135 0 0 0,37.420535 Z"
         inkscape:path-effect="#path-effect26099"
         inkscape:original-d="m 0,0 v 299.99978 h 220.62064 a 90,90 0 0 1 79.37914,-79.37914 V 0 Z" />
      <g
         aria-label="INTERAKTIVNI
GANTT
DIJAGRAMI"
         id="text4"
         style="font-size:36.9848px;font-family:FreeSans;-inkscape-font-specification:FreeSans;letter-spacing:2.77386px;fill:#0b0b6a;fill-opacity:0.999474;fill-rule:evenodd;stroke-width:0.264583">
        <path
           d="M 23.432849,28.197948 H 25.13415 V 52.57093 h -1.701301 z"
           style="font-weight:300;font-family:'Source Sans Pro';-inkscape-font-specification:'Source Sans Pro Light';fill:#f6f6f6"
           id="path1185" />
        <path
           d="m 34.82416,28.197948 h 1.77527 l 10.244789,17.197932 2.77386,4.845008 h 0.147939 q -0.07397,-1.77527 -0.147939,-3.55054 -0.07397,-1.775271 -0.07397,-3.550541 V 28.197948 h 1.590347 V 52.57093 H 49.359185 L 39.114396,35.372999 36.340536,30.527991 h -0.147939 q 0.07397,1.77527 0.147939,3.476571 0.07397,1.664316 0.07397,3.439586 V 52.57093 H 34.82416 Z"
           style="font-weight:300;font-family:'Source Sans Pro';-inkscape-font-specification:'Source Sans Pro Light';fill:#f6f6f6"
           id="path1187" />
        <path
           d="M 66.113287,29.67734 H 58.346479 V 28.197948 H 75.54441 v 1.479392 h -7.729822 v 22.89359 h -1.701301 z"
           style="font-weight:300;font-family:'Source Sans Pro';-inkscape-font-specification:'Source Sans Pro Light';fill:#f6f6f6"
           id="path1189" />
        <path
           d="M 82.756457,28.197948 H 96.070985 V 29.67734 H 84.457758 v 9.209215 h 9.763987 v 1.479392 H 84.457758 V 51.091539 H 96.440833 V 52.57093 H 82.756457 Z"
           style="font-weight:300;font-family:'Source Sans Pro';-inkscape-font-specification:'Source Sans Pro Light';fill:#f6f6f6"
           id="path1191" />
        <path
           d="m 110.79093,39.959114 q 3.25466,0 4.95596,-1.294468 1.73829,-1.331452 1.73829,-4.031343 0,-2.736875 -1.73829,-3.846419 -1.7013,-1.146529 -4.95596,-1.146529 h -4.80803 v 10.318759 z m 6.95314,12.611816 -6.58329,-11.206393 H 105.9829 V 52.57093 h -1.7013 V 28.197948 h 6.95315 q 1.81225,0 3.29164,0.369848 1.47939,0.332863 2.51497,1.109544 1.07256,0.776681 1.62733,1.997179 0.59176,1.220499 0.59176,2.958784 0,2.921799 -1.7013,4.586115 -1.66432,1.627331 -4.54913,2.034164 l 6.69424,11.317348 z"
           style="font-weight:300;font-family:'Source Sans Pro';-inkscape-font-specification:'Source Sans Pro Light';fill:#f6f6f6"
           id="path1193" />
        <path
           d="m 137.5679,42.769959 -1.55336,-4.54913 q -0.7397,-2.182103 -1.40542,-4.179283 -0.66573,-1.997179 -1.29447,-4.253251 h -0.14794 q -0.62874,2.256072 -1.29447,4.253251 -0.66573,1.99718 -1.40542,4.179283 l -1.55336,4.54913 z m 0.4808,1.442407 h -9.65303 l -2.84783,8.358564 h -1.73829 l 8.61746,-24.372982 h 1.7013 l 8.58048,24.372982 h -1.81226 z"
           style="font-weight:300;font-family:'Source Sans Pro';-inkscape-font-specification:'Source Sans Pro Light';fill:#f6f6f6"
           id="path1195" />
        <path
           d="m 149.10712,28.197948 h 1.7013 v 13.536437 h 0.074 l 11.79815,-13.536437 h 1.99718 l -7.76681,9.024291 8.83937,15.348691 h -1.9602 l -8.0257,-14.054223 -4.95596,5.658674 v 8.395549 h -1.7013 z"
           style="font-weight:300;font-family:'Source Sans Pro';-inkscape-font-specification:'Source Sans Pro Light';fill:#f6f6f6"
           id="path1197" />
        <path
           d="m 177.14161,29.67734 h -7.7668 v -1.479392 h 17.19793 v 1.479392 h -7.72982 v 22.89359 h -1.70131 z"
           style="font-weight:300;font-family:'Source Sans Pro';-inkscape-font-specification:'Source Sans Pro Light';fill:#f6f6f6"
           id="path1199" />
        <path
           d="m 193.78478,28.197948 h 1.7013 V 52.57093 h -1.7013 z"
           style="font-weight:300;font-family:'Source Sans Pro';-inkscape-font-specification:'Source Sans Pro Light';fill:#f6f6f6"
           id="path1201" />
        <path
           d="m 201.7365,28.197948 h 1.81226 l 4.51214,14.239148 q 0.33287,1.109544 0.62875,2.108133 0.33286,0.99859 0.62874,1.997179 0.29588,0.961605 0.59175,1.960195 0.33287,0.998589 0.70271,2.108133 h 0.14794 q 0.7397,-2.219088 1.29447,-4.068328 0.59176,-1.886224 1.29447,-4.105312 l 4.51215,-14.239148 h 1.7013 l -7.95174,24.372982 h -1.84924 z"
           style="font-weight:300;font-family:'Source Sans Pro';-inkscape-font-specification:'Source Sans Pro Light';fill:#f6f6f6"
           id="path1203" />
        <path
           d="m 225.85057,28.197948 h 1.77527 l 10.24479,17.197932 2.77386,4.845008 h 0.14794 q -0.074,-1.77527 -0.14794,-3.55054 -0.074,-1.775271 -0.074,-3.550541 V 28.197948 h 1.59035 V 52.57093 h -1.77527 l -10.24479,-17.197931 -2.77386,-4.845008 h -0.14794 q 0.074,1.77527 0.14794,3.476571 0.074,1.664316 0.074,3.439586 V 52.57093 h -1.59035 z"
           style="font-weight:300;font-family:'Source Sans Pro';-inkscape-font-specification:'Source Sans Pro Light';fill:#f6f6f6"
           id="path1205" />
        <path
           d="m 251.88785,28.197948 h 1.7013 V 52.57093 h -1.7013 z"
           style="font-weight:300;font-family:'Source Sans Pro';-inkscape-font-specification:'Source Sans Pro Light';fill:#f6f6f6"
           id="path1207" />
        <path
           d="m 21.842503,88.4092 q 0,-2.884814 0.77668,-5.214856 0.776681,-2.330043 2.182103,-3.957374 1.442408,-1.664316 3.439587,-2.514966 1.997179,-0.887635 4.401191,-0.887635 1.220498,0 2.219088,0.258893 1.035574,0.258894 1.84924,0.702711 0.813665,0.406833 1.442407,0.92462 0.628741,0.517788 1.109544,1.035575 l -0.99859,1.109544 q -0.961605,-1.035575 -2.293057,-1.738286 -1.331453,-0.739696 -3.328632,-0.739696 -2.108134,0 -3.77245,0.776681 -1.664316,0.776681 -2.847829,2.219088 -1.146529,1.405422 -1.775271,3.439586 -0.628741,2.034164 -0.628741,4.586115 0,2.551951 0.591757,4.6231 0.591756,2.034164 1.738285,3.476571 1.146529,1.442407 2.77386,2.256073 1.664316,0.77668 3.735465,0.77668 1.664316,0 3.106723,-0.480802 1.442407,-0.480802 2.330042,-1.368437 v -7.581884 h -5.806613 v -1.442407 h 7.433944 v 9.653032 q -1.146529,1.220498 -2.995768,1.997184 -1.812256,0.77668 -4.216267,0.77668 -2.330043,0 -4.290237,-0.88764 -1.92321,-0.887634 -3.291647,-2.514965 -1.368438,-1.664316 -2.145118,-3.994359 -0.739696,-2.367027 -0.739696,-5.288826 z"
           style="font-weight:300;font-family:'Source Sans Pro';-inkscape-font-specification:'Source Sans Pro Light';fill:#f6f6f6"
           id="path1209" />
        <path
           d="m 58.716352,90.850197 -1.553361,-4.54913 q -0.739696,-2.182103 -1.405423,-4.179283 -0.665726,-1.997179 -1.294467,-4.253251 h -0.14794 q -0.628741,2.256072 -1.294468,4.253251 -0.665726,1.99718 -1.405422,4.179283 l -1.553361,4.54913 z m 0.480803,1.442407 h -9.653033 l -2.847829,8.358566 h -1.738286 l 8.617458,-24.372984 h 1.701301 l 8.580473,24.372984 h -1.812255 z"
           style="font-weight:300;font-family:'Source Sans Pro';-inkscape-font-specification:'Source Sans Pro Light';fill:#f6f6f6"
           id="path1211" />
        <path
           d="m 70.255576,76.278186 h 1.77527 l 10.24479,17.197932 2.773859,4.845008 h 0.14794 q -0.07397,-1.77527 -0.14794,-3.550541 -0.07397,-1.77527 -0.07397,-3.55054 V 76.278186 h 1.590346 v 24.372984 h -1.77527 L 74.545813,83.453237 71.771953,78.608229 h -0.147939 q 0.07397,1.77527 0.147939,3.476571 0.07397,1.664316 0.07397,3.439586 v 15.126784 h -1.590346 z"
           style="font-weight:300;font-family:'Source Sans Pro';-inkscape-font-specification:'Source Sans Pro Light';fill:#f6f6f6"
           id="path1213" />
        <path
           d="m 101.54471,77.757578 h -7.766812 v -1.479392 h 17.197932 v 1.479392 h -7.72982 v 22.893592 h -1.7013 z"
           style="font-weight:300;font-family:'Source Sans Pro';-inkscape-font-specification:'Source Sans Pro Light';fill:#f6f6f6"
           id="path1215" />
        <path
           d="m 123.43971,77.757578 h -7.76681 v -1.479392 h 17.19793 v 1.479392 h -7.72982 v 22.893592 h -1.7013 z"
           style="font-weight:300;font-family:'Source Sans Pro';-inkscape-font-specification:'Source Sans Pro Light';fill:#f6f6f6"
           id="path1217" />
        <path
           d="m 23.432849,124.35842 h 5.621689 q 2.810845,0 4.881994,0.85065 2.108133,0.85065 3.476571,2.441 1.368437,1.59035 2.034164,3.80944 0.702711,2.21908 0.702711,4.99294 0,2.77386 -0.702711,5.06692 -0.665727,2.25607 -2.034164,3.8834 -1.368438,1.59035 -3.439587,2.47799 -2.071148,0.85065 -4.881993,0.85065 h -5.658674 z m 5.436765,22.93058 q 2.477982,0 4.253252,-0.77668 1.812255,-0.81367 2.958784,-2.25607 1.183514,-1.44241 1.738285,-3.40261 0.554772,-1.99717 0.554772,-4.40119 0,-2.36702 -0.554772,-4.32722 -0.554771,-1.96019 -1.738285,-3.36561 -1.146529,-1.40543 -2.958784,-2.18211 -1.77527,-0.77668 -4.253252,-0.77668 H 25.13415 V 147.289 Z"
           style="font-weight:300;font-family:'Source Sans Pro';-inkscape-font-specification:'Source Sans Pro Light';fill:#f6f6f6"
           id="path1219" />
        <path
           d="m 48.360637,124.35842 h 1.7013 v 24.37299 h -1.7013 z"
           style="font-weight:300;font-family:'Source Sans Pro';-inkscape-font-specification:'Source Sans Pro Light';fill:#f6f6f6"
           id="path1221" />
        <path
           d="m 58.938283,144.73705 q 0.92462,1.55336 2.034164,2.21909 1.109544,0.66572 2.662905,0.66572 2.219088,0 3.291647,-1.33145 1.109544,-1.36844 1.109544,-4.36421 v -17.56778 h 1.701301 v 17.75271 q 0,1.47939 -0.332863,2.77386 -0.332863,1.25748 -1.072559,2.21909 -0.702712,0.9616 -1.84924,1.51637 -1.146529,0.55477 -2.810845,0.55477 -2.071149,0 -3.587525,-0.92462 -1.479392,-0.92462 -2.440997,-2.6629 z"
           style="font-weight:300;font-family:'Source Sans Pro';-inkscape-font-specification:'Source Sans Pro Light';fill:#f6f6f6"
           id="path1223" />
        <path
           d="M 89.783602,138.93043 88.23024,134.3813 q -0.739696,-2.1821 -1.405422,-4.17928 -0.665727,-1.99718 -1.294468,-4.25325 h -0.147939 q -0.628742,2.25607 -1.294468,4.25325 -0.665727,1.99718 -1.405423,4.17928 l -1.553361,4.54913 z m 0.480802,1.44241 h -9.653032 l -2.84783,8.35857 h -1.738285 l 8.617458,-24.37299 h 1.7013 l 8.580474,24.37299 h -1.812256 z"
           style="font-weight:300;font-family:'Source Sans Pro';-inkscape-font-specification:'Source Sans Pro Light';fill:#f6f6f6"
           id="path1225" />
        <path
           d="m 99.362621,136.48944 q 0,-2.88482 0.776679,-5.21486 0.77668,-2.33004 2.18211,-3.95737 1.4424,-1.66432 3.43958,-2.51497 1.99718,-0.88763 4.40119,-0.88763 1.2205,0 2.21909,0.25889 1.03557,0.25889 1.84924,0.70271 0.81367,0.40683 1.44241,0.92462 0.62874,0.51779 1.10954,1.03558 l -0.99859,1.10954 q -0.9616,-1.03557 -2.29306,-1.73829 -1.33145,-0.73969 -3.32863,-0.73969 -2.10813,0 -3.77245,0.77668 -1.66431,0.77668 -2.84783,2.21909 -1.14653,1.40542 -1.77527,3.43958 -0.62874,2.03417 -0.62874,4.58612 0,2.55195 0.59176,4.6231 0.59176,2.03416 1.73828,3.47657 1.14653,1.44241 2.77386,2.25607 1.66432,0.77668 3.73547,0.77668 1.66431,0 3.10672,-0.4808 1.44241,-0.4808 2.33004,-1.36844 v -7.58188 h -5.80661 v -1.44241 h 7.43394 v 9.65303 q -1.14652,1.2205 -2.99576,1.99718 -1.81226,0.77668 -4.21627,0.77668 -2.33004,0 -4.29024,-0.88763 -1.92321,-0.88764 -3.29164,-2.51497 -1.36844,-1.66431 -2.14512,-3.99436 -0.739699,-2.36702 -0.739699,-5.28882 z"
           style="font-weight:300;font-family:'Source Sans Pro';-inkscape-font-specification:'Source Sans Pro Light';fill:#f6f6f6"
           id="path1227" />
        <path
           d="m 132.31608,136.11959 q 3.25466,0 4.95597,-1.29447 1.73828,-1.33145 1.73828,-4.03134 0,-2.73688 -1.73828,-3.84642 -1.70131,-1.14653 -4.95597,-1.14653 h -4.80802 v 10.31876 z m 6.95314,12.61182 -6.58329,-11.2064 h -5.17787 v 11.2064 h -1.7013 v -24.37299 h 6.95314 q 1.81226,0 3.29165,0.36985 1.47939,0.33287 2.51496,1.10955 1.07256,0.77668 1.62733,1.99718 0.59176,1.22049 0.59176,2.95878 0,2.9218 -1.7013,4.58611 -1.66432,1.62734 -4.54913,2.03417 l 6.69425,11.31735 z"
           style="font-weight:300;font-family:'Source Sans Pro';-inkscape-font-specification:'Source Sans Pro Light';fill:#f6f6f6"
           id="path1229" />
        <path
           d="m 159.09305,138.93043 -1.55337,-4.54913 q -0.73969,-2.1821 -1.40542,-4.17928 -0.66572,-1.99718 -1.29447,-4.25325 h -0.14793 q -0.62875,2.25607 -1.29447,4.25325 -0.66573,1.99718 -1.40543,4.17928 l -1.55336,4.54913 z m 0.4808,1.44241 h -9.65303 l -2.84783,8.35857 h -1.73829 l 8.61746,-24.37299 h 1.7013 l 8.58047,24.37299 h -1.81225 z"
           style="font-weight:300;font-family:'Source Sans Pro';-inkscape-font-specification:'Source Sans Pro Light';fill:#f6f6f6"
           id="path1231" />
        <path
           d="m 170.63228,124.35842 h 2.36703 l 5.1039,14.31312 1.92321,5.39978 h 0.14794 l 1.88622,-5.39978 5.06692,-14.31312 h 2.40401 v 24.37299 h -1.66431 v -16.01442 q 0,-1.51638 0.074,-3.25466 0.074,-1.77527 0.14794,-3.32864 h -0.14794 l -1.88623,5.3628 -5.25184,14.57201 h -1.47939 l -5.25184,-14.57201 -1.92321,-5.3628 h -0.14794 q 0.074,1.55337 0.11095,3.32864 0.074,1.73828 0.074,3.25466 v 16.01442 h -1.55336 z"
           style="font-weight:300;font-family:'Source Sans Pro';-inkscape-font-specification:'Source Sans Pro Light';fill:#f6f6f6"
           id="path1233" />
        <path
           d="m 199.25849,124.35842 h 1.7013 v 24.37299 h -1.7013 z"
           style="font-weight:300;font-family:'Source Sans Pro';-inkscape-font-specification:'Source Sans Pro Light';fill:#f6f6f6"
           id="path1235" />
      </g>
    </g>
    <g
       id="tr"
       inkscape:label="tr">
      <path
         id="rect815-3"
         style="fill:url(#linearGradient18347);fill-opacity:1;fill-rule:evenodd;stroke-width:0.264583"
         d="M 320.00011,0.52916667 V 220.03463 c 0,0.29225 0.23547,0.55535 0.52571,0.58953 41.35803,4.87035 73.97956,37.49188 78.8499,78.84991 0.0342,0.29024 0.29728,0.52571 0.58953,0.52571 h 219.50546 a 0.52916667,0.52916667 135 0 0 0.52917,-0.52917 V 30.797771 A 30.797771,30.797771 45 0 0 589.20211,0 H 320.52928 a 0.52916667,0.52916667 135 0 0 -0.52917,0.52916667 z"
         inkscape:path-effect="#path-effect26015"
         inkscape:original-d="m 320.00011,0 v 220.5638 a 90,90 0 0 1 79.43597,79.43598 h 220.5638 V 0 Z" />
      <g
         aria-label="KANBAN
PRAĆENJE
ZADATAKA"
         id="text3"
         style="font-size:36.9848px;font-family:FreeSans;-inkscape-font-specification:FreeSans;letter-spacing:2.77386px;fill:#f6f6f6;fill-opacity:0.999474;fill-rule:evenodd;stroke-width:0.264583">
        <path
           d="m 459.43184,30.83334 h 1.7013 v 13.536436 h 0.074 L 473.00526,30.83334 h 1.99718 l -7.76681,9.02429 8.83937,15.348692 h -1.96019 l -8.0257,-14.054224 -4.95597,5.658674 v 8.39555 h -1.7013 z"
           style="font-weight:300;font-family:'Source Sans Pro';-inkscape-font-specification:'Source Sans Pro Light';text-align:end;text-anchor:end"
           id="path1140" />
        <path
           d="m 492.6442,45.40535 -1.55336,-4.54913 q -0.73969,-2.182103 -1.40542,-4.179282 -0.66573,-1.997179 -1.29447,-4.253252 h -0.14794 q -0.62874,2.256073 -1.29446,4.253252 -0.66573,1.997179 -1.40543,4.179282 l -1.55336,4.54913 z m 0.48081,1.442407 h -9.65304 l -2.84783,8.358565 h -1.73828 l 8.61746,-24.372982 h 1.7013 l 8.58047,24.372982 h -1.81225 z"
           style="font-weight:300;font-family:'Source Sans Pro';-inkscape-font-specification:'Source Sans Pro Light';text-align:end;text-anchor:end"
           id="path1142" />
        <path
           d="m 504.18343,30.83334 h 1.77527 l 10.24479,17.197931 2.77386,4.845008 h 0.14794 q -0.074,-1.77527 -0.14794,-3.55054 -0.074,-1.775271 -0.074,-3.550541 V 30.83334 h 1.59034 v 24.372982 h -1.77527 L 508.47366,38.00839 505.6998,33.163382 h -0.14793 q 0.074,1.77527 0.14793,3.476571 0.074,1.664316 0.074,3.439586 v 15.126783 h -1.59034 z"
           style="font-weight:300;font-family:'Source Sans Pro';-inkscape-font-specification:'Source Sans Pro Light';text-align:end;text-anchor:end"
           id="path1144" />
        <path
           d="m 530.22071,30.83334 h 6.5833 q 3.66149,0 5.8436,1.442407 2.1821,1.442407 2.1821,4.47516 0,1.92321 -1.07256,3.365617 -1.07256,1.405422 -3.25466,1.960194 v 0.147939 q 2.69989,0.406833 4.25325,1.886225 1.59035,1.442407 1.59035,3.994358 0,1.775271 -0.66573,3.106723 -0.62874,1.331453 -1.81226,2.219088 -1.18351,0.887636 -2.84783,1.331453 -1.66431,0.443818 -3.73546,0.443818 h -7.0641 z m 5.88059,10.725591 q 3.77245,0 5.39978,-1.220498 1.62733,-1.220499 1.62733,-3.62451 0,-2.367028 -1.73829,-3.402602 -1.7013,-1.072559 -5.06692,-1.072559 h -4.40119 v 9.320169 z m 0.73969,12.241968 q 3.6615,0 5.73265,-1.368437 2.07114,-1.368438 2.07114,-4.327222 0,-2.62592 -2.03416,-3.883403 -2.03416,-1.294468 -5.76963,-1.294468 h -4.91898 v 10.87353 z"
           style="font-weight:300;font-family:'Source Sans Pro';-inkscape-font-specification:'Source Sans Pro Light';text-align:end;text-anchor:end"
           id="path1146" />
        <path
           d="m 564.54258,45.40535 -1.55336,-4.54913 q -0.7397,-2.182103 -1.40543,-4.179282 -0.66572,-1.997179 -1.29446,-4.253252 h -0.14794 q -0.62875,2.256073 -1.29447,4.253252 -0.66573,1.997179 -1.40542,4.179282 l -1.55337,4.54913 z m 0.4808,1.442407 h -9.65303 l -2.84783,8.358565 h -1.73829 l 8.61746,-24.372982 h 1.7013 l 8.58047,24.372982 h -1.81225 z"
           style="font-weight:300;font-family:'Source Sans Pro';-inkscape-font-specification:'Source Sans Pro Light';text-align:end;text-anchor:end"
           id="path1148" />
        <path
           d="m 576.0818,30.83334 h 1.77528 l 10.24478,17.197931 2.77386,4.845008 h 0.14794 q -0.074,-1.77527 -0.14794,-3.55054 -0.074,-1.775271 -0.074,-3.550541 V 30.83334 h 1.59035 v 24.372982 h -1.77527 L 580.37204,38.00839 577.59818,33.163382 h -0.14794 q 0.074,1.77527 0.14794,3.476571 0.074,1.664316 0.074,3.439586 v 15.126783 h -1.59035 z"
           style="font-weight:300;font-family:'Source Sans Pro';-inkscape-font-specification:'Source Sans Pro Light';text-align:end;text-anchor:end"
           id="path1150" />
        <path
           d="m 422.44703,78.913578 h 6.65726 q 2.03417,0 3.62451,0.369847 1.62733,0.332864 2.73688,1.146529 1.10954,0.813666 1.7013,2.108134 0.59176,1.294468 0.59176,3.180692 0,3.587526 -2.29306,5.362796 -2.29306,1.738286 -6.36139,1.738286 h -4.95596 v 10.466698 h -1.7013 z m 6.21344,12.463877 q 3.77245,0 5.54772,-1.331453 1.81226,-1.331453 1.81226,-4.327222 0,-1.553361 -0.4808,-2.551951 -0.44382,-1.035574 -1.36844,-1.664316 -0.88764,-0.628741 -2.29306,-0.887635 -1.36844,-0.258893 -3.21768,-0.258893 h -4.51214 v 11.02147 z"
           style="font-weight:300;font-family:'Source Sans Pro';-inkscape-font-specification:'Source Sans Pro Light';text-align:end;text-anchor:end"
           id="path1152" />
        <path
           d="m 452.10886,90.674743 q 3.25466,0 4.95596,-1.294468 1.73829,-1.331452 1.73829,-4.031343 0,-2.736875 -1.73829,-3.846419 -1.7013,-1.146528 -4.95596,-1.146528 h -4.80802 v 10.318758 z m 6.95314,12.611817 -6.58329,-11.206394 h -5.17787 v 11.206394 h -1.7013 V 78.913578 h 6.95314 q 1.81225,0 3.29165,0.369847 1.47939,0.332864 2.51496,1.109544 1.07256,0.776681 1.62733,1.99718 0.59176,1.220498 0.59176,2.958783 0,2.9218 -1.7013,4.586115 -1.66432,1.627332 -4.54913,2.034164 l 6.69425,11.317349 z"
           style="font-weight:300;font-family:'Source Sans Pro';-inkscape-font-specification:'Source Sans Pro Light';text-align:end;text-anchor:end"
           id="path1154" />
        <path
           d="m 478.88583,93.485588 -1.55336,-4.54913 q -0.7397,-2.182103 -1.40543,-4.179282 -0.66572,-1.997179 -1.29446,-4.253252 h -0.14794 q -0.62874,2.256073 -1.29447,4.253252 -0.66573,1.997179 -1.40542,4.179282 l -1.55336,4.54913 z m 0.4808,1.442407 h -9.65303 l -2.84783,8.358565 h -1.73829 l 8.61746,-24.372982 h 1.7013 l 8.58048,24.372982 h -1.81226 z"
           style="font-weight:300;font-family:'Source Sans Pro';-inkscape-font-specification:'Source Sans Pro Light';text-align:end;text-anchor:end"
           id="path1156" />
        <path
           d="m 488.46484,91.044591 q 0,-2.884814 0.7397,-5.214856 0.77668,-2.330042 2.14512,-3.957374 1.36844,-1.664316 3.29165,-2.514966 1.92321,-0.887635 4.25325,-0.887635 2.14512,0 3.73546,0.887635 1.62733,0.887635 2.58894,2.034164 l -0.99859,1.109544 q -0.99859,-1.109544 -2.33004,-1.77527 -1.33146,-0.702712 -2.99577,-0.702712 -1.99718,0 -3.62451,0.776681 -1.59035,0.776681 -2.69989,2.219088 -1.10955,1.405422 -1.73829,3.439586 -0.59176,2.034164 -0.59176,4.586115 0,2.551951 0.59176,4.6231 0.59176,2.034164 1.7013,3.476571 1.10955,1.442408 2.66291,2.256068 1.59034,0.77669 3.55054,0.77669 1.88622,0 3.36561,-0.7397 1.4794,-0.7397 2.81085,-2.256073 l 0.99859,1.072563 q -1.40542,1.62733 -3.14371,2.55195 -1.7013,0.92462 -4.10531,0.92462 -2.25607,0 -4.1423,-0.88764 -1.84924,-0.88763 -3.21768,-2.51496 -1.33145,-1.66432 -2.10813,-3.994362 -0.7397,-2.367028 -0.7397,-5.288827 z m 10.02288,-13.980253 h -1.47939 l 3.4026,-3.920389 h 2.14512 z"
           style="font-weight:300;font-family:'Source Sans Pro';-inkscape-font-specification:'Source Sans Pro Light';text-align:end;text-anchor:end"
           id="path1158" />
        <path
           d="m 513.42956,78.913578 h 13.31452 v 1.479391 h -11.61322 v 9.209215 h 9.76398 v 1.479392 h -9.76398 v 10.725594 h 11.98307 v 1.47939 h -13.68437 z"
           style="font-weight:300;font-family:'Source Sans Pro';-inkscape-font-specification:'Source Sans Pro Light';text-align:end;text-anchor:end"
           id="path1160" />
        <path
           d="m 534.95471,78.913578 h 1.77527 l 10.24479,17.197931 2.77386,4.845011 h 0.14794 q -0.074,-1.775273 -0.14794,-3.550543 -0.074,-1.775271 -0.074,-3.550541 V 78.913578 h 1.59035 v 24.372982 h -1.77527 L 539.24495,86.088628 536.47109,81.24362 h -0.14794 q 0.074,1.77527 0.14794,3.476571 0.074,1.664316 0.074,3.439586 v 15.126783 h -1.59035 z"
           style="font-weight:300;font-family:'Source Sans Pro';-inkscape-font-specification:'Source Sans Pro Light';text-align:end;text-anchor:end"
           id="path1162" />
        <path
           d="m 560.17833,99.292201 q 0.92462,1.553359 2.03416,2.219089 1.10955,0.66573 2.66291,0.66573 2.21909,0 3.29165,-1.33146 1.10954,-1.368435 1.10954,-4.364203 V 78.913578 h 1.7013 v 17.752703 q 0,1.479392 -0.33286,2.77386 -0.33286,1.257479 -1.07256,2.219089 -0.70271,0.9616 -1.84924,1.51638 -1.14653,0.55477 -2.81085,0.55477 -2.07114,0 -3.58752,-0.92462 -1.47939,-0.92462 -2.441,-2.66291 z"
           style="font-weight:300;font-family:'Source Sans Pro';-inkscape-font-specification:'Source Sans Pro Light';text-align:end;text-anchor:end"
           id="path1164" />
        <path
           d="m 580.59394,78.913578 h 13.31453 v 1.479391 h -11.61323 v 9.209215 h 9.76399 v 1.479392 h -9.76399 v 10.725594 h 11.98308 v 1.47939 h -13.68438 z"
           style="font-weight:300;font-family:'Source Sans Pro';-inkscape-font-specification:'Source Sans Pro Light';text-align:end;text-anchor:end"
           id="path1166" />
        <path
           d="m 426.88529,150.36821 14.05422,-21.895 h -12.79674 v -1.47939 h 14.90488 v 0.99859 l -14.01724,21.895 h 14.16518 v 1.47939 h -16.3103 z"
           style="font-weight:300;font-family:'Source Sans Pro';-inkscape-font-specification:'Source Sans Pro Light';text-align:end;text-anchor:end"
           id="path1168" />
        <path
           d="m 461.17018,141.56583 -1.55337,-4.54913 q -0.73969,-2.18211 -1.40542,-4.17929 -0.66572,-1.99718 -1.29447,-4.25325 h -0.14793 q -0.62875,2.25607 -1.29447,4.25325 -0.66573,1.99718 -1.40542,4.17929 l -1.55337,4.54913 z m 0.4808,1.4424 h -9.65303 l -2.84783,8.35857 h -1.73829 l 8.61746,-24.37298 h 1.7013 l 8.58047,24.37298 h -1.81225 z"
           style="font-weight:300;font-family:'Source Sans Pro';-inkscape-font-specification:'Source Sans Pro Light';text-align:end;text-anchor:end"
           id="path1170" />
        <path
           d="m 472.7094,126.99382 h 5.62169 q 2.81084,0 4.88199,0.85065 2.10814,0.85065 3.47657,2.44099 1.36844,1.59035 2.03417,3.80944 0.70271,2.21908 0.70271,4.99294 0,2.77386 -0.70271,5.06692 -0.66573,2.25607 -2.03417,3.88341 -1.36843,1.59034 -3.43958,2.47798 -2.07115,0.85065 -4.882,0.85065 h -5.65867 z m 5.43677,22.93057 q 2.47798,0 4.25325,-0.77668 1.81225,-0.81367 2.95878,-2.25607 1.18351,-1.44241 1.73829,-3.4026 0.55477,-1.99718 0.55477,-4.4012 0,-2.36702 -0.55477,-4.32722 -0.55478,-1.96019 -1.73829,-3.36561 -1.14653,-1.40543 -2.95878,-2.18211 -1.77527,-0.77668 -4.25325,-0.77668 h -3.73547 v 21.48817 z"
           style="font-weight:300;font-family:'Source Sans Pro';-inkscape-font-specification:'Source Sans Pro Light';text-align:end;text-anchor:end"
           id="path1172" />
        <path
           d="m 507.69705,141.56583 -1.55336,-4.54913 q -0.7397,-2.18211 -1.40543,-4.17929 -0.66572,-1.99718 -1.29446,-4.25325 h -0.14794 q -0.62875,2.25607 -1.29447,4.25325 -0.66573,1.99718 -1.40542,4.17929 l -1.55337,4.54913 z m 0.4808,1.4424 h -9.65303 l -2.84783,8.35857 h -1.73829 l 8.61746,-24.37298 h 1.7013 l 8.58047,24.37298 h -1.81225 z"
           style="font-weight:300;font-family:'Source Sans Pro';-inkscape-font-specification:'Source Sans Pro Light';text-align:end;text-anchor:end"
           id="path1174" />
        <path
           d="m 523.00868,128.47321 h -7.7668 v -1.47939 h 17.19793 v 1.47939 h -7.72982 v 22.89359 h -1.70131 z"
           style="font-weight:300;font-family:'Source Sans Pro';-inkscape-font-specification:'Source Sans Pro Light';text-align:end;text-anchor:end"
           id="path1176" />
        <path
           d="m 548.60214,141.56583 -1.55336,-4.54913 q -0.7397,-2.18211 -1.40543,-4.17929 -0.66572,-1.99718 -1.29446,-4.25325 h -0.14794 q -0.62875,2.25607 -1.29447,4.25325 -0.66573,1.99718 -1.40542,4.17929 l -1.55337,4.54913 z m 0.4808,1.4424 h -9.65303 l -2.84783,8.35857 h -1.73829 l 8.61746,-24.37298 h 1.7013 l 8.58047,24.37298 h -1.81225 z"
           style="font-weight:300;font-family:'Source Sans Pro';-inkscape-font-specification:'Source Sans Pro Light';text-align:end;text-anchor:end"
           id="path1178" />
        <path
           d="m 560.14137,126.99382 h 1.7013 v 13.53643 h 0.074 l 11.79815,-13.53643 h 1.99718 l -7.76681,9.02429 8.83936,15.34869 h -1.96019 l -8.0257,-14.05423 -4.95596,5.65868 v 8.39555 h -1.7013 z"
           style="font-weight:300;font-family:'Source Sans Pro';-inkscape-font-specification:'Source Sans Pro Light';text-align:end;text-anchor:end"
           id="path1180" />
        <path
           d="m 593.35373,141.56583 -1.55336,-4.54913 q -0.7397,-2.18211 -1.40542,-4.17929 -0.66573,-1.99718 -1.29447,-4.25325 h -0.14794 q -0.62874,2.25607 -1.29447,4.25325 -0.66572,1.99718 -1.40542,4.17929 l -1.55336,4.54913 z m 0.4808,1.4424 h -9.65303 l -2.84783,8.35857 h -1.73828 l 8.61746,-24.37298 h 1.7013 l 8.58047,24.37298 h -1.81226 z"
           style="font-weight:300;font-family:'Source Sans Pro';-inkscape-font-specification:'Source Sans Pro Light';text-align:end;text-anchor:end"
           id="path1182" />
      </g>
    </g>
    <g
       id="br"
       inkscape:label="br">
      <path
         id="path23589"
         style="fill:url(#linearGradient13470);fill-opacity:1;fill-rule:evenodd;stroke-width:0;stroke-dasharray:none;paint-order:fill markers stroke"
         d="m 398.90005,323.60912 c -5.92845,38.68549 -36.24877,69.12291 -74.87487,75.22618 -2.2157,0.3501 -4.02507,2.36256 -4.02507,4.60593 l 0,212.10794 a 4.450707,4.450707 45 0 0 4.45071,4.45071 h 271.32193 a 24.227134,24.227134 135 0 0 24.22713,-24.22713 V 324.66606 a 4.6659549,4.6659549 45 0 0 -4.66595,-4.66595 l -212.31376,0 c -2.01083,0 -3.81554,1.62152 -4.12012,3.60901 z"
         inkscape:path-effect="#path-effect25996"
         inkscape:original-d="m 399.37924,320.00011 c -4.69386,41.74151 -37.63762,74.68527 -79.37913,79.37913 V 619.99988 H 619.99988 V 320.00011 Z"
         sodipodi:nodetypes="cccccc" />
      <g
         aria-label="DODATNI
MODULI
PO ŽELJI"
         id="text2"
         style="font-size:36.9848px;font-family:FreeSans;-inkscape-font-specification:FreeSans;text-align:end;letter-spacing:2.77386px;text-anchor:end;fill:#f6f6f6;fill-opacity:0.999474;fill-rule:evenodd;stroke-width:0.264583">
        <path
           d="m 448.94856,457.80811 h 5.62169 q 2.81085,0 4.882,0.85065 2.10813,0.85065 3.47657,2.441 1.36843,1.59034 2.03416,3.80943 0.70271,2.21909 0.70271,4.99295 0,2.77386 -0.70271,5.06692 -0.66573,2.25607 -2.03416,3.8834 -1.36844,1.59035 -3.43959,2.47798 -2.07115,0.85065 -4.88199,0.85065 h -5.65868 z m 5.43677,22.93057 q 2.47798,0 4.25325,-0.77668 1.81226,-0.81366 2.95878,-2.25607 1.18352,-1.44241 1.73829,-3.4026 0.55477,-1.99718 0.55477,-4.40119 0,-2.36703 -0.55477,-4.32722 -0.55477,-1.9602 -1.73829,-3.36562 -1.14652,-1.40542 -2.95878,-2.1821 -1.77527,-0.77668 -4.25325,-0.77668 h -3.73547 v 21.48816 z"
           style="font-weight:300;font-family:'Source Sans Pro';-inkscape-font-specification:'Source Sans Pro Light'"
           id="path1099" />
        <path
           d="m 482.34587,482.62491 q -2.21909,0 -4.06833,-0.88764 -1.84924,-0.92462 -3.18069,-2.58893 -1.33145,-1.66432 -2.07115,-3.99436 -0.7397,-2.36703 -0.7397,-5.25184 0,-2.88482 0.7397,-5.17787 0.7397,-2.33005 2.07115,-3.95738 1.33145,-1.66431 3.18069,-2.51496 1.84924,-0.88764 4.06833,-0.88764 2.1821,0 4.03134,0.88764 1.84924,0.85065 3.1807,2.51496 1.33145,1.62733 2.07114,3.95738 0.7397,2.29305 0.7397,5.17787 0,2.88481 -0.7397,5.25184 -0.73969,2.33004 -2.07114,3.99436 -1.33146,1.66431 -3.1807,2.58893 -1.84924,0.88764 -4.03134,0.88764 z m 0,-1.55336 q 1.84924,0 3.36562,-0.77668 1.51637,-0.81367 2.58893,-2.25608 1.10955,-1.47939 1.7013,-3.51355 0.59176,-2.07115 0.59176,-4.6231 0,-2.51497 -0.59176,-4.54913 -0.59175,-2.03417 -1.7013,-3.43959 -1.07256,-1.44241 -2.58893,-2.21909 -1.51638,-0.77668 -3.36562,-0.77668 -1.84924,0 -3.4026,0.77668 -1.51638,0.77668 -2.62592,2.21909 -1.07256,1.40542 -1.66432,3.43959 -0.59176,2.03416 -0.59176,4.54913 0,2.55195 0.59176,4.6231 0.59176,2.03416 1.66432,3.51355 1.10954,1.44241 2.62592,2.25608 1.55336,0.77668 3.4026,0.77668 z"
           style="font-weight:300;font-family:'Source Sans Pro';-inkscape-font-specification:'Source Sans Pro Light'"
           id="path1101" />
        <path
           d="m 500.50542,457.80811 h 5.62169 q 2.81085,0 4.882,0.85065 2.10813,0.85065 3.47657,2.441 1.36844,1.59034 2.03416,3.80943 0.70271,2.21909 0.70271,4.99295 0,2.77386 -0.70271,5.06692 -0.66572,2.25607 -2.03416,3.8834 -1.36844,1.59035 -3.43959,2.47798 -2.07115,0.85065 -4.88199,0.85065 h -5.65868 z m 5.43677,22.93057 q 2.47798,0 4.25325,-0.77668 1.81226,-0.81366 2.95879,-2.25607 1.18351,-1.44241 1.73828,-3.4026 0.55477,-1.99718 0.55477,-4.40119 0,-2.36703 -0.55477,-4.32722 -0.55477,-1.9602 -1.73828,-3.36562 -1.14653,-1.40542 -2.95879,-2.1821 -1.77527,-0.77668 -4.25325,-0.77668 h -3.73546 v 21.48816 z"
           style="font-weight:300;font-family:'Source Sans Pro';-inkscape-font-specification:'Source Sans Pro Light'"
           id="path1103" />
        <path
           d="m 535.49307,472.38012 -1.55336,-4.54913 q -0.7397,-2.1821 -1.40543,-4.17928 -0.66572,-1.99718 -1.29446,-4.25325 h -0.14794 q -0.62874,2.25607 -1.29447,4.25325 -0.66573,1.99718 -1.40542,4.17928 l -1.55336,4.54913 z m 0.4808,1.44241 h -9.65303 l -2.84783,8.35856 h -1.73829 l 8.61746,-24.37298 h 1.7013 l 8.58048,24.37298 h -1.81226 z"
           style="font-weight:300;font-family:'Source Sans Pro';-inkscape-font-specification:'Source Sans Pro Light'"
           id="path1105" />
        <path
           d="m 550.80471,459.2875 h -7.76681 v -1.47939 h 17.19793 v 1.47939 h -7.72982 v 22.89359 h -1.7013 z"
           style="font-weight:300;font-family:'Source Sans Pro';-inkscape-font-specification:'Source Sans Pro Light'"
           id="path1107" />
        <path
           d="m 567.44788,457.80811 h 1.77527 l 10.24479,17.19793 2.77386,4.84501 h 0.14794 q -0.074,-1.77527 -0.14794,-3.55054 -0.074,-1.77527 -0.074,-3.55054 v -14.94186 h 1.59034 v 24.37298 h -1.77527 l -10.24479,-17.19793 -2.77386,-4.84501 h -0.14794 q 0.074,1.77527 0.14794,3.47657 0.074,1.66432 0.074,3.43959 v 15.12678 h -1.59034 z"
           style="font-weight:300;font-family:'Source Sans Pro';-inkscape-font-specification:'Source Sans Pro Light'"
           id="path1109" />
        <path
           d="m 593.48517,457.80811 h 1.7013 v 24.37298 h -1.7013 z"
           style="font-weight:300;font-family:'Source Sans Pro';-inkscape-font-specification:'Source Sans Pro Light'"
           id="path1111" />
        <path
           d="m 467.5519,505.88835 h 2.36703 l 5.1039,14.31311 1.92321,5.39978 h 0.14794 l 1.88622,-5.39978 5.06692,-14.31311 h 2.40401 v 24.37298 h -1.66432 v -16.01442 q 0,-1.51638 0.074,-3.25466 0.074,-1.77527 0.14794,-3.32863 h -0.14794 l -1.88622,5.36279 -5.25184,14.57201 h -1.47939 l -5.25185,-14.57201 -1.92321,-5.36279 h -0.14793 q 0.074,1.55336 0.11095,3.32863 0.074,1.73828 0.074,3.25466 v 16.01442 h -1.55336 z"
           style="font-weight:300;font-family:'Source Sans Pro';-inkscape-font-specification:'Source Sans Pro Light'"
           id="path1113" />
        <path
           d="m 504.64763,530.70515 q -2.21909,0 -4.06833,-0.88764 -1.84924,-0.92462 -3.18069,-2.58893 -1.33145,-1.66432 -2.07115,-3.99436 -0.7397,-2.36703 -0.7397,-5.25184 0,-2.88482 0.7397,-5.17788 0.7397,-2.33004 2.07115,-3.95737 1.33145,-1.66431 3.18069,-2.51497 1.84924,-0.88763 4.06833,-0.88763 2.1821,0 4.03134,0.88763 1.84924,0.85066 3.1807,2.51497 1.33145,1.62733 2.07114,3.95737 0.7397,2.29306 0.7397,5.17788 0,2.88481 -0.7397,5.25184 -0.73969,2.33004 -2.07114,3.99436 -1.33146,1.66431 -3.1807,2.58893 -1.84924,0.88764 -4.03134,0.88764 z m 0,-1.55336 q 1.84924,0 3.36562,-0.77669 1.51637,-0.81366 2.58893,-2.25607 1.10955,-1.47939 1.7013,-3.51355 0.59176,-2.07115 0.59176,-4.6231 0,-2.51497 -0.59176,-4.54913 -0.59175,-2.03417 -1.7013,-3.43959 -1.07256,-1.44241 -2.58893,-2.21909 -1.51638,-0.77668 -3.36562,-0.77668 -1.84924,0 -3.4026,0.77668 -1.51638,0.77668 -2.62592,2.21909 -1.07256,1.40542 -1.66432,3.43959 -0.59175,2.03416 -0.59175,4.54913 0,2.55195 0.59175,4.6231 0.59176,2.03416 1.66432,3.51355 1.10954,1.44241 2.62592,2.25607 1.55336,0.77669 3.4026,0.77669 z"
           style="font-weight:300;font-family:'Source Sans Pro';-inkscape-font-specification:'Source Sans Pro Light'"
           id="path1115" />
        <path
           d="m 522.80718,505.88835 h 5.62169 q 2.81085,0 4.88199,0.85065 2.10814,0.85065 3.47658,2.44099 1.36843,1.59035 2.03416,3.80944 0.70271,2.21909 0.70271,4.99295 0,2.77386 -0.70271,5.06691 -0.66573,2.25608 -2.03416,3.88341 -1.36844,1.59034 -3.43959,2.47798 -2.07115,0.85065 -4.88199,0.85065 h -5.65868 z m 5.43677,22.93057 q 2.47798,0 4.25325,-0.77668 1.81225,-0.81366 2.95878,-2.25607 1.18352,-1.44241 1.73829,-3.4026 0.55477,-1.99718 0.55477,-4.40119 0,-2.36703 -0.55477,-4.32723 -0.55477,-1.96019 -1.73829,-3.36561 -1.14653,-1.40542 -2.95878,-2.1821 -1.77527,-0.77669 -4.25325,-0.77669 h -3.73547 v 21.48817 z"
           style="font-weight:300;font-family:'Source Sans Pro';-inkscape-font-specification:'Source Sans Pro Light'"
           id="path1117" />
        <path
           d="m 547.62402,505.88835 h 1.7013 v 14.8309 q 0,2.441 0.51779,4.06833 0.55477,1.59035 1.4424,2.58893 0.88764,0.96161 2.07115,1.36844 1.18352,0.40684 2.47798,0.40684 1.33146,0 2.51497,-0.40684 1.18351,-0.40683 2.10813,-1.36844 0.92462,-0.99858 1.44241,-2.58893 0.55477,-1.62733 0.55477,-4.06833 v -14.8309 h 1.62733 v 15.01583 q 0,2.84782 -0.70271,4.73405 -0.70271,1.88622 -1.84924,3.03275 -1.14653,1.10955 -2.6629,1.59035 -1.47939,0.44382 -3.03276,0.44382 -1.59034,0 -3.06973,-0.44382 -1.4794,-0.4808 -2.62592,-1.59035 -1.14653,-1.14653 -1.84924,-3.03275 -0.66573,-1.88623 -0.66573,-4.73405 z"
           style="font-weight:300;font-family:'Source Sans Pro';-inkscape-font-specification:'Source Sans Pro Light'"
           id="path1119" />
        <path
           d="m 573.69833,505.88835 h 1.7013 v 22.89359 h 11.20639 v 1.47939 h -12.90769 z"
           style="font-weight:300;font-family:'Source Sans Pro';-inkscape-font-specification:'Source Sans Pro Light'"
           id="path1121" />
        <path
           d="m 593.48516,505.88835 h 1.7013 v 24.37298 h -1.7013 z"
           style="font-weight:300;font-family:'Source Sans Pro';-inkscape-font-specification:'Source Sans Pro Light'"
           id="path1123" />
        <path
           d="m 453.01691,553.96859 h 6.65727 q 2.03416,0 3.62451,0.36984 1.62733,0.33287 2.73687,1.14653 1.10955,0.81367 1.7013,2.10814 0.59176,1.29446 0.59176,3.18069 0,3.58752 -2.29306,5.36279 -2.29305,1.73829 -6.36138,1.73829 h -4.95597 v 10.4667 h -1.7013 z m 6.21345,12.46387 q 3.77245,0 5.54772,-1.33145 1.81225,-1.33145 1.81225,-4.32722 0,-1.55336 -0.4808,-2.55195 -0.44382,-1.03558 -1.36844,-1.66432 -0.88763,-0.62874 -2.29305,-0.88763 -1.36844,-0.2589 -3.21768,-0.2589 h -4.51215 v 11.02147 z"
           style="font-weight:300;font-family:'Source Sans Pro';-inkscape-font-specification:'Source Sans Pro Light'"
           id="path1125" />
        <path
           d="m 484.63894,578.78538 q -2.21909,0 -4.06833,-0.88763 -1.84924,-0.92462 -3.18069,-2.58894 -1.33145,-1.66431 -2.07115,-3.99435 -0.7397,-2.36703 -0.7397,-5.25185 0,-2.88481 0.7397,-5.17787 0.7397,-2.33004 2.07115,-3.95737 1.33145,-1.66432 3.18069,-2.51497 1.84924,-0.88763 4.06833,-0.88763 2.1821,0 4.03134,0.88763 1.84924,0.85065 3.1807,2.51497 1.33145,1.62733 2.07114,3.95737 0.7397,2.29306 0.7397,5.17787 0,2.88482 -0.7397,5.25185 -0.73969,2.33004 -2.07114,3.99435 -1.33146,1.66432 -3.1807,2.58894 -1.84924,0.88763 -4.03134,0.88763 z m 0,-1.55336 q 1.84924,0 3.36562,-0.77668 1.51637,-0.81366 2.58893,-2.25607 1.10955,-1.47939 1.7013,-3.51356 0.59176,-2.07114 0.59176,-4.6231 0,-2.51496 -0.59176,-4.54913 -0.59175,-2.03416 -1.7013,-3.43958 -1.07256,-1.44241 -2.58893,-2.21909 -1.51638,-0.77668 -3.36562,-0.77668 -1.84924,0 -3.4026,0.77668 -1.51638,0.77668 -2.62592,2.21909 -1.07256,1.40542 -1.66432,3.43958 -0.59175,2.03417 -0.59175,4.54913 0,2.55196 0.59175,4.6231 0.59176,2.03417 1.66432,3.51356 1.10954,1.44241 2.62592,2.25607 1.55336,0.77668 3.4026,0.77668 z"
           style="font-weight:300;font-family:'Source Sans Pro';-inkscape-font-specification:'Source Sans Pro Light'"
           id="path1127" />
        <path
           d="m 511.15703,577.34298 14.05423,-21.895 h -12.79674 v -1.47939 h 14.90487 v 0.99858 l -14.01724,21.89501 h 14.16518 v 1.47939 h -16.3103 z m 12.79674,-29.14402 -3.55054,3.92039 h -1.55336 l -3.55054,-3.92039 h 1.47939 l 2.77386,2.6629 h 0.14794 l 2.77386,-2.6629 z"
           style="font-weight:300;font-family:'Source Sans Pro';-inkscape-font-specification:'Source Sans Pro Light'"
           id="path1129" />
        <path
           d="m 535.3451,553.96859 h 13.31453 v 1.47939 H 537.0464 v 9.20921 h 9.76399 v 1.47939 h -9.76399 v 10.7256 h 11.98307 v 1.47939 H 535.3451 Z"
           style="font-weight:300;font-family:'Source Sans Pro';-inkscape-font-specification:'Source Sans Pro Light'"
           id="path1131" />
        <path
           d="m 556.87025,553.96859 h 1.7013 v 22.89359 h 11.20639 v 1.47939 h -12.90769 z"
           style="font-weight:300;font-family:'Source Sans Pro';-inkscape-font-specification:'Source Sans Pro Light'"
           id="path1133" />
        <path
           d="m 575.84342,574.34721 q 0.92462,1.55336 2.03416,2.21909 1.10954,0.66572 2.6629,0.66572 2.21909,0 3.29165,-1.33145 1.10955,-1.36844 1.10955,-4.36421 v -17.56777 h 1.7013 v 17.7527 q 0,1.47939 -0.33287,2.77386 -0.33286,1.25748 -1.07256,2.21909 -0.70271,0.9616 -1.84924,1.51637 -1.14652,0.55477 -2.81084,0.55477 -2.07115,0 -3.58753,-0.92462 -1.47939,-0.92462 -2.44099,-2.6629 z"
           style="font-weight:300;font-family:'Source Sans Pro';-inkscape-font-specification:'Source Sans Pro Light'"
           id="path1135" />
        <path
           d="m 596.25902,553.96859 h 1.70131 v 24.37298 h -1.70131 z"
           style="font-weight:300;font-family:'Source Sans Pro';-inkscape-font-specification:'Source Sans Pro Light'"
           id="path1137" />
      </g>
    </g>
    <g
       id="bl"
       inkscape:label="bl">
      <path
         id="rect815-6"
         style="opacity:1;mix-blend-mode:normal;fill:url(#linearGradient11853);fill-opacity:1;fill-rule:evenodd;stroke-width:0.265;stroke-dasharray:none"
         d="m 0,321.05844 v 273.33251 a 25.608927,25.608927 45 0 0 25.608927,25.60893 H 298.94145 a 1.0583333,1.0583333 135 0 0 1.05833,-1.05833 V 400.43757 c 0,-0.5845 -0.47096,-1.11064 -1.05099,-1.18271 -40.8928,-5.08063 -73.12314,-37.31096 -78.20377,-78.20376 -0.0721,-0.58003 -0.59821,-1.05099 -1.18271,-1.05099 l -218.5039767,0 A 1.0583333,1.0583333 135 0 0 0,321.05844 Z"
         inkscape:original-d="M 0,320.00011 V 619.99988 H 299.99978 V 399.37924 a 90,90 0 0 1 -79.37914,-79.37913 z"
         inkscape:path-effect="#path-effect26101" />
      <g
         aria-label="UPRAVLJANJE
POSLOVNIM
PODATCIMA"
         id="text1"
         style="font-size:36.9848px;font-family:FreeSans;-inkscape-font-specification:FreeSans;text-align:end;letter-spacing:2.77386px;text-anchor:end;fill:#f6f6f6;fill-opacity:0.999474;fill-rule:evenodd;stroke-width:0.264583"
         inkscape:label="text6877">
        <path
           d="m 20.972102,459.58216 h 1.701301 v 14.8309 q 0,2.441 0.517787,4.06833 0.554772,1.59035 1.442407,2.58893 0.887635,0.96161 2.071149,1.36844 1.183513,0.40684 2.477981,0.40684 1.331453,0 2.514967,-0.40684 1.183513,-0.40683 2.108133,-1.36844 0.92462,-0.99858 1.442407,-2.58893 0.554772,-1.62733 0.554772,-4.06833 v -14.8309 h 1.627331 v 15.01583 q 0,2.84782 -0.702711,4.73405 -0.702711,1.88622 -1.84924,3.03275 -1.146529,1.10955 -2.662905,1.59035 -1.479392,0.44382 -3.032754,0.44382 -1.590346,0 -3.069738,-0.44382 -1.479392,-0.4808 -2.625921,-1.59035 -1.146528,-1.14653 -1.84924,-3.03275 -0.665726,-1.88623 -0.665726,-4.73405 z"
           style="font-weight:300;font-family:'Source Sans Pro';-inkscape-font-specification:'Source Sans Pro Light';text-align:start;text-anchor:start"
           id="path1040" />
        <path
           d="m 47.046416,459.58216 h 6.657264 q 2.034164,0 3.62451,0.36984 1.627331,0.33287 2.736875,1.14653 1.109544,0.81367 1.701301,2.10814 0.591757,1.29447 0.591757,3.18069 0,3.58753 -2.293058,5.3628 -2.293057,1.73828 -6.361385,1.73828 h -4.955963 v 10.4667 h -1.701301 z m 6.213446,12.46387 q 3.77245,0 5.54772,-1.33145 1.812255,-1.33145 1.812255,-4.32722 0,-1.55336 -0.480802,-2.55195 -0.443818,-1.03558 -1.368438,-1.66432 -0.887635,-0.62874 -2.293057,-0.88763 -1.368438,-0.2589 -3.217678,-0.2589 h -4.512145 v 11.02147 z"
           style="font-weight:300;font-family:'Source Sans Pro';-inkscape-font-specification:'Source Sans Pro Light';text-align:start;text-anchor:start"
           id="path1042" />
        <path
           d="m 76.708249,471.34332 q 3.254662,0 4.955963,-1.29447 1.738285,-1.33145 1.738285,-4.03134 0,-2.73687 -1.738285,-3.84642 -1.701301,-1.14653 -4.955963,-1.14653 h -4.808024 v 10.31876 z m 6.953142,12.61182 -6.583294,-11.20639 h -5.177872 v 11.20639 h -1.701301 v -24.37298 h 6.953142 q 1.812255,0 3.291647,0.36984 1.479392,0.33287 2.514966,1.10955 1.07256,0.77668 1.627332,1.99718 0.591756,1.2205 0.591756,2.95878 0,2.9218 -1.7013,4.58612 -1.664316,1.62733 -4.549131,2.03416 l 6.694249,11.31735 z"
           style="font-weight:300;font-family:'Source Sans Pro';-inkscape-font-specification:'Source Sans Pro Light';text-align:start;text-anchor:start"
           id="path1044" />
        <path
           d="m 103.48521,474.15417 -1.55336,-4.54913 q -0.7397,-2.18211 -1.40542,-4.17928 -0.665728,-1.99718 -1.29447,-4.25326 h -0.147939 q -0.628741,2.25608 -1.294468,4.25326 -0.665726,1.99717 -1.405422,4.17928 l -1.553362,4.54913 z m 0.4808,1.4424 h -9.653028 l -2.847829,8.35857 h -1.738286 l 8.617458,-24.37298 h 1.701305 l 8.58047,24.37298 h -1.81226 z"
           style="font-weight:300;font-family:'Source Sans Pro';-inkscape-font-specification:'Source Sans Pro Light';text-align:start;text-anchor:start"
           id="path1046" />
        <path
           d="m 111.17803,459.58216 h 1.81226 l 4.51214,14.23914 q 0.33287,1.10955 0.62874,2.10814 0.33287,0.99859 0.62875,1.99718 0.29587,0.9616 0.59175,1.96019 0.33286,0.99859 0.70271,2.10813 h 0.14794 q 0.7397,-2.21908 1.29447,-4.06832 0.59176,-1.88623 1.29447,-4.10532 l 4.51214,-14.23914 h 1.7013 l -7.95173,24.37298 h -1.84924 z"
           style="font-weight:300;font-family:'Source Sans Pro';-inkscape-font-specification:'Source Sans Pro Light';text-align:start;text-anchor:start"
           id="path1048" />
        <path
           d="m 135.29209,459.58216 h 1.7013 v 22.89359 h 11.2064 v 1.47939 h -12.9077 z"
           style="font-weight:300;font-family:'Source Sans Pro';-inkscape-font-specification:'Source Sans Pro Light';text-align:start;text-anchor:start"
           id="path1050" />
        <path
           d="m 154.26526,479.96078 q 0.92462,1.55336 2.03416,2.21909 1.10954,0.66573 2.66291,0.66573 2.21908,0 3.29164,-1.33146 1.10955,-1.36844 1.10955,-4.3642 v -17.56778 h 1.7013 v 17.7527 q 0,1.47939 -0.33287,2.77386 -0.33286,1.25748 -1.07256,2.21909 -0.70271,0.9616 -1.84924,1.51637 -1.14652,0.55478 -2.81084,0.55478 -2.07115,0 -3.58753,-0.92462 -1.47939,-0.92462 -2.44099,-2.66291 z"
           style="font-weight:300;font-family:'Source Sans Pro';-inkscape-font-specification:'Source Sans Pro Light';text-align:start;text-anchor:start"
           id="path1052" />
        <path
           d="m 185.11058,474.15417 -1.55336,-4.54913 q -0.7397,-2.18211 -1.40543,-4.17928 -0.66572,-1.99718 -1.29446,-4.25326 h -0.14794 q -0.62874,2.25608 -1.29447,4.25326 -0.66573,1.99717 -1.40542,4.17928 l -1.55336,4.54913 z m 0.4808,1.4424 h -9.65303 l -2.84783,8.35857 h -1.73829 l 8.61746,-24.37298 h 1.7013 l 8.58048,24.37298 h -1.81226 z"
           style="font-weight:300;font-family:'Source Sans Pro';-inkscape-font-specification:'Source Sans Pro Light';text-align:start;text-anchor:start"
           id="path1054" />
        <path
           d="m 196.6498,459.58216 h 1.77527 l 10.24479,17.19793 2.77386,4.84501 h 0.14794 q -0.074,-1.77527 -0.14794,-3.55054 -0.074,-1.77527 -0.074,-3.55054 v -14.94186 h 1.59034 v 24.37298 h -1.77527 l -10.24479,-17.19793 -2.77385,-4.84501 h -0.14794 q 0.074,1.77527 0.14794,3.47657 0.074,1.66432 0.074,3.43959 v 15.12678 h -1.59034 z"
           style="font-weight:300;font-family:'Source Sans Pro';-inkscape-font-specification:'Source Sans Pro Light';text-align:start;text-anchor:start"
           id="path1056" />
        <path
           d="m 221.87343,479.96078 q 0.92462,1.55336 2.03416,2.21909 1.10954,0.66573 2.6629,0.66573 2.21909,0 3.29165,-1.33146 1.10955,-1.36844 1.10955,-4.3642 v -17.56778 h 1.7013 v 17.7527 q 0,1.47939 -0.33287,2.77386 -0.33286,1.25748 -1.07256,2.21909 -0.70271,0.9616 -1.84924,1.51637 -1.14652,0.55478 -2.81084,0.55478 -2.07115,0 -3.58753,-0.92462 -1.47939,-0.92462 -2.44099,-2.66291 z"
           style="font-weight:300;font-family:'Source Sans Pro';-inkscape-font-specification:'Source Sans Pro Light';text-align:start;text-anchor:start"
           id="path1058" />
        <path
           d="m 242.28903,459.58216 h 13.31453 v 1.47939 h -11.61322 v 9.20921 h 9.76398 v 1.4794 h -9.76398 v 10.72559 h 11.98307 v 1.47939 h -13.68438 z"
           style="font-weight:300;font-family:'Source Sans Pro';-inkscape-font-specification:'Source Sans Pro Light';text-align:start;text-anchor:start"
           id="path1060" />
        <path
           d="m 21.083056,507.66239 h 6.657264 q 2.034164,0 3.62451,0.36985 1.627332,0.33287 2.736875,1.14653 1.109544,0.81367 1.701301,2.10814 0.591757,1.29446 0.591757,3.18069 0,3.58752 -2.293058,5.36279 -2.293057,1.73829 -6.361385,1.73829 h -4.955963 v 10.4667 h -1.701301 z m 6.213447,12.46388 q 3.772449,0 5.547719,-1.33145 1.812255,-1.33145 1.812255,-4.32722 0,-1.55336 -0.480802,-2.55195 -0.443818,-1.03558 -1.368437,-1.66432 -0.887636,-0.62874 -2.293058,-0.88763 -1.368438,-0.2589 -3.217677,-0.2589 h -4.512146 v 11.02147 z"
           style="font-weight:300;font-family:'Source Sans Pro';-inkscape-font-specification:'Source Sans Pro Light';text-align:start;text-anchor:start"
           id="path1062" />
        <path
           d="m 52.705083,532.47919 q -2.219088,0 -4.068328,-0.88763 -1.84924,-0.92462 -3.180692,-2.58894 -1.331453,-1.66431 -2.071149,-3.99435 -0.739696,-2.36703 -0.739696,-5.25185 0,-2.88481 0.739696,-5.17787 0.739696,-2.33004 2.071149,-3.95737 1.331452,-1.66432 3.180692,-2.51497 1.84924,-0.88763 4.068328,-0.88763 2.182103,0 4.031343,0.88763 1.84924,0.85065 3.180693,2.51497 1.331452,1.62733 2.071148,3.95737 0.739696,2.29306 0.739696,5.17787 0,2.88482 -0.739696,5.25185 -0.739696,2.33004 -2.071148,3.99435 -1.331453,1.66432 -3.180693,2.58894 -1.84924,0.88763 -4.031343,0.88763 z m 0,-1.55336 q 1.84924,0 3.365617,-0.77668 1.516376,-0.81366 2.588936,-2.25607 1.109544,-1.47939 1.7013,-3.51356 0.591757,-2.07114 0.591757,-4.6231 0,-2.51496 -0.591757,-4.54913 -0.591756,-2.03416 -1.7013,-3.43958 -1.07256,-1.44241 -2.588936,-2.21909 -1.516377,-0.77668 -3.365617,-0.77668 -1.84924,0 -3.402601,0.77668 -1.516377,0.77668 -2.625921,2.21909 -1.072559,1.40542 -1.664316,3.43958 -0.591757,2.03417 -0.591757,4.54913 0,2.55196 0.591757,4.6231 0.591757,2.03417 1.664316,3.51356 1.109544,1.44241 2.625921,2.25607 1.553361,0.77668 3.402601,0.77668 z"
           style="font-weight:300;font-family:'Source Sans Pro';-inkscape-font-specification:'Source Sans Pro Light';text-align:start;text-anchor:start"
           id="path1064" />
        <path
           d="m 70.050969,527.63419 q 1.331453,1.51637 3.180693,2.40401 1.84924,0.88763 3.994358,0.88763 2.77386,0 4.401191,-1.33145 1.664316,-1.36844 1.664316,-3.55054 0,-1.14653 -0.369848,-1.92321 -0.332863,-0.77668 -0.92462,-1.33145 -0.591757,-0.59176 -1.405423,-0.99859 -0.813665,-0.44382 -1.7013,-0.85065 l -3.69848,-1.66432 q -0.776681,-0.33286 -1.664316,-0.81366 -0.85065,-0.48081 -1.590346,-1.18352 -0.702712,-0.73969 -1.183514,-1.7013 -0.480802,-0.99859 -0.480802,-2.36703 0,-1.33145 0.517787,-2.40401 0.554772,-1.10954 1.479392,-1.88622 0.961605,-0.81367 2.256073,-1.25749 1.294467,-0.44381 2.810844,-0.44381 2.219088,0 3.957374,0.88763 1.738285,0.85065 2.847829,2.03417 l -0.998589,1.14653 q -1.07256,-1.14653 -2.514967,-1.81226 -1.442407,-0.70271 -3.291647,-0.70271 -2.440996,0 -3.920388,1.18351 -1.442408,1.18352 -1.442408,3.1807 0,1.07255 0.406833,1.81225 0.406833,0.7397 1.035575,1.29447 0.628741,0.51779 1.368437,0.92462 0.739696,0.36985 1.405422,0.66572 l 3.69848,1.62734 q 0.99859,0.44381 1.92321,0.99859 0.92462,0.55477 1.627331,1.29446 0.702711,0.7397 1.109544,1.77527 0.443817,0.99859 0.443817,2.40402 0,1.40542 -0.554771,2.62592 -0.554772,1.18351 -1.590347,2.07114 -0.998589,0.85066 -2.440997,1.36844 -1.442407,0.4808 -3.217677,0.4808 -2.662905,0 -4.734054,-0.99858 -2.034164,-1.03558 -3.476571,-2.66291 z"
           style="font-weight:300;font-family:'Source Sans Pro';-inkscape-font-specification:'Source Sans Pro Light';text-align:start;text-anchor:start"
           id="path1066" />
        <path
           d="m 92.648677,507.66239 h 1.701301 v 22.8936 h 11.206392 v 1.47939 H 92.648677 Z"
           style="font-weight:300;font-family:'Source Sans Pro';-inkscape-font-specification:'Source Sans Pro Light';text-align:start;text-anchor:start"
           id="path1068" />
        <path
           d="m 120.16531,532.47919 q -2.21908,0 -4.06832,-0.88763 -1.84924,-0.92462 -3.1807,-2.58894 -1.33145,-1.66431 -2.07114,-3.99435 -0.7397,-2.36703 -0.7397,-5.25185 0,-2.88481 0.7397,-5.17787 0.73969,-2.33004 2.07114,-3.95737 1.33146,-1.66432 3.1807,-2.51497 1.84924,-0.88763 4.06832,-0.88763 2.18211,0 4.03135,0.88763 1.84924,0.85065 3.18069,2.51497 1.33145,1.62733 2.07115,3.95737 0.7397,2.29306 0.7397,5.17787 0,2.88482 -0.7397,5.25185 -0.7397,2.33004 -2.07115,3.99435 -1.33145,1.66432 -3.18069,2.58894 -1.84924,0.88763 -4.03135,0.88763 z m 0,-1.55336 q 1.84924,0 3.36562,-0.77668 1.51638,-0.81366 2.58894,-2.25607 1.10954,-1.47939 1.7013,-3.51356 0.59175,-2.07114 0.59175,-4.6231 0,-2.51496 -0.59175,-4.54913 -0.59176,-2.03416 -1.7013,-3.43958 -1.07256,-1.44241 -2.58894,-2.21909 -1.51638,-0.77668 -3.36562,-0.77668 -1.84924,0 -3.4026,0.77668 -1.51637,0.77668 -2.62592,2.21909 -1.07256,1.40542 -1.66431,3.43958 -0.59176,2.03417 -0.59176,4.54913 0,2.55196 0.59176,4.6231 0.59175,2.03417 1.66431,3.51356 1.10955,1.44241 2.62592,2.25607 1.55336,0.77668 3.4026,0.77668 z"
           style="font-weight:300;font-family:'Source Sans Pro';-inkscape-font-specification:'Source Sans Pro Light';text-align:start;text-anchor:start"
           id="path1070" />
        <path
           d="m 134.51543,507.66239 h 1.81225 l 4.51215,14.23915 q 0.33286,1.10955 0.62874,2.10814 0.33286,0.99859 0.62874,1.99717 0.29588,0.96161 0.59176,1.9602 0.33286,0.99859 0.70271,2.10813 h 0.14794 q 0.73969,-2.21909 1.29446,-4.06833 0.59176,-1.88622 1.29447,-4.10531 l 4.51215,-14.23915 h 1.7013 l -7.95173,24.37299 h -1.84924 z"
           style="font-weight:300;font-family:'Source Sans Pro';-inkscape-font-specification:'Source Sans Pro Light';text-align:start;text-anchor:start"
           id="path1072" />
        <path
           d="m 158.62949,507.66239 h 1.77527 l 10.24479,17.19794 2.77386,4.845 h 0.14794 q -0.074,-1.77527 -0.14794,-3.55054 -0.074,-1.77527 -0.074,-3.55054 v -14.94186 h 1.59035 v 24.37299 h -1.77528 l -10.24478,-17.19793 -2.77386,-4.84501 h -0.14794 q 0.074,1.77527 0.14794,3.47657 0.074,1.66431 0.074,3.43958 v 15.12679 h -1.59035 z"
           style="font-weight:300;font-family:'Source Sans Pro';-inkscape-font-specification:'Source Sans Pro Light';text-align:start;text-anchor:start"
           id="path1074" />
        <path
           d="m 184.66678,507.66239 h 1.7013 v 24.37299 h -1.7013 z"
           style="font-weight:300;font-family:'Source Sans Pro';-inkscape-font-specification:'Source Sans Pro Light';text-align:start;text-anchor:start"
           id="path1076" />
        <path
           d="m 196.05809,507.66239 h 2.36703 l 5.1039,14.31312 1.92321,5.39978 h 0.14794 l 1.88623,-5.39978 5.06691,-14.31312 h 2.40402 v 24.37299 h -1.66432 v -16.01442 q 0,-1.51638 0.074,-3.25466 0.074,-1.77527 0.14794,-3.32863 h -0.14794 l -1.88623,5.36279 -5.25184,14.57201 h -1.47939 l -5.25184,-14.57201 -1.92321,-5.36279 h -0.14794 q 0.074,1.55336 0.11095,3.32863 0.074,1.73828 0.074,3.25466 v 16.01442 h -1.55336 z"
           style="font-weight:300;font-family:'Source Sans Pro';-inkscape-font-specification:'Source Sans Pro Light';text-align:start;text-anchor:start"
           id="path1078" />
        <path
           d="m 21.083056,555.74263 h 6.657264 q 2.034164,0 3.62451,0.36985 1.627332,0.33286 2.736875,1.14653 1.109544,0.81367 1.701301,2.10813 0.591757,1.29447 0.591757,3.1807 0,3.58752 -2.293058,5.36279 -2.293057,1.73829 -6.361385,1.73829 h -4.955963 v 10.4667 h -1.701301 z m 6.213447,12.46388 q 3.772449,0 5.547719,-1.33145 1.812255,-1.33146 1.812255,-4.32722 0,-1.55337 -0.480802,-2.55196 -0.443818,-1.03557 -1.368437,-1.66431 -0.887636,-0.62874 -2.293058,-0.88764 -1.368438,-0.25889 -3.217677,-0.25889 h -4.512146 v 11.02147 z"
           style="font-weight:300;font-family:'Source Sans Pro';-inkscape-font-specification:'Source Sans Pro Light';text-align:start;text-anchor:start"
           id="path1080" />
        <path
           d="m 52.705083,580.55943 q -2.219088,0 -4.068328,-0.88763 -1.84924,-0.92462 -3.180692,-2.58894 -1.331453,-1.66431 -2.071149,-3.99436 -0.739696,-2.36702 -0.739696,-5.25184 0,-2.88481 0.739696,-5.17787 0.739696,-2.33004 2.071149,-3.95737 1.331452,-1.66432 3.180692,-2.51497 1.84924,-0.88763 4.068328,-0.88763 2.182103,0 4.031343,0.88763 1.84924,0.85065 3.180693,2.51497 1.331452,1.62733 2.071148,3.95737 0.739696,2.29306 0.739696,5.17787 0,2.88482 -0.739696,5.25184 -0.739696,2.33005 -2.071148,3.99436 -1.331453,1.66432 -3.180693,2.58894 -1.84924,0.88763 -4.031343,0.88763 z m 0,-1.55336 q 1.84924,0 3.365617,-0.77668 1.516376,-0.81367 2.588936,-2.25607 1.109544,-1.47939 1.7013,-3.51356 0.591757,-2.07115 0.591757,-4.6231 0,-2.51496 -0.591757,-4.54913 -0.591756,-2.03416 -1.7013,-3.43958 -1.07256,-1.44241 -2.588936,-2.21909 -1.516377,-0.77668 -3.365617,-0.77668 -1.84924,0 -3.402601,0.77668 -1.516377,0.77668 -2.625921,2.21909 -1.072559,1.40542 -1.664316,3.43958 -0.591757,2.03417 -0.591757,4.54913 0,2.55195 0.591757,4.6231 0.591757,2.03417 1.664316,3.51356 1.109544,1.4424 2.625921,2.25607 1.553361,0.77668 3.402601,0.77668 z"
           style="font-weight:300;font-family:'Source Sans Pro';-inkscape-font-specification:'Source Sans Pro Light';text-align:start;text-anchor:start"
           id="path1082" />
        <path
           d="m 70.864634,555.74263 h 5.62169 q 2.810845,0 4.881993,0.85065 2.108134,0.85065 3.476571,2.441 1.368438,1.59035 2.034164,3.80943 0.702711,2.21909 0.702711,4.99295 0,2.77386 -0.702711,5.06692 -0.665726,2.25607 -2.034164,3.8834 -1.368437,1.59035 -3.439586,2.47798 -2.071149,0.85066 -4.881993,0.85066 h -5.658675 z m 5.436766,22.93058 q 2.477981,0 4.253252,-0.77668 1.812255,-0.81367 2.958784,-2.25608 1.183513,-1.4424 1.738285,-3.4026 0.554772,-1.99718 0.554772,-4.40119 0,-2.36703 -0.554772,-4.32722 -0.554772,-1.96019 -1.738285,-3.36562 -1.146529,-1.40542 -2.958784,-2.1821 -1.775271,-0.77668 -4.253252,-0.77668 h -3.735465 v 21.48817 z"
           style="font-weight:300;font-family:'Source Sans Pro';-inkscape-font-specification:'Source Sans Pro Light';text-align:start;text-anchor:start"
           id="path1084" />
        <path
           d="m 105.85228,570.31464 -1.55336,-4.54913 q -0.7397,-2.1821 -1.40543,-4.17928 -0.66572,-1.99718 -1.29446,-4.25325 h -0.14794 q -0.62874,2.25607 -1.29447,4.25325 -0.665728,1.99718 -1.405424,4.17928 l -1.553361,4.54913 z m 0.4808,1.44241 h -9.653032 l -2.84783,8.35857 h -1.738285 l 8.617457,-24.37299 h 1.7013 l 8.58047,24.37299 h -1.81225 z"
           style="font-weight:300;font-family:'Source Sans Pro';-inkscape-font-specification:'Source Sans Pro Light';text-align:start;text-anchor:start"
           id="path1086" />
        <path
           d="m 121.16392,557.22202 h -7.7668 v -1.47939 h 17.19793 v 1.47939 h -7.72983 v 22.8936 h -1.7013 z"
           style="font-weight:300;font-family:'Source Sans Pro';-inkscape-font-specification:'Source Sans Pro Light';text-align:start;text-anchor:start"
           id="path1088" />
        <path
           d="m 135.44006,567.87365 q 0,-2.88482 0.7397,-5.21486 0.77668,-2.33004 2.14511,-3.95737 1.36844,-1.66432 3.29165,-2.51497 1.92321,-0.88763 4.25325,-0.88763 2.14512,0 3.73547,0.88763 1.62733,0.88764 2.58893,2.03416 l -0.99859,1.10955 q -0.99859,-1.10955 -2.33004,-1.77527 -1.33145,-0.70271 -2.99577,-0.70271 -1.99718,0 -3.62451,0.77668 -1.59034,0.77668 -2.69989,2.21909 -1.10954,1.40542 -1.73828,3.43958 -0.59176,2.03417 -0.59176,4.58612 0,2.55195 0.59176,4.6231 0.59175,2.03416 1.7013,3.47657 1.10954,1.4424 2.6629,2.25607 1.59035,0.77668 3.55054,0.77668 1.88623,0 3.36562,-0.73969 1.47939,-0.7397 2.81084,-2.25608 l 0.99859,1.07256 q -1.40542,1.62733 -3.1437,2.55195 -1.7013,0.92462 -4.10532,0.92462 -2.25607,0 -4.14229,-0.88763 -1.84924,-0.88764 -3.21768,-2.51497 -1.33145,-1.66431 -2.10813,-3.99436 -0.7397,-2.36702 -0.7397,-5.28882 z"
           style="font-weight:300;font-family:'Source Sans Pro';-inkscape-font-specification:'Source Sans Pro Light';text-align:start;text-anchor:start"
           id="path1090" />
        <path
           d="m 160.40477,555.74263 h 1.7013 v 24.37299 h -1.7013 z"
           style="font-weight:300;font-family:'Source Sans Pro';-inkscape-font-specification:'Source Sans Pro Light';text-align:start;text-anchor:start"
           id="path1092" />
        <path
           d="m 171.79608,555.74263 h 2.36703 l 5.1039,14.31312 1.92321,5.39978 h 0.14794 l 1.88623,-5.39978 5.06691,-14.31312 h 2.40402 v 24.37299 H 189.031 V 564.1012 q 0,-1.51638 0.074,-3.25466 0.074,-1.77528 0.14794,-3.32864 h -0.14794 l -1.88622,5.3628 -5.25185,14.57201 h -1.47939 l -5.25184,-14.57201 -1.92321,-5.3628 h -0.14794 q 0.074,1.55336 0.11096,3.32864 0.074,1.73828 0.074,3.25466 v 16.01442 h -1.55337 z"
           style="font-weight:300;font-family:'Source Sans Pro';-inkscape-font-specification:'Source Sans Pro Light';text-align:start;text-anchor:start"
           id="path1094" />
        <path
           d="m 210.852,570.31464 -1.55336,-4.54913 q -0.73969,-2.1821 -1.40542,-4.17928 -0.66573,-1.99718 -1.29447,-4.25325 h -0.14794 q -0.62874,2.25607 -1.29447,4.25325 -0.66572,1.99718 -1.40542,4.17928 l -1.55336,4.54913 z m 0.48081,1.44241 h -9.65304 l -2.84783,8.35857 h -1.73828 l 8.61746,-24.37299 h 1.7013 l 8.58047,24.37299 h -1.81226 z"
           style="font-weight:300;font-family:'Source Sans Pro';-inkscape-font-specification:'Source Sans Pro Light';text-align:start;text-anchor:start"
           id="path1096" />
      </g>
    </g>
  </g>
</svg>
