<?xml version="1.0" encoding="UTF-8" standalone="no"?>
<!-- Generator: Adobe Illustrator 26.0.3, SVG Export Plug-In . SVG Version: 6.00 Build 0)  -->

<svg
   version="1.1"
   x="0px"
   y="0px"
   viewBox="0 0 1800 1600"
   xml:space="preserve"
   id="svg9559"
   sodipodi:docname="ekofour_bez_sjena.svg"
   width="1800"
   height="1600"
   inkscape:version="1.2.2 (b0a8486541, 2022-12-01)"
   xmlns:inkscape="http://www.inkscape.org/namespaces/inkscape"
   xmlns:sodipodi="http://sodipodi.sourceforge.net/DTD/sodipodi-0.dtd"
   xmlns:xlink="http://www.w3.org/1999/xlink"
   xmlns="http://www.w3.org/2000/svg"
   xmlns:svg="http://www.w3.org/2000/svg"><defs
   id="defs9563">
		
		
		
		
		
		
		
		
		
		
		
		
		
		
		
		
		
		
		
		
		
		
		
		
		
		
		
		
		
		
		
		
		
	<filter
   style="color-interpolation-filters:sRGB"
   inkscape:label="Drop Shadow"
   id="filter1126"
   x="0.22012692"
   y="0.20429414"
   width="0.59556813"
   height="0.59192733"><feFlood
     flood-opacity="0.498039"
     flood-color="rgb(0,0,0)"
     result="flood"
     id="feFlood1116" /><feComposite
     in="flood"
     in2="SourceGraphic"
     operator="in"
     result="composite1"
     id="feComposite1118" /><feGaussianBlur
     in="composite1"
     stdDeviation="10.693"
     result="blur"
     id="feGaussianBlur1120" /><feOffset
     dx="50"
     dy="0.246866"
     result="offset"
     id="feOffset1122" /><feComposite
     in="SourceGraphic"
     in2="offset"
     operator="over"
     result="composite2"
     id="feComposite1124" /></filter><filter
   style="color-interpolation-filters:sRGB"
   inkscape:label="Drop Shadow"
   id="filter1204"
   x="0.22460242"
   y="0.24088582"
   width="0.58377735"
   height="0.51839244"><feFlood
     flood-opacity="0.498039"
     flood-color="rgb(0,0,0)"
     result="flood"
     id="feFlood1194" /><feComposite
     in="flood"
     in2="SourceGraphic"
     operator="in"
     result="composite1"
     id="feComposite1196" /><feGaussianBlur
     in="composite1"
     stdDeviation="10.693"
     result="blur"
     id="feGaussianBlur1198" /><feOffset
     dx="50"
     dy="0.246866"
     result="offset"
     id="feOffset1200" /><feComposite
     in="SourceGraphic"
     in2="offset"
     operator="over"
     result="composite2"
     id="feComposite1202" /></filter><filter
   style="color-interpolation-filters:sRGB"
   inkscape:label="Drop Shadow"
   id="filter1216"
   x="-0.035237127"
   y="-0.033020072"
   width="1.1391273"
   height="1.0663578"><feFlood
     flood-opacity="0.498039"
     flood-color="rgb(0,0,0)"
     result="flood"
     id="feFlood1206" /><feComposite
     in="flood"
     in2="SourceGraphic"
     operator="in"
     result="composite1"
     id="feComposite1208" /><feGaussianBlur
     in="composite1"
     stdDeviation="10.693"
     result="blur"
     id="feGaussianBlur1210" /><feOffset
     dx="50"
     dy="0.246866"
     result="offset"
     id="feOffset1212" /><feComposite
     in="SourceGraphic"
     in2="offset"
     operator="over"
     result="composite2"
     id="feComposite1214" /></filter><filter
   style="color-interpolation-filters:sRGB"
   inkscape:label="Drop Shadow"
   id="filter539"
   x="0.20073415"
   y="0.21135375"
   width="0.63451128"
   height="0.5720828"><feFlood
     flood-opacity="0.498039"
     flood-color="rgb(0,0,0)"
     result="flood"
     id="feFlood529" /><feComposite
     in="flood"
     in2="SourceGraphic"
     operator="in"
     result="composite1"
     id="feComposite531" /><feGaussianBlur
     in="composite1"
     stdDeviation="12.7613"
     result="blur"
     id="feGaussianBlur533" /><feOffset
     dx="50"
     dy="-7.3571"
     result="offset"
     id="feOffset535" /><feComposite
     in="SourceGraphic"
     in2="offset"
     operator="over"
     result="composite2"
     id="feComposite537" /></filter><filter
   style="color-interpolation-filters:sRGB"
   inkscape:label="Drop Shadow"
   id="filter696"
   x="-0.077652325"
   y="-0.085955837"
   width="1.2441777"
   height="1.1636358"><feFlood
     flood-opacity="0.498039"
     flood-color="rgb(0,0,0)"
     result="flood"
     id="feFlood686" /><feComposite
     in="flood"
     in2="SourceGraphic"
     operator="in"
     result="composite1"
     id="feComposite688" /><feGaussianBlur
     in="composite1"
     stdDeviation="18.203"
     result="blur"
     id="feGaussianBlur690" /><feOffset
     dx="50"
     dy="-4.65437"
     result="offset"
     id="feOffset692" /><feComposite
     in="SourceGraphic"
     in2="offset"
     operator="over"
     result="composite2"
     id="feComposite694" /></filter></defs><sodipodi:namedview
   id="namedview9561"
   pagecolor="#ffffff"
   bordercolor="#000000"
   borderopacity="0.25"
   inkscape:showpageshadow="2"
   inkscape:pageopacity="0.0"
   inkscape:pagecheckerboard="0"
   inkscape:deskcolor="#d1d1d1"
   showgrid="false"
   inkscape:zoom="0.42099999"
   inkscape:cx="636.57959"
   inkscape:cy="723.27793"
   inkscape:window-width="1854"
   inkscape:window-height="1011"
   inkscape:window-x="66"
   inkscape:window-y="32"
   inkscape:window-maximized="1"
   inkscape:current-layer="svg9559" />
<style
   type="text/css"
   id="style2">
	.st0{fill:#F5F7FA;}
	.st1{fill:#E9E8E7;}
	.st23{fill:#464648;}
	.st355{fill:#1B2A6B;}
	.st358{fill:#5D9BD8;}
	.st362{fill:#FCFAFB;}

   #tr, #tl, #bl, #br {
      transition: transform 0.35s ease;
      transform-origin: center;
  }


</style>
<rect
   x="-152.97629"
   y="-232.1161"
   class="st0"
   width="2126.2"
   height="2115.6001"
   id="rect4"
   style="display:inline" /><g
   id="Layer_1"
   transform="translate(-93.356173,-200.59153)"><g
   id="g10124"
   style="display:inline"
   inkscape:label="middle"><path
     class="st23"
     d="m 996.6,309.9 c -381.1,0 -690.1,308.9 -690.1,690.1 0,381.1 308.9,690.1 690.1,690.1 381.1,0 690,-308.9 690,-690.1 0,-381.1 -308.9,-690.1 -690,-690.1 m 0,1138.1 c -247.4,0 -448,-200.6 -448,-448 0,-247.4 200.6,-448 448,-448 247.4,0 448,200.6 448,448 0,247.4 -200.6,448 -448,448"
     id="path54"
     style="display:inline" /><g
     id="EKOFOUR"
     style="filter:url(#filter696)">
	
<path
   class="st1"
   d="m 1281,1000.4 c 0,155.3 -125.9,281.2 -281.3,281.2 -155.3,0 -281.3,-125.9 -281.3,-281.2 0,-155.3 125.9,-281.2 281.3,-281.2 155.4,-0.1 281.3,125.8 281.3,281.2"
   id="path9079"
   style="display:inline" /><g
   id="g9401"
   style="display:inline">
		<path
   class="st355"
   d="m 871.4,1036.9 h -39.3 v -70 h 37.7 v 9.9 h -26.1 v 19.8 H 868 v 9.8 h -24.2 v 20.7 h 27.7 v 9.8 z"
   id="path9387" />
		<path
   class="st355"
   d="m 928,1036.9 h -14.6 l -19.3,-24.4 H 894 v 24.4 h -11.4 v -74 H 894 v 47 h 0.2 l 18.2,-23 h 14.1 l -20.8,23.8 z"
   id="path9389" />
		<path
   class="st355"
   d="m 957.3,1038.1 c -7.8,0 -14,-2.3 -18.6,-7 -4.6,-4.7 -6.9,-10.9 -6.9,-18.8 0,-8.3 2.4,-14.8 7.1,-19.5 4.7,-4.7 11.1,-7.1 19.3,-7.1 7.8,0 14,2.3 18.4,6.9 4.4,4.6 6.6,10.9 6.6,18.8 0,8.1 -2.3,14.6 -7,19.4 -4.6,4.9 -10.9,7.3 -18.9,7.3 z m 0.5,-9.1 c 4.5,0 8,-1.5 10.3,-4.4 2.4,-3 3.5,-7.2 3.5,-12.8 0,-5.5 -1.2,-9.7 -3.6,-12.6 -2.4,-2.9 -5.8,-4.3 -10.4,-4.3 -4.5,0 -8,1.5 -10.5,4.6 -2.6,3.1 -3.8,7.3 -3.8,12.7 0,5.4 1.3,9.6 3.8,12.6 2.7,2.8 6.2,4.2 10.7,4.2 z"
   id="path9391" />
		<path
   d="m 1032.2,974.3 h -27.3 v 24.2 h 25.3 v 7.4 h -25.3 v 31 h -8.2 v -70 h 35.5 z"
   id="path9393" />
		<path
   d="m 1065.3,1038.1 c -7.4,0 -13.3,-2.3 -17.7,-7 -4.4,-4.7 -6.6,-10.9 -6.6,-18.6 0,-8.4 2.3,-14.9 6.8,-19.6 4.6,-4.7 10.8,-7.1 18.7,-7.1 7.5,0 13.3,2.3 17.5,6.9 4.2,4.6 6.3,11 6.3,19.1 0,8 -2.3,14.4 -6.8,19.2 -4.5,4.8 -10.6,7.1 -18.2,7.1 z m 0.6,-6.8 c 5.2,0 9.2,-1.7 11.9,-5.1 2.8,-3.4 4.2,-8.1 4.2,-14.3 0,-6.3 -1.4,-11.1 -4.2,-14.5 -2.8,-3.4 -6.8,-5.1 -11.9,-5.1 -5.1,0 -9.2,1.8 -12.2,5.3 -3,3.5 -4.5,8.3 -4.5,14.5 0,5.9 1.5,10.6 4.5,14 3,3.5 7.1,5.2 12.2,5.2 z"
   id="path9395" />
		<path
   d="m 1143.4,1036.9 h -8 v -7.9 h -0.2 c -1.7,3 -3.8,5.3 -6.3,6.8 -2.6,1.5 -5.6,2.3 -9.1,2.3 -6,0 -10.4,-1.8 -13.4,-5.3 -3,-3.5 -4.5,-8.9 -4.5,-16 v -29.9 h 8 v 28.6 c 0,5.3 1,9.2 3,11.9 2,2.6 5,4 9.1,4 3.9,0 7.1,-1.4 9.6,-4.3 2.5,-2.9 3.8,-6.6 3.8,-11.3 V 987 h 8 z"
   id="path9397" />
		<path
   d="m 1184.2,993.7 c -0.6,-0.2 -1.2,-0.3 -1.7,-0.4 -0.5,-0.1 -1.1,-0.1 -1.9,-0.1 -4.1,0 -7.3,1.7 -9.6,5.2 -2.3,3.5 -3.5,7.8 -3.5,13 v 25.5 h -8 v -50 h 8 v 9.9 h 0.2 c 1.1,-3.5 2.9,-6.2 5.2,-8 2.3,-1.8 5,-2.8 8.1,-2.8 1,0 1.9,0 2.6,0.1 0.7,0.1 1.3,0.2 1.9,0.4 z"
   id="path9399" />
	</g><path
   class="st23"
   d="m 999.7,742.4 c -142.3,0 -258.1,115.8 -258.1,258.1 0,142.3 115.8,258.1 258.1,258.1 142.3,0 258.1,-115.8 258.1,-258.1 0,-142.3 -115.8,-258.1 -258.1,-258.1 z m 0,519.1 c -69.7,0 -135.3,-27.2 -184.6,-76.5 -49.3,-49.3 -76.5,-114.9 -76.5,-184.6 0,-69.7 27.2,-135.3 76.5,-184.6 49.3,-49.3 114.9,-76.5 184.6,-76.5 69.7,0 135.3,27.2 184.6,76.5 49.3,49.3 76.5,114.9 76.5,184.6 0,69.7 -27.2,135.3 -76.5,184.6 -49.3,49.4 -114.9,76.5 -184.6,76.5"
   id="path9083"
   style="display:inline" /><path
   class="st23"
   d="m 999.8,735.2 c -146.4,0 -265.4,119.1 -265.4,265.4 0,146.3 119.1,265.4 265.4,265.4 146.4,0 265.4,-119.1 265.4,-265.4 0,-146.3 -119.1,-265.4 -265.4,-265.4 z m 0,540.9 c -73.6,0 -142.7,-28.7 -194.8,-80.7 -52,-52 -80.7,-121.2 -80.7,-194.8 0,-73.6 28.7,-142.7 80.7,-194.7 52,-52 121.2,-80.7 194.8,-80.7 73.6,0 142.7,28.7 194.8,80.7 52,52 80.7,121.2 80.7,194.8 0,73.6 -28.7,142.7 -80.7,194.8 -52.1,52 -121.3,80.6 -194.8,80.6"
   id="path9081"
   style="display:inline" /></g></g>
	
	
	
	
	
	
	
	
	
	
	
	
	
	
	
	
	
	
	
	
	
	
	
	
	
	
	
	
	
	
	
	
	
	
	
	
	
	
	
	
	
	
	
	
	
	
	
	
	
	
	
	
	
	
	
	
	
	
	
	
	
	
	
	
	
	
	
	
	
	
	
	
	
	
	
	
	
	
	
	
	
	
	
	
	
	
	
	
	
	
	
	
	
	
	
	
	
	
	
	
	
	
	
	
	
	
	
	
	
	
	
	
	
	
	
	
	
	
	
	
	
	
	
	
	
	
	
	
	
	
	
	
	
	
	
	
	
	
	
	
	
	
	
	
	
	
	
	
	
	
	
	
	
	
	
	
	
	
	
	
	
	
	
	
	
	
	
	
	
	
	
	
	
	
	
	
	
	
	
	
	
	
	
	
	
	
	
	
	
	
	
	
	
	
	
	
	
	
	
	
	
	
	
	
	
	
	
	
	
	
	
	
	
	
	
	
	
	
	
	
	
	
	
	
	
	
	
	
	
	
	
	
	
	
	
	
	
	
	
	
	
	
	
	
	
	
	
	
	
	
	
	
	
	
	
	
	
	
	
	
	
	
	
	
	
	
	
	
	
	
	
	
	
	
	
	
	
	
	
	
	
	
	
	
	
	
	
	
	
	
	
	
	
	
	
	
	
	
	
	
	
	
	
	
	
	
	
	
	
	
	
	
	
	
	
	
	
	
	
	
	
	
	
	
	
	
	
	
	
	
	
	
	
	
	
	
	
	
	
	
	
	
	
	
	
	
	
	
	
	
	
	
	
	
	
	
	
	
	
	
	
	
	
	
	
	
	
	
	
	
	
	
	
	
	
	
	
	
	
	
	
	
	
	
	
	
	
	
	
	
	
	
	
	
	
	
	
	
	
	
	
	
	
	
	
	
	
	
	
	
	
	
	
	
	
	
	
	
	
	
	
	
	
	
	
	
	
	
	
	
	
	
	
	
	
	
	
	
	
	
	
	
	
	
	
	
	
	
	
	
	
	
	
	
	
	
	
	
	
	
	
	
	
	
	
	
	
	
	
	
	
	
	
	
	
	
	
	
	
	
	
	
	
	
	
	
	
	
	
	
	
	
	
	
	
	
	
	
	
	
	
	
	
	
	
	
	
	
	
	
	
	
	
	
	
	
	
	
	
	
	
	
	
	
	
	
	
	
	
	
	
	
	
	
	
	
	
	
	
	
	
	
	
	
	
	
	
	
	
	
	
	
	
	
	
	
	
	
	
	
	
	
	
	
	
	
	
	
	
	
	
	
	
	
	
	
	
	
	
	
	
	
	
	
	
	
	
	
	
	
	
	
	
	
	
	
	
	
	
	
	
	
	
	
	
	
	
	
	
	
	
	
	
	
	
	
	
	
	
	
	
	
	
	
	
	
	
	
	
	
	
	
	
	
	
	
	
	
	
	
	
	
	
	
	
	
	
	
	
	
	
	
	
	
	
	
	
	
	
	
	
	
	
	
	
	
	
	
	
	
	
	
	
	
	
	
	
	
	
	
	
	
	
	
	
	
	
	
	
	
	
	
	
	
	
	
	
	
	
	
	
	
	
	
	
	
	
	
	
	
	
	
	
	
	
	
	
	
	
	
	
	
	
	
	
	
	
	
	
	
	
	
	
	
	
	
	
	
	
	
	
	
	
	
	
	
	
	
	
	
	
	
	
	
	
	
	
	
	
	
	
	
	
	
	
	
	
	
	
	
	
	
	
	
	
	
	
	
	
	
	
	
	
	
	
	
	
	
	
	
	
	
	
	
	
	
	
	
	
	
	
	
	
	
	
	
	
	
	
	
	
	
	
	
	
	
	
	
	
	
	
	
	
	
	
	
	
	
	
	
	
	
	
	
	
	
	
	
	
	
	
	
	
	
	
	
	
	
	
	
	
	
	
	
	
	
	
	
	
	
	
	
	
	
	
	
	
	
	
	
	
	
	
	
	
	
	
	
	
	
	
	
	
	
	
	
	
	
	
	
	
	
	
	
	
	
	
	
	
	
	
	
	
	
	
	
	
	
	
	
	
	
	
	
	
	
	
	
	
	
	
	
	
	
	
	
	
	
	
	
	
	
	
	
	
	
	
	
	
	
	
	
	
	
	
	
	
	
	
	
	
	
	
	
	
	
	
	
	
	
	
	
	
	
	
	
	
	
	
	
	
	
	
	
	
	
	
	
	
	
	
	
	
	
	
	
	
	
	
	
	
	
	
	
	
	
	
	
	
	
	
	
	
	
	
	
	
	
	
	
	
	
	
	
	
	
	
	
	
	
	
	
	
	
	
	
	
	
	
	
	
	
	
	
	
	
	
	
	
	
	
	
	
	
	
	
	
	
	
	
	
	
	
	
	
	
	
	
	
	
	
	
	
	
	
	
	
	
	
	
	
	
	
	
	
	
	
	
	
	
	
	
	
	
	
	
	
	
	
	
	
	
	
	
	
	
	
	
	
	
	
	
	
	
	
	
	
	
	
	
	
	
	
	
	
	
	
	
	
	
	
	
	
	
	
	
	
	
	
	
	
	
	
	
	
	
	
	
	
	
	
	
	
	
	
	
	
	
	
	
	
	
	
	
	
	
	
	
	
	
	
	
	
	
	
	
	
	
	
	
	
	
	
	
	
	
	
	
	
	
	
	
	
	
	
	
	
	
	
	
	
	
	
	
	
	
	
	
	
	
	
	
	
	
	
	
	
	
	
	
	
	
	
	
	
	
	
	
	
	
	
	
	
	
	
	
	
	
	
	
	
	
	
	
	
	
	
	
	
	
	
	
	
	
	
	
	
	
	
	
	
	
	
	
	
	
	
	
	
	
	
	
	
	
	
	
	
	
	
	
	
	
	
	
	
	
	
	
	
	
	
	
	
	
	
	
	
	
	
	
	
	
	
	
	
	
	
	
	
	
	
	
	
	
	
	
	
	
	
	
	
	
	
	
	
	
	
	
	
	
	
	
	
	
	
	
	
	
	
	
	
	
	
	
	
	
	
	
	
	
	
	
	
	
	
	
	
	
	
	
	
	
	
	
	
	
	
	
	
	
	
	
	
	
	
	
	
	
	
	
	
	
	
	
	
	
	
	
	
	
	
	
	
	
	
	
	
	
	
	
	
	
	
	
	
	
	
	
	
	
	
	
	
	
	
	
	
	
	
	
	
	
	
	
	
	
	
	
	
	
	
	
	
	
	
	
	
	
	
	
	
	
	
	
	
	
	
	
	
	
	
	
	
	
	
	
	
	
	
	
	
	
	
	
	
	
	
	
	
	
	
	
	
	
	
	
	
	
	
	
	
	
	
	
	
	
	
	
	
	
	
	
	
	
	
	
	
	
	
	
	
	
	
	
	
	
	
	
	
	
	
	
	
	
	
	
	
	
	
	
	
	
	
	
	
	
	
	
	
	
	
	
	
	
	
	
	
	
	
	
	
	
	
	
	
	
	
	
	
	
	
	
	
	
	
	
	
	
	
	
	
	
	
	
	
	
	
	
	
	
	
	
	
	
	
	
	
	
	
	
	
	
	
	
	
	
	
	
	
	
	
	
	
	
	
	
	
	
	
	
	
	
	
	
	
	
	
	
	
	
	
	
	
	
	
	
	
	
	
	
	
	
	
	
	
	
	
	
	
	
	
	
	
	
	
	
	
	
	
	
	
	
	
	
	
	
	
	
	
	
	
	
	
	
	
	
	
	
	
	
	
	
	
	
	
	
	
	
	
	
	
	
	
	
	
	
	
	
	
	
	
	
	
	
	
	
	
	
	
	
	
	
	
	
	
	
	
	
	
	
	
	
	
	
	
	
	
	
	
	
	
	
	
	
	
	
	
	
	
	
	
	
	
	
	
	
	
	
	
	
	
	
	
	
	
	
	
	
	
	
	
	
	
	
	
	
	
	
	
	
	
	
	
	
	
	
	
	
	
	
	
	
	
	
	
	
	
	
	
	
	
	
	
	
	
	
	
	
	
	
	
	
	
	
	
	
	
	
	
	
	
	
	
	
	
	
	
	
	
	
	
	
	
	
	
	
	
	
	
	
	
	
	
	
	
	
	
	
	
	
	
	
	
	
	
	
	
	
	
	
	
	
	
	
	
	
	
	
	
	
	
	
	
	
	
	
	
	
	
	
	
	
	
	
	
	
	
	
	
	
	
	
	
	
	
	
	
	
	
	
	
	
	
	
	
	
	
	
	
	
	
	
	
	
	
	
	
	
	
	
	
	
	
	
	
	
	
	
	
	
	
	
	
	
	
	
	
	
	
	
	
	
	
	
	
	
	
	
	
	
	
	
	
	
	
	
	
	
	
	
	
	
	
	
	
	
	
	
	
	
	
	
	
	
	
	
	
	
	
	
	
	
	
	
	
	
	
	
	
	
	
	
	
	
	
	
	
	
	
	
	
	
	
	
	
	
	
	
	
	
	
	
	
	
	
	
	
	
	
	
	
	
	
	
	
	
	
	
	
	
	
	
	
	
	
	
	
	
	
	
	
	
	
	
	
	
	
	
	
	
	
	
	
	
	
	
	
	
	
	
	
	
	
	
	
	
	
	
	
	
	
	
	
	
	
	
	
	
	
	
	
	
	
	
	
	
	
	
	
	
	
	
	
	
	
	
	
	
	
	
	
	
	
	
	
	
	
	
	
	
	
	
	
	
	
	
	
	
	
	
	
	
	
	
	
	
	
	
	
	
	
	
	
	
	
	
	
	
	
	
	
	
	
	
	
	
	
	
	
	
	
	
	
	
	
	
	
	
	
	
	
	
	
	
	
	
	
	
	
	
	
	
	
	
	
	
	
	
	
	
	
	
	
	
	
	
	
	
	
	
	
	
	
	
	
	
	
	
	
	
	
	
	
	
	
	
	
	
	
	
	
	
	
	
	
	
	
	
	
	
	
	
	
	
	
	
	
	
	
	
	
	
	
	
	
	
	
	
	
	
	
	
	
	
	
	
	
	
	
	
	
	
	
	
	
	
	
	
	
	
	
	
	
	
	
	
	
	
	
	
	
	
	
	
	
	
	
	
	
	
	
	
	
	
	
	
	
	
	
	
	
	
	
	
	
	
	
	
	
	
	
	
	
	
	
	
	
	
	
	
	
	
	
	
	
	
	
	
	
	
	
	
	
	
	
	
	
	
	
	
	
	
	
	
	
	
	
	
	
	
	
	
	
	
	
	
	
	
	
	
	
	
	
	
	
	
	
	
	
	
	
	
	
	
	
	
	
	
	
	
	
	
	
	
	
	
	
	
	
	
	
	
	
	
	
	
	
	
	
	
	
	
	
	
	
	
	
	
	
	
	
	
	
	
	
	
	
	
	
	
	
	
	
	
	
	
	
	
	
	
	
	
	
	
	
	
	
	
	
	
	
	
	
	
	
	
	
	
	
	
	
	
	
	
	
	
	
	
	
	
	
	
	
	
	
	
	
	
	
	
	
	
	
	
	
	
	
	
	
	
	
	
	
	
	
	
	
	
	
	
	
	
	
	
	
	
	
	
	
	
	
	
	
	
	
	
	
	
	
	
	
	
	
	
	
	
	
	
	
	
	
	
	
	
	
	
	
	
	
	
	
	
	
	
	
	
	
	
	
	
	
	
	
	
	
	
	
	
	
	
	
	
	
	
	
	
	
	
	
	
	
	
	
	
	
	
	
	
	
	
	
	
	
	
	
	
	
	
	
	
	
	
	
	
	
	
	
	
	
	
	
	
	
	
	
	
	
	
	
	
	
	
	
	
	
	
	
	
	
	
	
	
	
	
	
	
	
	
	
	
	
	
	
	
	
	
	
	
	
	
	
	
	
	
	
	
	
	
	
	
	
	
	
	
	
	
	
	
	
	
	
	
	
	
	
	
	
	
	
	
	
	
	
	
	
	
	
	
	
	
	
	
	
	
	
	
	
	
	
	
	
	
	
	
	
	
	
	
	
	
	
	
	
	
	
	
	
	
	
	
	
	
	
	
	
	
	
	
	
	
	
	
	
	
	
	
	
	
	
	
	
	
	
	
	
	
	
	
	
	
	
	
	
	
	
	
	
	
	
	
	
	
	
	
	
	
	
	
	
	
	
	
	
	
	
	
	
	
	
	
	
	
	
	
	
	
	
	
	
	
	
	
	
	
	
	
	
	
	
	
	
	
	
	
	
	
	
	
	
	
	
	
	
	
	
	
	
	
	
	
	
	
	
	
	
	
	
	
	
	
	
	
	
	
	
	
	
	
	
	
	
	
	
	
	
	
	
	
	
	
	
	
	
	
	
	
	
	
	
	
	
	
	
	
	
	
	
	
	
	
	
	
	
	
	
	
	
	
	
	
	
	
	
	
	
	
	
	
	
	
	
	
	
	
	
	
	
	
	
	
	
	
	
	
	
	
	
	
	
	
	
	
	
	
	
	
	
	
	
	
	
	
	
	
	
	
	
	
	
	
	
	
	
	
	
	
	
	
	
	
	
	
	
	
	
	
	
	
	
	
	
	
	
	
	
	
	
	
	
	
	
	
	
	
	
	
	
	
	
	
	
	
	
	
	
	
	
	
	
	
	
	
	
	
	
	
	
	
	
	
	
	
	
	
	
	
	
	
	
	
	
	
	
	
	
	
	
	
	
	
	
	
	
	
	
	
	
	
	
	
	
	
	
	
	
	
	
	
	
	
	
	
	
	
	
	
	
	
	
	
	
	
	
	
	
	
	
	
	
	
	
	
	
	
	
	
	
	
	
	
	
	
	
	
	
	
	
	
	
	
	
	
	
	
	
	
	
	
	
	
	
	
	
	
	
	
	
	
	
	
	
	
	
	
	
	
	
	
	
	
	
	
	
	
	
	
	
	
	
	
	
	
	
	
	
	
	
	
	
	
	
	
	
	
	
	
	
	
	
	
	
	
	
	
	
	
	
	
	
	
	
	
	
	
	
	
	
	
	
	
	
	
	
	
	
	
	
	
	
	
	
	
	
	
	
	
	
	
	
	
	
	
	
	
	
	
	
	
	
	
	
	
	
	
	
	
	
	
	
	
	
	
	
	
	
	
	
	
	
	
	
	
	
	
	
	
	
	
	
	
	
	
	
	
	
	
	
	
	
	
	
	
	
	
	
	
	
	
	
	
	
	
	
	
	
	
	
	
	
	
	
	
	
	
	
	
	
	
	
	
	
	
	
	
	
	
	
	
	
	
	
	
	
	
	
	
	
	
	
	
	
	
	
	
	
	
	
	
	
	
	
	
	
	
	
	
	
	
	
	
	
	
	
	
	
	
	
	
	
	
	
	
	
	
	
	
	
	
	
	
	
	
	
	
	
	
	
	
	
	
	
	
	
	
	
	
	
	
	
	
	
	
	
	
	
	
	
	
	
	
	
	
	
	
	
	
	
	
	
	
	
	
	
	
	
	
	
	
	
	
	
	
	
	
	
	
	
	
	
	
	
	
	
	<g
   id="tr"
   style="display:inline;filter:url(#filter1216)"
   inkscape:label="tr">
		<g
   id="g8902"
   style="display:inline">
			<defs
   id="defs8582">
				<path
   id="SVGID_00000024696598704879741020000005860652868522919321_"
   d="m 1562.1,1018.8 c -1.1,0 -2.3,-0.4 -3.2,-1.2 l -56.9,-47.3 -0.3,-0.3 h -140.3 l -2.3,-17.4 C 1337.8,790.6 1209.8,662.5 1047.8,641.3 L 1030.4,639 V 529 c 5.4,-16.2 13.8,-31.3 24.9,-44.6 l 15.5,-18.6 c 1.5,-1.9 1.5,-4.5 0,-6.4 l -40.4,-48.6 V 241.6 l 21.3,1.4 c 84.2,5.6 166.3,25.1 244,57.9 90.3,38.2 171.5,92.9 241.1,162.6 69.7,69.7 124.4,150.8 162.6,241.2 32.8,77.6 52.3,159.7 57.9,244 l 1.4,21.3 h -136.1 l -57.3,47.6 c -0.4,0.3 -0.8,0.6 -1.2,0.8 -0.7,0.2 -1.3,0.4 -2,0.4" />
			</defs>
			
				<linearGradient
   id="SVGID_00000155839912849323668890000014061202545270575533_"
   gradientUnits="userSpaceOnUse"
   x1="1030.3203"
   y1="630.19531"
   x2="1758.6797"
   y2="630.19531">
				<stop
   offset="0"
   style="stop-color:#31558A"
   id="stop8584" />
				<stop
   offset="3.125000e-02"
   style="stop-color:#31558A"
   id="stop8586" />
				<stop
   offset="4.687500e-02"
   style="stop-color:#31548A"
   id="stop8588" />
				<stop
   offset="6.250000e-02"
   style="stop-color:#30548A"
   id="stop8590" />
				<stop
   offset="7.812500e-02"
   style="stop-color:#30548A"
   id="stop8592" />
				<stop
   offset="9.375000e-02"
   style="stop-color:#305489"
   id="stop8594" />
				<stop
   offset="0.125"
   style="stop-color:#305389"
   id="stop8596" />
				<stop
   offset="0.1406"
   style="stop-color:#305389"
   id="stop8598" />
				<stop
   offset="0.1562"
   style="stop-color:#2F5389"
   id="stop8600" />
				<stop
   offset="0.1875"
   style="stop-color:#305388"
   id="stop8602" />
				<stop
   offset="0.2031"
   style="stop-color:#2F5388"
   id="stop8604" />
				<stop
   offset="0.2188"
   style="stop-color:#2F5288"
   id="stop8606" />
				<stop
   offset="0.25"
   style="stop-color:#2F5288"
   id="stop8608" />
				<stop
   offset="0.2656"
   style="stop-color:#2F5287"
   id="stop8610" />
				<stop
   offset="0.2812"
   style="stop-color:#2E5187"
   id="stop8612" />
				<stop
   offset="0.2969"
   style="stop-color:#2E5187"
   id="stop8614" />
				<stop
   offset="0.3125"
   style="stop-color:#2E5187"
   id="stop8616" />
				<stop
   offset="0.3438"
   style="stop-color:#2E5187"
   id="stop8618" />
				<stop
   offset="0.3594"
   style="stop-color:#2D5187"
   id="stop8620" />
				<stop
   offset="0.375"
   style="stop-color:#2D5086"
   id="stop8622" />
				<stop
   offset="0.4062"
   style="stop-color:#2D5086"
   id="stop8624" />
				<stop
   offset="0.4219"
   style="stop-color:#2D5085"
   id="stop8626" />
				<stop
   offset="0.4375"
   style="stop-color:#2C5085"
   id="stop8628" />
				<stop
   offset="0.4688"
   style="stop-color:#2C5085"
   id="stop8630" />
				<stop
   offset="0.4844"
   style="stop-color:#2C4F85"
   id="stop8632" />
				<stop
   offset="0.5"
   style="stop-color:#2C4F85"
   id="stop8634" />
				<stop
   offset="0.5156"
   style="stop-color:#2C4F84"
   id="stop8636" />
				<stop
   offset="0.5312"
   style="stop-color:#2C4E84"
   id="stop8638" />
				<stop
   offset="0.5625"
   style="stop-color:#2B4E84"
   id="stop8640" />
				<stop
   offset="0.5781"
   style="stop-color:#2B4E84"
   id="stop8642" />
				<stop
   offset="0.5938"
   style="stop-color:#2B4E84"
   id="stop8644" />
				<stop
   offset="0.625"
   style="stop-color:#2B4E83"
   id="stop8646" />
				<stop
   offset="0.6406"
   style="stop-color:#2A4D83"
   id="stop8648" />
				<stop
   offset="0.6562"
   style="stop-color:#2A4D83"
   id="stop8650" />
				<stop
   offset="0.6875"
   style="stop-color:#2A4D83"
   id="stop8652" />
				<stop
   offset="0.7188"
   style="stop-color:#2A4C82"
   id="stop8654" />
				<stop
   offset="0.7344"
   style="stop-color:#294C82"
   id="stop8656" />
				<stop
   offset="0.75"
   style="stop-color:#294C82"
   id="stop8658" />
				<stop
   offset="0.7812"
   style="stop-color:#294C82"
   id="stop8660" />
				<stop
   offset="0.7969"
   style="stop-color:#294B81"
   id="stop8662" />
				<stop
   offset="0.8125"
   style="stop-color:#284B81"
   id="stop8664" />
				<stop
   offset="0.8438"
   style="stop-color:#284B81"
   id="stop8666" />
				<stop
   offset="0.8594"
   style="stop-color:#284B81"
   id="stop8668" />
				<stop
   offset="0.875"
   style="stop-color:#284B80"
   id="stop8670" />
				<stop
   offset="0.9062"
   style="stop-color:#274A80"
   id="stop8672" />
				<stop
   offset="0.9375"
   style="stop-color:#274A80"
   id="stop8674" />
				<stop
   offset="0.9531"
   style="stop-color:#274A80"
   id="stop8676" />
				<stop
   offset="0.9688"
   style="stop-color:#274A80"
   id="stop8678" />
				<stop
   offset="1"
   style="stop-color:#274A80"
   id="stop8680" />
			</linearGradient>
			
				<use
   xlink:href="#SVGID_00000024696598704879741020000005860652868522919321_"
   style="overflow:visible;fill:url(#SVGID_00000155839912849323668890000014061202545270575533_)"
   id="use8683" />
			<clipPath
   id="SVGID_00000085208962741189020870000010225930061311143609_">
				<use
   xlink:href="#SVGID_00000024696598704879741020000005860652868522919321_"
   style="overflow:visible"
   id="use8685" />
			</clipPath>
			
		</g>
	<g
   id="g513"
   inkscape:label="kanban"><path
     class="st362"
     d="m 1109.3,397.1 6.8,1.3 -5,25.5 h 0.2 c 1.8,-1.8 3.6,-3.4 5.3,-4.8 l 20.1,-16.7 8.5,1.7 -23.6,18.7 14.7,34.5 -8.1,-1.6 -12.3,-29.4 -6.2,4.8 -4,20.2 -6.8,-1.3 z"
     id="path9404" /><path
     class="st362"
     d="m 1161.8,465.2 0.8,-4.8 -0.2,-0.1 c -2.9,2.3 -7.7,3.8 -13,2.2 -7.5,-2.2 -9.8,-8.6 -8.3,-14 2.6,-9 12,-11.6 26.4,-7.4 l 0.2,-0.8 c 0.9,-3.1 1.6,-8.8 -6,-11.1 -3.5,-1 -7.4,-1 -10.5,0 l -0.2,-4.9 c 3.7,-1.1 8.5,-1.1 13.2,0.2 11.4,3.3 11.9,11.9 9.7,19.3 l -4,13.9 c -0.9,3.2 -1.7,6.4 -2,9.1 z m 4.5,-19.2 c -7.3,-2.3 -16.1,-3.4 -18.2,3.8 -1.3,4.4 1.1,7.3 4.5,8.3 4.8,1.4 8.8,-0.8 10.8,-3.6 0.4,-0.6 0.8,-1.3 1,-2 z"
     id="path9406" /><path
     class="st362"
     d="m 1187,443.5 c 1.4,-3.8 2.4,-6.9 3.3,-9.9 l 5.9,2.2 -1.8,6.1 0.1,0.1 c 3.1,-2.8 8.5,-4.6 14.5,-2.4 5,1.9 11.7,7.7 7.1,20.2 l -8,21.7 -6.6,-2.4 7.7,-20.9 c 2.2,-5.9 1.8,-11.5 -4.4,-13.8 -4.4,-1.6 -8.9,0.2 -11.4,3.5 -0.6,0.7 -1.2,1.8 -1.6,2.9 l -8.1,21.8 -6.6,-2.4 z"
     id="path9408" /><path
     class="st362"
     d="m 1217.5,485.3 c 1.3,-2.3 3,-5.8 4.5,-8.9 l 19.6,-42.5 6.3,2.9 -10.2,22.1 0.1,0.1 c 4.1,-2.9 9.3,-3.5 15,-0.9 8.7,4 11.5,14.1 6.5,24.8 -5.8,12.6 -16.6,15.2 -24.4,11.5 -5.1,-2.3 -8.2,-6.2 -8.7,-12 l -0.2,-0.1 -3,5.7 z m 13.1,-11.1 c -0.4,0.8 -0.6,1.7 -0.8,2.5 -0.8,5 1.5,9.8 6.1,11.9 6.7,3.1 13.2,-0.5 16.9,-8.6 3.3,-7 2.4,-14.7 -4.4,-17.9 -4.4,-2 -9.8,-0.9 -13.4,3.3 -0.5,0.7 -1.1,1.4 -1.6,2.4 z"
     id="path9410" /><path
     class="st362"
     d="m 1276.7,514.9 1.9,-4.5 -0.2,-0.1 c -3.4,1.6 -8.3,2 -13.1,-0.7 -6.9,-3.8 -7.7,-10.6 -5,-15.5 4.5,-8.2 14.3,-8.6 27.3,-1.3 l 0.4,-0.7 c 1.6,-2.8 3.6,-8.3 -3.3,-12.1 -3.1,-1.7 -7,-2.6 -10.2,-2.4 l 0.9,-4.8 c 3.8,-0.3 8.5,0.8 12.8,3.2 10.4,5.7 8.9,14.2 5.2,21 l -7,12.7 c -1.6,2.9 -3.1,5.9 -3.9,8.4 z m 8.7,-17.7 c -6.6,-3.9 -14.9,-6.9 -18.6,-0.3 -2.2,4 -0.6,7.3 2.5,9.1 4.4,2.4 8.8,1.2 11.3,-1.1 0.6,-0.5 1.1,-1.1 1.4,-1.8 z"
     id="path9412" /><path
     class="st362"
     d="m 1306.2,499.4 c 2.2,-3.3 3.9,-6.1 5.5,-8.9 l 5.2,3.4 -3.2,5.6 0.1,0.1 c 3.6,-2 9.3,-2.6 14.7,0.9 4.5,2.9 9.7,10.2 2.4,21.3 l -12.7,19.3 -5.9,-3.9 12.2,-18.7 c 3.4,-5.2 4.3,-10.8 -1.2,-14.5 -3.9,-2.5 -8.7,-1.8 -11.8,0.9 -0.8,0.6 -1.5,1.5 -2.2,2.5 l -12.8,19.5 -5.9,-3.9 z"
     id="path9414" /><path
     class="st362"
     d="m 1377.7,523.6 -6.9,8.7 7.9,6.3 -3.3,4.2 -7.9,-6.3 -13,16.3 c -3,3.8 -3.6,6.7 -0.6,9.2 1.4,1.1 2.7,1.8 3.5,2.2 l -3,4.3 c -1.4,-0.4 -3.4,-1.4 -5.5,-3.1 -2.6,-2 -4,-4.5 -4.1,-7 -0.3,-2.9 1.3,-6 4.1,-9.6 l 13.1,-16.5 -4.7,-3.7 3.3,-4.2 4.7,3.7 5.8,-7.3 z"
     id="path9416" /><path
     class="st362"
     d="m 1376.1,587.8 2.8,-4 -0.2,-0.2 c -3.6,0.8 -8.5,0.1 -12.7,-3.6 -5.8,-5.2 -5.2,-12 -1.4,-16.2 6.2,-7 15.8,-5.3 27,4.8 l 0.5,-0.6 c 2.1,-2.4 5.3,-7.3 -0.6,-12.5 -2.7,-2.4 -6.2,-4.1 -9.4,-4.6 l 1.9,-4.5 c 3.8,0.6 8.1,2.7 11.8,5.9 8.8,7.9 5.6,15.8 0.4,21.6 l -9.6,10.8 c -2.2,2.5 -4.3,5.1 -5.7,7.3 z m 12.4,-15.5 c -5.6,-5.2 -13,-10 -18,-4.4 -3,3.4 -2.2,7 0.5,9.4 3.8,3.4 8.3,3.1 11.3,1.4 0.7,-0.4 1.3,-0.9 1.8,-1.4 z"
     id="path9418" /><path
     class="st362"
     d="m 1392.4,593.2 c 0.5,2.4 2.1,6.1 4.5,8.6 3.6,3.6 7.1,3.5 9.4,1.3 2.4,-2.4 2.3,-5.1 0,-10.1 -3.1,-6.7 -2.7,-11.7 0.6,-15 4.4,-4.4 11.6,-4.4 17.5,1.5 2.8,2.8 4.4,6 5,8.5 l -4.9,2.4 c -0.4,-1.8 -1.4,-4.6 -4,-7.2 -2.9,-3 -6.3,-2.9 -8.3,-0.9 -2.3,2.3 -1.7,4.9 0.5,9.8 2.9,6.6 2.9,11.4 -1.2,15.4 -4.8,4.8 -12,4.4 -18.4,-2.1 -3,-3 -5,-6.5 -5.8,-9.6 z"
     id="path9420" /><path
     class="st362"
     d="m 1429.8,612.5 0.1,0.1 c 1.7,-0.2 3.8,-0.3 5.6,-0.3 l 17.5,-0.3 5.6,6.4 -21.8,-0.7 -5.9,27.8 -5.6,-6.4 5.1,-22.3 -5.4,-0.1 -10.9,9.6 -4.6,-5.2 42.7,-37.5 4.6,5.2 z"
     id="path9422" /><path
     class="st362"
     d="m 1488.7,639.3 -9,6.6 6,8.1 -4.3,3.2 -6,-8.1 -16.8,12.4 c -3.9,2.8 -5.2,5.6 -2.9,8.7 1.1,1.5 2.1,2.4 2.8,3 l -4.1,3.4 c -1.3,-0.8 -2.9,-2.3 -4.5,-4.5 -1.9,-2.6 -2.7,-5.4 -2.1,-7.9 0.5,-2.8 2.8,-5.5 6.5,-8.2 l 17,-12.5 -3.6,-4.8 4.3,-3.2 3.6,4.8 7.5,-5.5 z"
     id="path9424" /><path
     class="st362"
     d="m 1480.9,668.2 c 3.8,-2.5 7,-4.8 9.9,-7 l 3.4,5.1 -6.2,4.4 0.2,0.3 c 5.3,-1.4 10.4,0.3 13,4.2 0.4,0.7 0.7,1.2 0.9,1.8 l -5.5,3.7 c -0.3,-0.7 -0.6,-1.3 -1.1,-2.1 -2.8,-4.1 -7.8,-5 -12.8,-2.8 -0.9,0.4 -1.9,0.9 -2.9,1.6 l -17.2,11.5 -3.9,-5.8 z"
     id="path9426" /><path
     class="st362"
     d="m 1483.4,722.4 3.9,-3 -0.1,-0.2 c -3.7,-0.3 -8.2,-2.5 -11,-7.3 -4,-6.8 -1.3,-13 3.6,-15.8 8.1,-4.8 16.7,-0.2 24.2,12.7 l 0.7,-0.4 c 2.8,-1.6 7.3,-5.3 3.2,-12.1 -1.8,-3.1 -4.7,-5.8 -7.6,-7.2 l 3.2,-3.7 c 3.4,1.7 6.9,5 9.4,9.2 6,10.2 0.5,16.8 -6.2,20.7 l -12.5,7.4 c -2.9,1.7 -5.6,3.5 -7.7,5.3 z m 16.5,-11 c -3.8,-6.7 -9.4,-13.5 -15.8,-9.7 -3.9,2.3 -4.2,6 -2.4,9.1 2.6,4.3 6.9,5.5 10.3,4.8 0.7,-0.2 1.5,-0.4 2.1,-0.8 z"
     id="path9428" /><path
     class="st362"
     d="m 1505.1,760.5 c -1.7,-1.2 -4.7,-4.3 -7,-8.9 -5.3,-10.4 -1.6,-20.8 8.9,-26.1 10.6,-5.4 22,-2 27.7,9.3 1.9,3.7 2.6,7.5 2.6,9.6 l -5.6,1 c 0.1,-1.9 -0.3,-4.7 -2,-8.1 -4,-7.9 -12,-9.2 -19.2,-5.6 -8,4 -10.3,11.7 -6.8,18.5 1.8,3.6 3.9,5.5 5.6,6.8 z"
     id="path9430" /><path
     class="st362"
     d="m 1528.9,766 0.1,0.1 c 1.6,0.3 3.7,0.9 5.4,1.4 l 16.8,5.2 3.3,7.8 -20.5,-7.5 -14.2,24.6 -3.4,-7.9 11.8,-19.6 -5.1,-1.7 -13.4,5.7 -2.7,-6.4 52.2,-22.4 2.7,6.4 z"
     id="path9432" /><path
     class="st362"
     d="m 1521.4,803.2 36.3,-13.4 2.4,6.6 -36.3,13.4 z m 49.3,-9.8 c -2.2,0.9 -4.6,-0.1 -5.6,-2.7 -0.9,-2.3 0.3,-4.6 2.6,-5.5 2.3,-0.9 4.8,0.2 5.7,2.6 0.8,2.5 -0.4,4.7 -2.7,5.6 z"
     id="path9434" /><path
     class="st362"
     d="m 1554.7,811.8 c 3.8,-1.2 6.9,-2.2 9.9,-3.4 l 1.8,6 -6,2.3 v 0.2 c 4.1,0.8 8.8,4 10.7,10.1 1.6,5.1 1,14 -11.7,17.9 l -22.1,6.8 -2.1,-6.7 21.3,-6.6 c 6,-1.8 10.3,-5.6 8.3,-11.9 -1.4,-4.4 -5.6,-6.9 -9.7,-6.9 -0.9,0 -2.1,0.2 -3.3,0.5 l -22.2,6.8 -2.1,-6.7 z"
     id="path9436" /><path
     class="st362"
     d="m 1585.1,885.7 c -2.8,0.5 -5.8,1 -10.5,2 l -21.9,4.9 c -8.7,1.9 -14.4,1.4 -18.5,-1.5 -4.3,-2.9 -6.5,-8 -7.6,-12.7 -1,-4.5 -1,-9.8 0.3,-13.3 l 5.6,0.5 c -1,2.8 -1.5,7.1 -0.5,11.8 1.6,7 6.4,11.4 15.9,9.2 l 4.2,-0.9 v -0.2 c -4,-1.3 -7.7,-4.8 -9,-10.6 -2.1,-9.4 4.4,-17.9 14.8,-20.2 12.8,-2.9 21.9,3.9 23.9,12.5 1.5,6.6 -1.2,10.9 -3.9,13.3 v 0.2 l 5.8,-1 z m -16.5,-3.8 c 1.2,-0.3 2.2,-0.6 3,-1.1 3.7,-2.1 6.2,-6.2 5.1,-11.2 -1.5,-6.6 -8.1,-10 -16.8,-8 -7.4,1.7 -12.7,6.8 -11.1,14.2 0.9,4.2 4.5,7.4 9.2,8 1.3,0.1 2.6,0 3.8,-0.3 z"
     id="path9438" /></g></g>
	
	
	
	<g
   id="tl"
   style="display:inline;filter:url(#filter1204)"
   inkscape:label="tl">
		<g
   id="g9049">
			<defs
   id="defs9026">
				<path
   id="SVGID_00000097470423300046101300000007861659162209846657_"
   d="M 1017.6,434.7 970,377.4 V 241.3 l -21.3,1.4 c -84.2,5.6 -166.3,25.1 -244,57.9 -90.3,38.2 -171.5,92.9 -241.2,162.6 -69.6,69.7 -124.3,150.9 -162.5,241.2 -32.8,77.6 -52.3,159.7 -57.9,244 l -1.4,21.3 H 639 l 2.3,-17.4 C 662.6,790.3 790.6,662.2 952.6,641 L 970,638.7 V 498.4 l 47.6,-57.3 c 1.5,-1.9 1.5,-4.5 0,-6.4 z" />
			</defs>
			<use
   xlink:href="#SVGID_00000097470423300046101300000007861659162209846657_"
   style="overflow:visible;fill:#1b2a6b"
   id="use9028" />
			<clipPath
   id="SVGID_00000004530347877167171120000005222173641147852192_">
				<use
   xlink:href="#SVGID_00000097470423300046101300000007861659162209846657_"
   style="overflow:visible"
   id="use9030" />
			</clipPath>
			<g
   clip-path="url(#SVGID_00000004530347877167171120000005222173641147852192_)"
   id="g9047">
				<g
   id="g9045">
					<defs
   id="defs9034">
						<path
   id="SVGID_00000027573541589199327210000007079789998283704715_"
   d="M 1017.6,434.7 970,377.4 V 241.3 l -21.3,1.4 c -84.2,5.6 -166.3,25.1 -244,57.9 -90.3,38.2 -171.5,92.9 -241.2,162.6 -69.6,69.7 -124.3,150.9 -162.5,241.2 -32.8,77.6 -52.3,159.7 -57.9,244 l -1.4,21.3 H 639 l 2.3,-17.4 C 662.6,790.3 790.6,662.2 952.6,641 L 970,638.7 V 498.4 l 47.6,-57.3 c 1.5,-1.9 1.5,-4.5 0,-6.4" />
					</defs>
					<use
   xlink:href="#SVGID_00000027573541589199327210000007079789998283704715_"
   style="overflow:visible;fill:#1b2a6b"
   id="use9036" />
					<clipPath
   id="SVGID_00000090292435676148468750000009043808974310084794_">
						<use
   xlink:href="#SVGID_00000027573541589199327210000007079789998283704715_"
   style="overflow:visible"
   id="use9038" />
					</clipPath>
					<g
   style="display:inline"
   clip-path="url(#SVGID_00000090292435676148468750000009043808974310084794_)"
   id="g9043">
						<path
   class="st355"
   d="m 608.2,-146.8 -730.1,773.1 774.5,731.5 730.1,-773.1 z"
   id="path9041"
   style="display:inline" />
					</g>
				</g>
			</g>
		</g>
	<g
   id="g493"
   inkscape:label="gantt"><path
     class="st362"
     d="m 403.6,852.7 1.8,-6.7 46.4,12.5 6,-22.3 5.6,1.5 -7.8,29 z"
     id="path9440" /><path
     class="st362"
     d="m 420.9,808.5 c 2.3,0.7 3.6,2.9 2.7,5.6 -0.8,2.4 -3.1,3.4 -5.4,2.7 -2.4,-0.8 -3.6,-3.1 -2.8,-5.5 0.8,-2.5 3.1,-3.5 5.5,-2.8 z m 44.8,22.7 -36.9,-11.9 2.2,-6.7 36.9,11.9 z"
     id="path9442" /><path
     class="st362"
     d="m 436,797.8 23,0.6 c 3.7,0 7.1,0.2 10.4,0.6 l 0.1,-0.2 c -2.7,-2 -5.3,-4.1 -8.1,-6.6 l -17.7,-14.7 2.6,-6.9 30.9,27.9 -2.4,6.3 -41.4,0.1 z"
     id="path9444" /><path
     class="st362"
     d="m 469.7,768.6 c 8.7,3.8 14.8,-0.1 17.7,-6.5 2.1,-4.6 2.6,-7.7 2.6,-10.6 l 5.1,1 c 0,2.7 -0.6,7.1 -3.2,12.7 -5,10.8 -15,14.1 -25.7,9.2 -10.7,-4.9 -16.1,-14.9 -11.4,-25.2 5.3,-11.5 16.8,-9.9 23.2,-7 1.3,0.6 2.3,1.2 2.9,1.6 z m 4,-20.8 c -4,-1.9 -11.2,-3.1 -14.5,4.1 -3,6.5 1.7,12 5.9,14.6 z"
     id="path9446" /><path
     class="st362"
     d="m 492.4,681.3 c 2.3,1.6 4.9,3.3 9,5.7 l 19.4,11.4 c 7.6,4.5 11.4,8.8 12.4,13.7 1.1,5 -0.7,10.3 -3.2,14.5 -2.4,4 -5.9,7.8 -9.3,9.5 l -3.7,-4.2 c 2.7,-1.4 6,-4.1 8.4,-8.2 3.7,-6.2 3.1,-12.7 -5.3,-17.6 l -3.7,-2.2 -0.1,0.1 c 2,3.7 2.4,8.7 -0.7,13.9 -4.9,8.3 -15.4,10 -24.6,4.6 -11.3,-6.7 -13.4,-17.8 -8.8,-25.5 3.4,-5.8 8.3,-7.2 11.9,-7 l 0.1,-0.1 -4.9,-3.2 z m 9.5,14 c -1,-0.6 -2,-1.1 -3,-1.3 -4.2,-1 -8.8,0.3 -11.4,4.7 -3.4,5.8 -1,12.8 6.8,17.4 6.5,3.9 13.9,3.8 17.8,-2.8 2.2,-3.7 1.8,-8.5 -1.2,-12.1 -0.8,-1 -1.9,-1.8 -3,-2.4 z"
     id="path9448" /><path
     class="st362"
     d="m 543.7,674.6 -4.3,-2.3 -0.1,0.2 c 1.3,3.5 1.1,8.5 -2,13 -4.5,6.4 -11.3,6.6 -15.9,3.4 -7.7,-5.3 -7.2,-15.1 1.4,-27.3 l -0.7,-0.5 c -2.6,-1.8 -7.9,-4.4 -12.4,2.1 -2.1,3 -3.3,6.7 -3.4,9.9 l -4.7,-1.3 c 0.1,-3.8 1.6,-8.4 4.4,-12.4 6.7,-9.7 15,-7.5 21.4,-3.1 l 11.9,8.3 c 2.8,1.9 5.5,3.7 8,4.8 z m -16.8,-10.4 c -4.5,6.2 -8.4,14.2 -2.2,18.4 3.7,2.6 7.3,1.3 9.3,-1.6 2.9,-4.1 2.1,-8.6 0,-11.4 -0.5,-0.6 -1,-1.2 -1.6,-1.6 z"
     id="path9450" /><path
     class="st362"
     d="m 531.2,643.8 c -3.1,-2.5 -5.7,-4.5 -8.4,-6.3 l 3.9,-4.9 5.2,3.7 0.1,-0.1 c -1.7,-3.8 -1.6,-9.6 2.4,-14.5 3.4,-4.2 11.1,-8.6 21.4,-0.3 l 18,14.5 -4.4,5.5 -17.4,-14 c -4.9,-3.9 -10.4,-5.4 -14.5,-0.2 -2.9,3.6 -2.6,8.5 -0.3,11.9 0.5,0.8 1.3,1.7 2.2,2.4 l 18.1,14.6 -4.4,5.5 z"
     id="path9452" /><path
     class="st362"
     d="m 549.7,588.4 8.2,7.5 6.8,-7.4 4,3.6 -6.8,7.4 15.4,14.1 c 3.5,3.2 6.5,4.1 9.1,1.2 1.2,-1.4 2,-2.5 2.4,-3.3 l 4.1,3.3 c -0.5,1.4 -1.7,3.2 -3.5,5.3 -2.2,2.4 -4.8,3.7 -7.3,3.6 -2.9,0.1 -5.9,-1.7 -9.3,-4.8 l -15.6,-14.3 -4,4.4 -4,-3.6 4,-4.4 -6.8,-6.3 z"
     id="path9454" /><path
     class="st362"
     d="m 569.3,568.1 7.8,7.9 7.1,-7.1 3.8,3.8 -7.1,7.1 14.7,14.8 c 3.4,3.4 6.3,4.4 9,1.6 1.3,-1.3 2.1,-2.4 2.6,-3.2 l 4,3.5 c -0.6,1.4 -1.8,3.2 -3.7,5.1 -2.3,2.3 -4.9,3.4 -7.5,3.3 -2.9,-0.1 -5.8,-2 -9,-5.2 l -14.9,-15 -4.2,4.2 -3.9,-3.9 4.2,-4.2 -6.6,-6.6 z"
     id="path9456" /><path
     class="st362"
     d="m 649.3,561.3 c -0.8,1.9 -3.1,5.5 -7.1,8.9 -8.9,7.5 -19.8,6.4 -27.5,-2.7 -7.7,-9.1 -7,-21 2.7,-29.1 3.2,-2.7 6.7,-4.3 8.8,-4.8 l 2.3,5.2 c -1.9,0.3 -4.5,1.4 -7.4,3.8 -6.8,5.7 -6.2,13.8 -1,20 5.8,6.9 13.7,7.4 19.6,2.4 3.1,-2.6 4.4,-5.1 5.4,-7 z"
     id="path9458" /><path
     class="st362"
     d="m 622.5,512 5.7,-4.1 14.2,19.5 0.1,-0.1 c -0.3,-2.3 0.1,-4.7 1.1,-7 1,-2.2 2.5,-4.3 4.6,-5.9 4.2,-3.1 12.8,-5.4 20.7,5.4 l 13.6,18.6 -5.7,4.1 -13.1,-18 c -3.7,-5 -8.7,-7.9 -14,-4 -3.7,2.7 -4.7,7.4 -3.5,11.3 0.2,1 0.8,1.9 1.6,3 l 13.8,18.9 -5.7,4.1 z"
     id="path9460" /><path
     class="st362"
     d="m 709.5,521.3 -3.1,-3.8 -0.2,0.1 c -0.2,3.7 -2.3,8.2 -7,11.2 -6.7,4.1 -13,1.6 -15.9,-3.2 -5,-7.9 -0.6,-16.7 12.1,-24.5 l -0.4,-0.7 c -1.7,-2.7 -5.5,-7.1 -12.2,-2.9 -3.1,1.9 -5.7,4.8 -7,7.8 l -3.8,-3.1 c 1.6,-3.5 4.8,-7.1 9,-9.7 10,-6.3 16.8,-0.9 20.9,5.6 l 7.7,12.3 c 1.8,2.9 3.7,5.5 5.5,7.5 z m -11.3,-16.2 c -6.6,3.9 -13.3,9.7 -9.3,16.1 2.4,3.9 6.1,4.1 9.2,2.2 4.3,-2.7 5.3,-7.1 4.5,-10.5 -0.2,-0.7 -0.5,-1.5 -0.8,-2.1 z"
     id="path9462" /><path
     class="st362"
     d="m 710.8,489.7 c -2.2,-4 -4.1,-7.4 -6.1,-10.4 l 5.4,-3 3.9,6.5 0.3,-0.2 c -1,-5.4 1.2,-10.3 5.3,-12.6 0.7,-0.4 1.2,-0.6 1.9,-0.8 l 3.2,5.8 c -0.7,0.2 -1.4,0.5 -2.2,0.9 -4.3,2.4 -5.6,7.4 -3.9,12.5 0.3,0.9 0.7,2 1.3,3 l 9.9,18.1 -6.1,3.3 z"
     id="path9464" /><path
     class="st362"
     d="m 733.7,451.6 4.9,10 9.1,-4.4 2.3,4.8 -9.1,4.4 9.1,18.8 c 2.1,4.3 4.5,6.2 8,4.5 1.7,-0.8 2.8,-1.6 3.5,-2.2 l 2.6,4.6 c -1,1.1 -2.7,2.4 -5.2,3.6 -2.9,1.4 -5.8,1.7 -8.1,0.7 -2.7,-1 -4.9,-3.8 -6.9,-7.9 l -9.2,-19 -5.4,2.6 -2.3,-4.8 5.4,-2.6 -4.1,-8.3 z"
     id="path9466" /><path
     class="st362"
     d="m 767.4,482.8 c 2.4,0.4 6.4,0.3 9.6,-1.1 4.7,-2 5.9,-5.3 4.7,-8.2 -1.3,-3.1 -3.9,-4 -9.4,-3.7 -7.4,0.4 -11.9,-1.8 -13.7,-6.1 -2.4,-5.7 0.2,-12.4 7.9,-15.7 3.6,-1.5 7.2,-1.8 9.7,-1.5 l 0.4,5.4 c -1.8,-0.3 -4.9,-0.4 -8.2,1 -3.8,1.6 -5,4.7 -3.9,7.4 1.3,2.9 4,3.4 9.3,3.2 7.2,-0.3 11.7,1.5 13.9,6.8 2.7,6.3 -0.3,12.7 -8.8,16.3 -3.9,1.7 -7.9,2.2 -11,1.8 z"
     id="path9468" /></g></g>
	
	<g
   id="bl"
   style="filter:url(#filter1126)"
   inkscape:label="bl">
		<g
   id="g9075">
			<defs
   id="defs9056">
				<path
   id="SVGID_00000072257591497986757060000007275707268143772856_"
   d="M 434.7,982.4 377.4,1030 H 241.3 l 1.4,21.3 c 5.6,84.2 25.1,166.3 57.9,244 38.2,90.3 92.9,171.5 162.6,241.2 69.7,69.7 150.8,124.4 241.1,162.6 77.6,32.8 159.7,52.3 244,57.9 l 21.3,1.4 V 1361 l -17.4,-2.3 c -162,-21.3 -290,-149.3 -311.3,-311.3 L 638.6,1030 H 498.3 L 441,982.4 c -1.8,-1.5 -4.5,-1.5 -6.3,0 z" />
			</defs>
			<clipPath
   id="SVGID_00000062178119099187817930000015009774383307979171_">
				<use
   xlink:href="#SVGID_00000072257591497986757060000007275707268143772856_"
   style="overflow:visible"
   id="use9058" />
			</clipPath>
			<g
   clip-path="url(#SVGID_00000062178119099187817930000015009774383307979171_)"
   id="g9073">
				<g
   id="g9071">
					<defs
   id="defs9062">
						<path
   id="SVGID_00000119804617408557275530000017164796258422172844_"
   d="M 434.7,982.4 377.4,1030 H 241.3 l 1.4,21.3 c 5.6,84.2 25.1,166.3 57.9,244 38.2,90.3 92.9,171.5 162.6,241.2 69.7,69.7 150.8,124.4 241.1,162.6 77.6,32.8 159.7,52.3 244,57.9 l 21.3,1.4 V 1361 l -17.4,-2.3 c -162,-21.3 -290,-149.3 -311.3,-311.3 L 638.6,1030 H 498.3 L 441,982.4 c -1.8,-1.5 -4.5,-1.5 -6.3,0" />
					</defs>
					<clipPath
   id="SVGID_00000121973165926977867520000005560960776449050038_">
						<use
   xlink:href="#SVGID_00000119804617408557275530000017164796258422172844_"
   style="overflow:visible"
   id="use9064" />
					</clipPath>
					<g
   clip-path="url(#SVGID_00000121973165926977867520000005560960776449050038_)"
   id="g9069">
						<path
   class="st358"
   d="M 416.5,669.6 -91,1571.3 794.5,2069.6 1302,1167.8 Z"
   id="path9067" />
					</g>
				</g>
			</g>
		</g>
	<g
   id="g9504"
   inkscape:label="ERP">
		<path
   class="st362"
   d="m 408.4,1112.9 -3.4,-20.7 -19.2,3.2 3.8,23 -5.8,1 -5,-29.9 53.2,-8.9 4.8,28.7 -5.8,1 -3.6,-21.9 -16.8,2.8 3.4,20.7 z"
   id="path9472" />
		<path
   class="st362"
   d="m 438.1,1119.3 c 1.5,3.3 3.1,8.1 4.2,12.7 1.7,7.2 1.5,12.2 -0.6,16.2 -1.7,3.2 -4.9,5.5 -9,6.5 -6.9,1.7 -12.6,-1.6 -15.8,-6.6 l -0.2,0.1 c -0.4,4.4 -3.6,7.7 -8.7,10.2 -6.9,3.5 -11.7,5.9 -13.4,7.5 l -1.7,-7 c 1.3,-1.2 5.5,-3.5 11.7,-6.5 6.9,-3.3 8.9,-6.8 7.7,-13 l -1.5,-6.4 -22.7,5.5 -1.6,-6.8 z m -22.2,12.5 1.7,6.9 c 1.7,7.2 6.8,10.9 12.8,9.4 6.8,-1.6 8.5,-7.2 6.9,-14.4 -0.8,-3.3 -1.7,-5.5 -2.2,-6.5 z"
   id="path9474" />
		<path
   class="st362"
   d="m 448.7,1160.7 c 1.6,3 3.4,7.1 5.1,12.4 2.1,6.5 2.1,11.8 0.4,15.8 -1.5,3.6 -4.7,6.5 -9.3,7.9 -4.6,1.5 -8.7,1.3 -12.2,-0.4 -4.9,-2.3 -8.6,-7.4 -10.7,-13.9 -0.6,-2 -1.1,-3.8 -1.3,-5.5 l -20.6,6.6 -2.1,-6.6 z m -22.6,14.6 c 0.1,1.6 0.5,3.4 1.2,5.7 2.6,8 8,11.6 15.1,9.3 6.8,-2.2 8.5,-8 6.2,-15.3 -0.9,-2.9 -1.9,-5 -2.5,-6.1 z"
   id="path9476" />
		<path
   class="st362"
   d="m 484.9,1245.4 -42.8,19 c -3.1,1.4 -6.7,3.1 -9,4.3 l -2.6,-5.8 6,-3 -0.1,-0.1 c -4.8,-0.2 -9.7,-3.2 -12.3,-9 -3.8,-8.6 0.5,-18.3 11.3,-23.1 11.7,-5.3 22.2,-1.2 26.1,7.4 2.4,5.4 1.5,10.2 -0.7,13.1 l 0.1,0.1 21.1,-9.4 z m -33.8,7.3 c 0.8,-0.4 1.9,-0.9 2.6,-1.5 3.7,-2.8 5.5,-7.8 3.3,-12.6 -3,-6.7 -10.6,-8 -18.4,-4.5 -7.2,3.2 -11.5,9.3 -8.4,16.3 1.9,4.3 6.5,7 11.9,6 1,-0.2 1.9,-0.5 2.9,-0.9 z"
   id="path9478" />
		<path
   class="st362"
   d="m 449.9,1301.1 4,-2.8 -0.1,-0.2 c -3.7,-0.5 -8.1,-2.9 -10.7,-7.7 -3.7,-6.9 -0.7,-13 4.2,-15.7 8.3,-4.4 16.7,0.5 23.7,13.7 l 0.7,-0.4 c 2.8,-1.5 7.5,-5 3.8,-12 -1.7,-3.2 -4.5,-6 -7.3,-7.5 l 3.3,-3.6 c 3.3,1.8 6.7,5.3 9,9.6 5.6,10.4 -0.2,16.8 -7,20.4 l -12.8,6.8 c -3,1.6 -5.8,3.3 -7.9,4.9 z m 16.9,-10.2 c -3.5,-6.8 -8.8,-13.9 -15.4,-10.4 -4,2.2 -4.5,5.8 -2.8,9 2.4,4.4 6.7,5.8 10.1,5.2 0.7,-0.1 1.5,-0.4 2.2,-0.7 z"
   id="path9480" />
		<path
   class="st362"
   d="m 506.6,1299.4 -9.5,5.8 5.2,8.6 -4.6,2.8 -5.2,-8.6 -17.8,10.9 c -4.1,2.5 -5.7,5.1 -3.7,8.4 1,1.6 1.9,2.6 2.5,3.2 l -4.3,3 c -1.2,-0.9 -2.7,-2.5 -4.1,-4.8 -1.7,-2.8 -2.2,-5.6 -1.4,-8 0.7,-2.8 3.3,-5.2 7.2,-7.6 l 18,-11 -3.1,-5.1 4.6,-2.8 3.1,5.1 7.9,-4.8 z"
   id="path9482" />
		<path
   class="st362"
   d="m 487.2,1360.7 3.7,-3.2 -0.1,-0.2 c -3.7,-0.1 -8.3,-1.9 -11.5,-6.5 -4.5,-6.5 -2.2,-12.9 2.4,-16.1 7.7,-5.3 16.6,-1.4 25.1,11 l 0.7,-0.5 c 2.6,-1.8 6.9,-5.8 2.4,-12.3 -2,-3 -5.1,-5.4 -8.1,-6.7 l 2.9,-4 c 3.5,1.5 7.3,4.5 10.1,8.5 6.7,9.7 1.7,16.7 -4.7,21.1 l -11.9,8.2 c -2.8,1.9 -5.4,3.9 -7.3,5.8 z m 15.7,-12.1 c -4.2,-6.4 -10.3,-12.8 -16.5,-8.6 -3.8,2.6 -3.8,6.3 -1.8,9.3 2.9,4.1 7.3,5 10.6,4 0.7,-0.2 1.5,-0.5 2.1,-0.9 z"
   id="path9484" />
		<path
   class="st362"
   d="m 532,1374.7 c 3,-2.7 5.3,-5 7.5,-7.3 l 4.1,4.6 -4.4,4.4 0.2,0.2 c 4.2,-0.9 9.1,-0.5 13.4,4.2 3.5,3.9 3.9,9 1.6,13.3 l 0.1,0.1 c 2.4,-0.6 4.7,-0.6 6.6,-0.2 2.9,0.5 5.3,1.8 7.8,4.5 3.4,3.8 6.1,11.7 -3.9,20.7 l -16.9,15.3 -4.6,-5.1 16.2,-14.7 c 5.5,-5 7,-10 3.2,-14.2 -2.7,-3 -7,-3.3 -10.3,-1.9 -0.9,0.4 -2,1.1 -3,2 l -17.7,16.1 -4.6,-5.1 17.2,-15.6 c 4.6,-4.1 6,-9.2 2.4,-13.1 -3,-3.3 -7.7,-3.3 -11.1,-1.7 -1,0.4 -2,1.1 -2.9,1.9 l -17.3,15.7 -4.6,-5.1 z"
   id="path9486" />
		<path
   class="st362"
   d="m 574.6,1460.1 2.9,-3.9 -0.2,-0.2 c -3.7,0.7 -8.5,-0.2 -12.6,-3.9 -5.7,-5.4 -4.8,-12.1 -1,-16.2 6.4,-6.8 16,-4.8 26.8,5.5 l 0.5,-0.6 c 2.2,-2.3 5.5,-7.1 -0.2,-12.6 -2.6,-2.5 -6.1,-4.2 -9.3,-4.8 l 2,-4.5 c 3.8,0.7 8.1,2.9 11.6,6.2 8.6,8.1 5.1,16 -0.2,21.6 l -9.9,10.5 c -2.3,2.4 -4.4,4.9 -5.9,7.2 z m 12.9,-15.1 c -5.5,-5.4 -12.7,-10.4 -17.9,-4.9 -3.1,3.3 -2.4,7 0.2,9.4 3.7,3.5 8.2,3.3 11.3,1.7 0.7,-0.4 1.3,-0.8 1.8,-1.4 z"
   id="path9488" />
		<path
   class="st362"
   d="m 607.9,1452.1 c 2.5,-3.1 4.5,-5.7 6.4,-8.3 l 4.8,3.9 -3.7,5.2 0.1,0.1 c 3.8,-1.6 9.6,-1.6 14.5,2.5 4.2,3.4 8.6,11.1 0.2,21.4 l -14.6,17.9 -5.5,-4.5 14.1,-17.3 c 3.9,-4.8 5.4,-10.3 0.3,-14.5 -3.6,-2.9 -8.5,-2.7 -11.9,-0.4 -0.8,0.5 -1.7,1.3 -2.4,2.2 l -14.7,18 -5.5,-4.5 z"
   id="path9490" />
		<path
   class="st362"
   d="m 645.1,1516.2 2.3,-4.3 -0.2,-0.1 c -3.5,1.2 -8.5,1.1 -13,-2.1 -6.4,-4.5 -6.5,-11.3 -3.3,-15.9 5.4,-7.7 15.1,-7.1 27.3,1.6 l 0.5,-0.7 c 1.8,-2.6 4.4,-7.8 -2,-12.4 -2.9,-2.1 -6.7,-3.3 -9.9,-3.4 l 1.4,-4.7 c 3.8,0.1 8.4,1.7 12.4,4.5 9.7,6.8 7.4,15.1 2.9,21.4 l -8.3,11.8 c -1.9,2.7 -3.7,5.5 -4.8,8 z m 10.5,-16.8 c -6.2,-4.5 -14.1,-8.5 -18.4,-2.3 -2.6,3.7 -1.4,7.2 1.6,9.3 4.1,2.9 8.6,2.1 11.4,0.1 0.6,-0.5 1.2,-1 1.6,-1.6 z"
   id="path9492" />
		<path
   class="st362"
   d="m 710.8,1511.7 c -1.6,2.3 -3.3,4.9 -5.7,9 l -11.6,19.3 c -4.6,7.6 -8.9,11.4 -13.8,12.3 -5,1.1 -10.3,-0.8 -14.5,-3.3 -4,-2.4 -7.8,-6 -9.4,-9.4 l 4.3,-3.7 c 1.4,2.7 4.1,6 8.2,8.4 6.2,3.7 12.6,3.2 17.7,-5.2 l 2.2,-3.7 -0.1,-0.1 c -3.7,2 -8.8,2.3 -13.9,-0.8 -8.2,-4.9 -9.9,-15.5 -4.4,-24.7 6.7,-11.3 17.9,-13.2 25.5,-8.7 5.8,3.5 7.1,8.4 6.9,12 l 0.1,0.1 3.3,-4.8 z m -14.1,9.3 c 0.6,-1 1.1,-2 1.3,-2.9 1,-4.2 -0.2,-8.8 -4.6,-11.4 -5.8,-3.5 -12.8,-1.1 -17.4,6.6 -3.9,6.5 -3.9,13.9 2.7,17.8 3.7,2.2 8.5,1.9 12.1,-1.2 1,-0.8 1.8,-1.9 2.4,-2.9 z"
   id="path9494" />
		<path
   class="st362"
   d="m 716.6,1527.2 c 1.7,-3.6 3.1,-6.6 4.2,-9.6 l 5.6,2.6 -2.4,5.8 0.2,0.1 c 3.5,-2.4 8.3,-4 14,-1.2 4.8,2.3 7,6.9 6.6,11.7 l 0.1,0.1 c 2,-1.4 4.1,-2.3 6.1,-2.7 2.9,-0.6 5.6,-0.4 8.9,1.2 4.6,2.2 10,8.5 4.3,20.6 l -9.8,20.6 -6.2,-3 9.4,-19.8 c 3.2,-6.7 2.7,-11.9 -2.5,-14.4 -3.6,-1.7 -7.7,-0.4 -10.3,2.2 -0.7,0.7 -1.5,1.8 -2,2.9 l -10.3,21.6 -6.2,-3 10,-21 c 2.6,-5.6 2.1,-10.8 -2.7,-13.1 -4,-1.9 -8.4,-0.1 -10.9,2.6 -0.8,0.8 -1.5,1.8 -2,2.9 l -10,21.1 -6.2,-3 z"
   id="path9496" />
		<path
   class="st362"
   d="m 779.4,1566.5 c -3.1,9 1.2,14.8 7.9,17.2 4.7,1.7 7.9,1.9 10.8,1.8 l -0.6,5.1 c -2.7,0.2 -7.1,-0.1 -12.9,-2.2 -11.2,-4.1 -15.2,-13.9 -11.2,-24.9 4,-11 13.6,-17.2 24.2,-13.4 11.9,4.3 11.2,15.9 8.8,22.6 -0.5,1.4 -1,2.3 -1.4,3 z m 21.1,2.3 c 1.6,-4.2 2.2,-11.4 -5.2,-14.1 -6.7,-2.4 -11.9,2.6 -14.1,7 z"
   id="path9498" />
		<path
   class="st362"
   d="m 818.5,1569.5 c 1.1,-3.8 1.9,-7 2.6,-10.2 l 6,1.7 -1.4,6.3 h 0.2 c 2.9,-3 8.1,-5.3 14.3,-3.5 5.2,1.5 12.3,6.8 8.7,19.6 l -6.3,22.2 -6.8,-1.9 6.1,-21.5 c 1.7,-6 0.9,-11.6 -5.5,-13.5 -4.5,-1.3 -8.8,0.9 -11.1,4.3 -0.5,0.8 -1,1.9 -1.4,3 l -6.4,22.4 -6.8,-1.9 z"
   id="path9500" />
		<path
   class="st362"
   d="m 875.2,1562 -2.4,10.9 9.8,2.2 -1.2,5.2 -9.8,-2.2 -4.5,20.4 c -1,4.7 -0.3,7.6 3.5,8.5 1.8,0.4 3.2,0.5 4.1,0.4 l -0.8,5.2 c -1.4,0.3 -3.6,0.2 -6.3,-0.4 -3.2,-0.7 -5.6,-2.3 -6.8,-4.5 -1.5,-2.5 -1.5,-6 -0.5,-10.4 l 4.5,-20.6 -5.9,-1.3 1.2,-5.2 5.9,1.3 2,-9.1 z"
   id="path9502" />
	</g></g>
	
	
	
	<g
   id="br"
   style="display:inline;filter:url(#filter539)"
   inkscape:label="br"
   transform="translate(0,2)">
		<g
   id="g9382"
   style="display:inline">
			<defs
   id="defs9086">
				<path
   id="SVGID_00000111172989376971904010000006895990128580673425_"
   d="m 982.4,1565.3 47.6,57.3 v 136.1 l 21.3,-1.4 c 84.2,-5.6 166.3,-25.1 244,-57.9 90.3,-38.2 171.5,-92.9 241.2,-162.6 69.7,-69.7 124.4,-150.8 162.6,-241.1 32.8,-77.6 52.3,-159.7 57.9,-244 l 1.4,-21.3 H 1361 l -2.3,17.4 c -21.3,162 -149.3,290 -311.3,311.3 l -17.4,2.3 v 140.3 l -47.6,57.3 c -1.5,1.8 -1.5,4.5 0,6.3 z" />
			</defs>
			
				<linearGradient
   id="SVGID_00000119795990377267348640000006488251413797249977_"
   gradientUnits="userSpaceOnUse"
   x1="981.25592"
   y1="1394.4933"
   x2="1758.3594"
   y2="1394.4933">
				<stop
   offset="0"
   style="stop-color:#77C9ED"
   id="stop9088" />
				<stop
   offset="0.25"
   style="stop-color:#77C9ED"
   id="stop9090" />
				<stop
   offset="0.2812"
   style="stop-color:#77C9ED"
   id="stop9092" />
				<stop
   offset="0.2891"
   style="stop-color:#77C9ED"
   id="stop9094" />
				<stop
   offset="0.2969"
   style="stop-color:#76C8ED"
   id="stop9096" />
				<stop
   offset="0.3125"
   style="stop-color:#76C8ED"
   id="stop9098" />
				<stop
   offset="0.3281"
   style="stop-color:#76C8ED"
   id="stop9100" />
				<stop
   offset="0.3438"
   style="stop-color:#76C8EC"
   id="stop9102" />
				<stop
   offset="0.3594"
   style="stop-color:#75C7EC"
   id="stop9104" />
				<stop
   offset="0.3672"
   style="stop-color:#75C7ED"
   id="stop9106" />
				<stop
   offset="0.375"
   style="stop-color:#75C7ED"
   id="stop9108" />
				<stop
   offset="0.4062"
   style="stop-color:#75C7ED"
   id="stop9110" />
				<stop
   offset="0.4219"
   style="stop-color:#75C7ED"
   id="stop9112" />
				<stop
   offset="0.4297"
   style="stop-color:#74C6ED"
   id="stop9114" />
				<stop
   offset="0.4375"
   style="stop-color:#74C6EC"
   id="stop9116" />
				<stop
   offset="0.4688"
   style="stop-color:#74C6EC"
   id="stop9118" />
				<stop
   offset="0.4766"
   style="stop-color:#74C6EC"
   id="stop9120" />
				<stop
   offset="0.4844"
   style="stop-color:#73C5EC"
   id="stop9122" />
				<stop
   offset="0.5"
   style="stop-color:#73C5EC"
   id="stop9124" />
				<stop
   offset="0.5156"
   style="stop-color:#73C5EC"
   id="stop9126" />
				<stop
   offset="0.5312"
   style="stop-color:#73C4EC"
   id="stop9128" />
				<stop
   offset="0.5391"
   style="stop-color:#72C4EC"
   id="stop9130" />
				<stop
   offset="0.5469"
   style="stop-color:#72C4EC"
   id="stop9132" />
				<stop
   offset="0.5625"
   style="stop-color:#72C4EC"
   id="stop9134" />
				<stop
   offset="0.5781"
   style="stop-color:#72C4EC"
   id="stop9136" />
				<stop
   offset="0.5938"
   style="stop-color:#71C3EC"
   id="stop9138" />
				<stop
   offset="0.625"
   style="stop-color:#71C3EC"
   id="stop9140" />
				<stop
   offset="0.6406"
   style="stop-color:#71C3EC"
   id="stop9142" />
				<stop
   offset="0.6562"
   style="stop-color:#71C3EC"
   id="stop9144" />
				<stop
   offset="0.6875"
   style="stop-color:#70C2EC"
   id="stop9146" />
				<stop
   offset="0.7031"
   style="stop-color:#70C2EC"
   id="stop9148" />
				<stop
   offset="0.7188"
   style="stop-color:#70C2EC"
   id="stop9150" />
				<stop
   offset="0.7344"
   style="stop-color:#6FC1EC"
   id="stop9152" />
				<stop
   offset="0.75"
   style="stop-color:#6FC1EC"
   id="stop9154" />
				<stop
   offset="0.7812"
   style="stop-color:#6FC0EB"
   id="stop9156" />
				<stop
   offset="0.7891"
   style="stop-color:#6EC0EB"
   id="stop9158" />
				<stop
   offset="0.7969"
   style="stop-color:#6EC0EB"
   id="stop9160" />
				<stop
   offset="0.8125"
   style="stop-color:#6EBFEB"
   id="stop9162" />
				<stop
   offset="0.8438"
   style="stop-color:#6DBFEB"
   id="stop9164" />
				<stop
   offset="0.875"
   style="stop-color:#6DBFEB"
   id="stop9166" />
				<stop
   offset="0.8906"
   style="stop-color:#6DBFEB"
   id="stop9168" />
				<stop
   offset="0.8984"
   style="stop-color:#6DBEEB"
   id="stop9170" />
				<stop
   offset="0.9062"
   style="stop-color:#6DBEEA"
   id="stop9172" />
				<stop
   offset="0.9375"
   style="stop-color:#6CBEEA"
   id="stop9174" />
				<stop
   offset="1"
   style="stop-color:#6CBDEA"
   id="stop9176" />
			</linearGradient>
			
				<use
   xlink:href="#SVGID_00000111172989376971904010000006895990128580673425_"
   style="overflow:visible;fill:url(#SVGID_00000119795990377267348640000006488251413797249977_)"
   id="use9179" />
			<clipPath
   id="SVGID_00000120555607865053197010000006371301457174173352_">
				<use
   xlink:href="#SVGID_00000111172989376971904010000006895990128580673425_"
   style="overflow:visible"
   id="use9181" />
			</clipPath>
			<g
   clip-path="url(#SVGID_00000120555607865053197010000006371301457174173352_)"
   id="g9380">
				<g
   id="g9378">
					<defs
   id="defs9185">
						<path
   id="SVGID_00000006690820843585542980000005757378537007781777_"
   d="m 982.4,1565.3 47.6,57.3 v 136.1 l 21.3,-1.4 c 84.2,-5.6 166.3,-25.1 244,-57.9 90.3,-38.2 171.5,-92.9 241.2,-162.6 69.7,-69.7 124.4,-150.8 162.6,-241.1 32.8,-77.6 52.3,-159.7 57.9,-244 l 1.4,-21.3 H 1361 l -2.3,17.4 c -21.3,162 -149.3,290 -311.3,311.3 l -17.4,2.3 v 140.3 l -47.6,57.3 c -1.5,1.8 -1.5,4.5 0,6.3" />
					</defs>
					
						<linearGradient
   id="SVGID_00000000224868415065948750000013127523110218502328_"
   gradientUnits="userSpaceOnUse"
   x1="981.25592"
   y1="1394.4933"
   x2="1758.3594"
   y2="1394.4933">
						<stop
   offset="0"
   style="stop-color:#77C9ED"
   id="stop9187" />
						<stop
   offset="0.25"
   style="stop-color:#77C9ED"
   id="stop9189" />
						<stop
   offset="0.2812"
   style="stop-color:#77C9ED"
   id="stop9191" />
						<stop
   offset="0.2891"
   style="stop-color:#77C9ED"
   id="stop9193" />
						<stop
   offset="0.2969"
   style="stop-color:#76C8ED"
   id="stop9195" />
						<stop
   offset="0.3125"
   style="stop-color:#76C8ED"
   id="stop9197" />
						<stop
   offset="0.3281"
   style="stop-color:#76C8ED"
   id="stop9199" />
						<stop
   offset="0.3438"
   style="stop-color:#76C8EC"
   id="stop9201" />
						<stop
   offset="0.3594"
   style="stop-color:#75C7EC"
   id="stop9203" />
						<stop
   offset="0.3672"
   style="stop-color:#75C7ED"
   id="stop9205" />
						<stop
   offset="0.375"
   style="stop-color:#75C7ED"
   id="stop9207" />
						<stop
   offset="0.4062"
   style="stop-color:#75C7ED"
   id="stop9209" />
						<stop
   offset="0.4219"
   style="stop-color:#75C7ED"
   id="stop9211" />
						<stop
   offset="0.4297"
   style="stop-color:#74C6ED"
   id="stop9213" />
						<stop
   offset="0.4375"
   style="stop-color:#74C6EC"
   id="stop9215" />
						<stop
   offset="0.4688"
   style="stop-color:#74C6EC"
   id="stop9217" />
						<stop
   offset="0.4766"
   style="stop-color:#74C6EC"
   id="stop9219" />
						<stop
   offset="0.4844"
   style="stop-color:#73C5EC"
   id="stop9221" />
						<stop
   offset="0.5"
   style="stop-color:#73C5EC"
   id="stop9223" />
						<stop
   offset="0.5156"
   style="stop-color:#73C5EC"
   id="stop9225" />
						<stop
   offset="0.5312"
   style="stop-color:#73C4EC"
   id="stop9227" />
						<stop
   offset="0.5391"
   style="stop-color:#72C4EC"
   id="stop9229" />
						<stop
   offset="0.5469"
   style="stop-color:#72C4EC"
   id="stop9231" />
						<stop
   offset="0.5625"
   style="stop-color:#72C4EC"
   id="stop9233" />
						<stop
   offset="0.5781"
   style="stop-color:#72C4EC"
   id="stop9235" />
						<stop
   offset="0.5938"
   style="stop-color:#71C3EC"
   id="stop9237" />
						<stop
   offset="0.625"
   style="stop-color:#71C3EC"
   id="stop9239" />
						<stop
   offset="0.6406"
   style="stop-color:#71C3EC"
   id="stop9241" />
						<stop
   offset="0.6562"
   style="stop-color:#71C3EC"
   id="stop9243" />
						<stop
   offset="0.6875"
   style="stop-color:#70C2EC"
   id="stop9245" />
						<stop
   offset="0.7031"
   style="stop-color:#70C2EC"
   id="stop9247" />
						<stop
   offset="0.7188"
   style="stop-color:#70C2EC"
   id="stop9249" />
						<stop
   offset="0.7344"
   style="stop-color:#6FC1EC"
   id="stop9251" />
						<stop
   offset="0.75"
   style="stop-color:#6FC1EC"
   id="stop9253" />
						<stop
   offset="0.7812"
   style="stop-color:#6FC0EB"
   id="stop9255" />
						<stop
   offset="0.7891"
   style="stop-color:#6EC0EB"
   id="stop9257" />
						<stop
   offset="0.7969"
   style="stop-color:#6EC0EB"
   id="stop9259" />
						<stop
   offset="0.8125"
   style="stop-color:#6EBFEB"
   id="stop9261" />
						<stop
   offset="0.8438"
   style="stop-color:#6DBFEB"
   id="stop9263" />
						<stop
   offset="0.875"
   style="stop-color:#6DBFEB"
   id="stop9265" />
						<stop
   offset="0.8906"
   style="stop-color:#6DBFEB"
   id="stop9267" />
						<stop
   offset="0.8984"
   style="stop-color:#6DBEEB"
   id="stop9269" />
						<stop
   offset="0.9062"
   style="stop-color:#6DBEEA"
   id="stop9271" />
						<stop
   offset="0.9375"
   style="stop-color:#6CBEEA"
   id="stop9273" />
						<stop
   offset="1"
   style="stop-color:#6CBDEA"
   id="stop9275" />
					</linearGradient>
					
						<use
   xlink:href="#SVGID_00000006690820843585542980000005757378537007781777_"
   style="overflow:visible;fill:url(#SVGID_00000000224868415065948750000013127523110218502328_)"
   id="use9278" />
					<clipPath
   id="SVGID_00000072977649295303594000000017826649989436264355_">
						<use
   xlink:href="#SVGID_00000006690820843585542980000005757378537007781777_"
   style="overflow:visible"
   id="use9280" />
					</clipPath>
					<g
   clip-path="url(#SVGID_00000072977649295303594000000017826649989436264355_)"
   id="g9376">
						
							<linearGradient
   id="SVGID_00000146498127086447835710000012906531766379307442_"
   gradientUnits="userSpaceOnUse"
   x1="669.55469"
   y1="1394.4933"
   x2="2069.6758"
   y2="1394.4933">
							<stop
   offset="0"
   style="stop-color:#77C9ED"
   id="stop9283" />
							<stop
   offset="0.25"
   style="stop-color:#77C9ED"
   id="stop9285" />
							<stop
   offset="0.2812"
   style="stop-color:#77C9ED"
   id="stop9287" />
							<stop
   offset="0.2891"
   style="stop-color:#77C9ED"
   id="stop9289" />
							<stop
   offset="0.2969"
   style="stop-color:#76C8ED"
   id="stop9291" />
							<stop
   offset="0.3125"
   style="stop-color:#76C8ED"
   id="stop9293" />
							<stop
   offset="0.3281"
   style="stop-color:#76C8ED"
   id="stop9295" />
							<stop
   offset="0.3438"
   style="stop-color:#76C8EC"
   id="stop9297" />
							<stop
   offset="0.3594"
   style="stop-color:#75C7EC"
   id="stop9299" />
							<stop
   offset="0.3672"
   style="stop-color:#75C7ED"
   id="stop9301" />
							<stop
   offset="0.375"
   style="stop-color:#75C7ED"
   id="stop9303" />
							<stop
   offset="0.4062"
   style="stop-color:#75C7ED"
   id="stop9305" />
							<stop
   offset="0.4219"
   style="stop-color:#75C7ED"
   id="stop9307" />
							<stop
   offset="0.4297"
   style="stop-color:#74C6ED"
   id="stop9309" />
							<stop
   offset="0.4375"
   style="stop-color:#74C6EC"
   id="stop9311" />
							<stop
   offset="0.4688"
   style="stop-color:#74C6EC"
   id="stop9313" />
							<stop
   offset="0.4766"
   style="stop-color:#74C6EC"
   id="stop9315" />
							<stop
   offset="0.4844"
   style="stop-color:#73C5EC"
   id="stop9317" />
							<stop
   offset="0.5"
   style="stop-color:#73C5EC"
   id="stop9319" />
							<stop
   offset="0.5156"
   style="stop-color:#73C5EC"
   id="stop9321" />
							<stop
   offset="0.5312"
   style="stop-color:#73C4EC"
   id="stop9323" />
							<stop
   offset="0.5391"
   style="stop-color:#72C4EC"
   id="stop9325" />
							<stop
   offset="0.5469"
   style="stop-color:#72C4EC"
   id="stop9327" />
							<stop
   offset="0.5625"
   style="stop-color:#72C4EC"
   id="stop9329" />
							<stop
   offset="0.5781"
   style="stop-color:#72C4EC"
   id="stop9331" />
							<stop
   offset="0.5938"
   style="stop-color:#71C3EC"
   id="stop9333" />
							<stop
   offset="0.625"
   style="stop-color:#71C3EC"
   id="stop9335" />
							<stop
   offset="0.6406"
   style="stop-color:#71C3EC"
   id="stop9337" />
							<stop
   offset="0.6562"
   style="stop-color:#71C3EC"
   id="stop9339" />
							<stop
   offset="0.6875"
   style="stop-color:#70C2EC"
   id="stop9341" />
							<stop
   offset="0.7031"
   style="stop-color:#70C2EC"
   id="stop9343" />
							<stop
   offset="0.7188"
   style="stop-color:#70C2EC"
   id="stop9345" />
							<stop
   offset="0.7344"
   style="stop-color:#6FC1EC"
   id="stop9347" />
							<stop
   offset="0.75"
   style="stop-color:#6FC1EC"
   id="stop9349" />
							<stop
   offset="0.7812"
   style="stop-color:#6FC0EB"
   id="stop9351" />
							<stop
   offset="0.7891"
   style="stop-color:#6EC0EB"
   id="stop9353" />
							<stop
   offset="0.7969"
   style="stop-color:#6EC0EB"
   id="stop9355" />
							<stop
   offset="0.8125"
   style="stop-color:#6EBFEB"
   id="stop9357" />
							<stop
   offset="0.8438"
   style="stop-color:#6DBFEB"
   id="stop9359" />
							<stop
   offset="0.875"
   style="stop-color:#6DBFEB"
   id="stop9361" />
							<stop
   offset="0.8906"
   style="stop-color:#6DBFEB"
   id="stop9363" />
							<stop
   offset="0.8984"
   style="stop-color:#6DBEEB"
   id="stop9365" />
							<stop
   offset="0.9062"
   style="stop-color:#6DBEEA"
   id="stop9367" />
							<stop
   offset="0.9375"
   style="stop-color:#6CBEEA"
   id="stop9369" />
							<stop
   offset="1"
   style="stop-color:#6CBDEA"
   id="stop9371" />
						</linearGradient>
						<path
   style="fill:url(#SVGID_00000146498127086447835710000012906531766379307442_)"
   d="M 669.6,1583.5 1571.4,2091 2069.7,1205.5 1167.9,698 Z"
   id="path9374" />
					</g>
				</g>
			</g>
		</g>
	<g
   id="g9556"
   inkscape:label="business">
		<path
   class="st362"
   d="m 1364.4,1551.3 c 7.5,12.2 2.2,22.8 -5.9,27.8 -9.1,5.6 -20.1,3.4 -26.6,-7 -6.8,-11 -3.5,-22 5.8,-27.8 9.7,-5.9 20.5,-3.1 26.7,7 z m -26.4,16.8 c 4.5,7.2 12.1,10 18,6.3 5.8,-3.6 6.9,-11.7 2.3,-19.1 -3.5,-5.6 -10.7,-10.9 -17.9,-6.4 -7.2,4.5 -6.3,13 -2.4,19.2 z"
   id="path9538" />
		<path
   class="st362"
   d="m 1368.7,1538 c -2.4,-3.2 -4.3,-5.8 -6.4,-8.3 l 5.1,-3.7 4.1,4.9 0.1,-0.1 c -0.6,-4.1 1,-9.7 6.3,-13.6 4.4,-3.2 13.2,-5.6 21,5.1 l 13.6,18.7 -5.8,4.2 -13.1,-18.1 c -3.7,-5 -8.6,-7.9 -14.1,-3.9 -3.8,2.8 -4.9,7.6 -3.6,11.5 0.3,0.9 0.8,2 1.5,2.9 l 13.7,18.8 -5.8,4.2 z"
   id="path9540" />
		<path
   class="st362"
   d="m 1434.3,1488.2 c -3.1,-3.4 -5.8,-6.2 -8.4,-8.7 l 4.6,-4.2 5.3,5.4 0.2,-0.2 c -2.2,-5 -1.2,-10.4 2.3,-13.6 0.6,-0.6 1.1,-0.9 1.7,-1.2 l 4.5,4.9 c -0.6,0.4 -1.2,0.8 -2,1.5 -3.7,3.4 -3.8,8.6 -1,13.2 0.5,0.8 1.2,1.8 2,2.6 l 14,15.2 -5.2,4.8 z"
   id="path9542" />
		<path
   class="st362"
   d="m 1463.1,1473 c 6.9,6.5 14.1,4.9 19.1,-0.3 3.6,-3.7 5.1,-6.5 6.2,-9.2 l 4.5,2.7 c -1,2.6 -3.1,6.6 -7.5,11.1 -8.5,8.7 -19.2,8.4 -27.5,0.2 -8.3,-8.2 -10,-19.6 -2,-27.8 9,-9.2 19.4,-3.9 24.4,1.1 1,1 1.7,1.9 2.2,2.5 z m 11.1,-18.6 c -3.1,-3.2 -9.5,-6.7 -15.1,-0.9 -5.1,5.2 -2.6,12 0.5,15.9 z"
   id="path9544" />
		<path
   class="st362"
   d="m 1516.7,1432 -0.1,0.1 c 1.6,4.1 1,9.4 -3.1,14.3 -6,7 -16.8,7.7 -25.8,0.1 -11,-9.4 -9.8,-20.8 -4.4,-27.1 4,-4.7 8.9,-5.9 13,-4.9 l 0.1,-0.1 -4.3,-4 4.4,-5.2 c 2.4,2.2 4.9,4.5 8,7.1 l 33.5,28.4 -4.6,5.5 z m -12.9,-11 c -0.7,-0.6 -1.6,-1.3 -2.5,-1.7 -4,-2 -9.3,-1.4 -12.7,2.7 -4.8,5.7 -3,13.1 3.6,18.7 5.9,5 13.4,6.5 18.5,0.4 3,-3.5 3.5,-8.4 0.8,-12.8 -0.5,-0.9 -1.4,-1.9 -2.2,-2.6 z"
   id="path9546" />
		<path
   class="st362"
   d="m 1546.4,1385.3 c 3.2,2.4 6.1,4.4 8.7,5.9 l -3.7,5.1 -5.4,-3.4 -0.1,0.1 c 1.4,3.4 2.3,9.1 -1.8,14.8 -3.6,5 -10.7,9 -21.7,1 l -18.3,-13.3 4.2,-5.8 17.3,12.6 c 6,4.3 11.3,5.4 15.1,0.1 2.8,-3.9 2.1,-8.5 0.4,-11.4 -0.6,-0.9 -1.5,-1.9 -2.5,-2.6 l -19.2,-14 4.2,-5.8 z"
   id="path9548" />
		<path
   class="st362"
   d="m 1550.3,1365.6 c 8.2,4.9 14.8,1.7 18.6,-4.4 2.7,-4.4 3.6,-7.5 4.1,-10.3 l 4.9,1.6 c -0.4,2.7 -1.6,7.1 -4.9,12.4 -6.4,10.3 -16.9,12.3 -26.8,6.1 -9.9,-6.2 -14,-17 -7.9,-26.8 6.8,-10.9 18.1,-8 24.1,-4.2 1.2,0.8 2.1,1.5 2.7,1.9 z m 6.9,-20.5 c -3.8,-2.4 -10.7,-4.5 -15,2.4 -3.8,6.2 0,12.3 3.9,15.4 z"
   id="path9550" />
		<path
   class="st362"
   d="m 1579.5,1338.5 c 2.2,-1.2 5.3,-3.8 7,-7 2.5,-4.6 1.4,-8 -1.4,-9.5 -3,-1.6 -5.5,-0.7 -9.8,3 -5.6,5 -10.5,6.2 -14.6,3.9 -5.5,-3 -7.5,-9.9 -3.5,-17.4 1.9,-3.5 4.6,-6.1 6.7,-7.4 l 3.6,4 c -1.6,0.9 -4.1,2.8 -5.8,6 -2,3.7 -1,6.9 1.5,8.3 2.8,1.5 5.2,0.1 9.3,-3.5 5.5,-4.8 10.1,-6.3 15.2,-3.5 6,3.2 7.6,10.3 3.1,18.5 -2.1,3.8 -4.9,6.8 -7.6,8.5 z"
   id="path9552" />
		<path
   class="st362"
   d="m 1561.3,1281 10,4.8 4.5,-9.3 4.8,2.3 -4.5,9.3 18.8,9.1 c 4.3,2.1 7.4,2 9.1,-1.6 0.8,-1.7 1.2,-3 1.4,-4 l 4.9,2 c -0.1,1.5 -0.7,3.6 -1.9,6.1 -1.5,3 -3.6,5 -6,5.7 -2.8,0.9 -6.2,0.1 -10.3,-1.9 l -19,-9.2 -2.7,5.5 -4.8,-2.3 2.7,-5.5 -8.4,-4 z"
   id="path9554" />
	<g
   id="g9536">
		<path
   class="st362"
   d="m 1135,1514.1 c 2.7,-1.5 7.2,-3.3 11.9,-4.7 6.7,-2 11.3,-2.1 15.3,-0.5 3.3,1.2 5.8,3.8 7,7.9 1.5,5 -0.5,10.3 -5.4,13.9 v 0.2 c 5.3,-0.2 12.2,2.1 14.5,9.8 1.3,4.4 0.6,8.3 -1.3,11.7 -2.6,4.4 -8,7.6 -16.4,10.1 -4.6,1.4 -8.2,2.1 -10.5,2.5 z m 13,19.2 6.1,-1.8 c 7.1,-2.1 10.1,-7 8.6,-12 -1.8,-6.1 -7.1,-7.1 -13.9,-5.1 -3.1,0.9 -4.8,1.7 -5.8,2.2 z m 7.4,24.8 c 1.4,-0.2 3.3,-0.7 5.7,-1.4 6.9,-2.1 12.5,-6.5 10.3,-14 -2.1,-7.1 -9,-8.2 -16.3,-6 l -5.5,1.6 z"
   id="path9506" />
		<path
   class="st362"
   d="m 1219.8,1530.2 c 1.4,3.7 2.8,7 4.1,9.7 l -5.8,2.2 -2.6,-5.8 -0.1,0.1 c -0.6,3.6 -2.9,8.8 -9.4,11.3 -5.7,2.2 -13.7,1.7 -18.6,-11 l -8.1,-21.1 6.6,-2.5 7.7,20 c 2.6,6.9 6.5,10.7 12.5,8.4 4.4,-1.7 6.3,-5.9 6.4,-9.3 0,-1.1 -0.2,-2.4 -0.7,-3.6 l -8.5,-22.2 6.6,-2.5 z"
   id="path9508" />
		<path
   class="st362"
   d="m 1232.1,1528.4 c 2.5,0.4 6.4,0.1 9.6,-1.4 4.6,-2.2 5.7,-5.5 4.4,-8.4 -1.4,-3 -4,-3.9 -9.5,-3.4 -7.4,0.7 -12,-1.4 -13.9,-5.6 -2.6,-5.7 -0.2,-12.4 7.3,-15.9 3.6,-1.7 7.1,-2.1 9.6,-1.8 l 0.6,5.4 c -1.8,-0.2 -4.9,-0.2 -8.1,1.3 -3.8,1.8 -4.9,4.9 -3.6,7.5 1.4,2.9 4.1,3.2 9.4,2.8 7.2,-0.5 11.7,1.1 14.1,6.3 2.9,6.2 0.1,12.7 -8.2,16.6 -3.8,1.8 -7.8,2.5 -11,2.2 z"
   id="path9510" />
		<path
   class="st362"
   d="m 1249.6,1472.7 c 1.2,2.1 0.5,4.6 -2,5.9 -2.2,1.1 -4.6,0.3 -5.8,-1.9 -1.1,-2.2 -0.4,-4.8 1.9,-5.9 2.4,-1.2 4.8,-0.3 5.9,1.9 z m 16,47.6 -17.9,-34.3 6.2,-3.3 17.9,34.3 z"
   id="path9512" />
		<path
   class="st362"
   d="m 1269.1,1486.6 c -2.1,-3.4 -3.8,-6.2 -5.6,-8.8 l 5.4,-3.2 3.6,5.3 0.1,-0.1 c -0.2,-4.1 1.8,-9.5 7.3,-12.8 4.6,-2.7 13.4,-4.3 20.2,7.1 l 11.9,19.9 -6,3.6 -11.4,-19.2 c -3.2,-5.4 -7.9,-8.6 -13.6,-5.2 -4,2.4 -5.4,7 -4.4,11 0.2,0.9 0.7,2 1.3,3.1 l 11.9,20 -6,3.6 z"
   id="path9514" />
		<path
   class="st362"
   d="m 1315.9,1469.5 c 5.6,7.7 12.8,7.4 18.6,3.3 4.1,-2.9 6.1,-5.4 7.6,-7.8 l 3.9,3.4 c -1.4,2.3 -4.1,5.8 -9.1,9.4 -9.7,6.9 -20.1,4.6 -26.8,-5 -6.7,-9.5 -6.4,-21 2.8,-27.5 10.3,-7.3 19.5,-0.1 23.6,5.7 0.8,1.2 1.3,2.2 1.7,2.8 z m 14,-16 c -2.5,-3.7 -8.1,-8.3 -14.6,-3.7 -5.8,4.1 -4.6,11.3 -2.2,15.6 z"
   id="path9516" />
		<path
   class="st362"
   d="m 1351.7,1457 c 2.5,-0.2 6.2,-1.4 9,-3.6 4,-3.2 4.3,-6.7 2.2,-9.2 -2.1,-2.6 -4.8,-2.8 -10.1,-1 -7,2.4 -11.9,1.5 -14.8,-2.1 -3.9,-4.9 -3.2,-12 3.3,-17.2 3.1,-2.5 6.4,-3.7 8.9,-4.1 l 1.8,5.1 c -1.8,0.2 -4.8,1 -7.6,3.2 -3.2,2.6 -3.5,5.9 -1.7,8.2 2,2.5 4.7,2.2 9.8,0.5 6.8,-2.2 11.6,-1.8 15.2,2.7 4.3,5.3 3.2,12.3 -4,18.1 -3.3,2.7 -7,4.3 -10.1,4.8 z"
   id="path9518" />
		<path
   class="st362"
   d="m 1377.2,1436.2 c 2.5,-0.4 6.1,-1.8 8.8,-4.2 3.8,-3.4 3.8,-7 1.7,-9.3 -2.3,-2.5 -5,-2.5 -10.1,-0.4 -6.8,2.8 -11.8,2.2 -14.9,-1.2 -4.2,-4.6 -3.9,-11.8 2.2,-17.4 2.9,-2.6 6.2,-4.1 8.7,-4.6 l 2.1,5 c -1.8,0.3 -4.7,1.2 -7.4,3.7 -3.1,2.8 -3.2,6.1 -1.2,8.3 2.2,2.4 4.8,1.9 9.9,-0.1 6.7,-2.6 11.5,-2.4 15.4,1.8 4.6,5 3.9,12.1 -2.9,18.3 -3.1,2.9 -6.7,4.7 -9.8,5.4 z"
   id="path9520" />
		<path
   class="st362"
   d="m 1399.3,1387 c -3,-2.6 -5.5,-4.7 -8.1,-6.7 l 4.1,-4.6 4.9,3.9 0.2,-0.2 c -1.3,-4 -1.6,-9 2.7,-13.8 3.5,-4 8.5,-4.9 13.1,-3.1 l 0.1,-0.1 c -0.8,-2.3 -1.1,-4.6 -0.9,-6.6 0.2,-2.9 1.2,-5.5 3.6,-8.2 3.4,-3.8 10.9,-7.3 21,1.5 l 17.1,15 -4.5,5.2 -16.5,-14.5 c -5.6,-4.9 -10.8,-5.8 -14.5,-1.5 -2.6,3 -2.5,7.3 -0.7,10.5 0.5,0.9 1.3,1.9 2.3,2.7 l 18,15.8 -4.5,5.2 -17.4,-15.3 c -4.6,-4.1 -9.8,-5 -13.3,-0.9 -2.9,3.3 -2.4,8 -0.5,11.2 0.5,1 1.3,1.9 2.2,2.7 l 17.6,15.4 -4.5,5.2 z"
   id="path9522" />
		<path
   class="st362"
   d="m 1469.7,1312.6 c 11.7,8.3 11,20 5.5,27.6 -6.1,8.5 -17,10.6 -27,3.5 -10.5,-7.5 -11.8,-18.9 -5.6,-27.6 6.5,-8.9 17.5,-10.4 27.1,-3.5 z m -17.5,25.3 c 6.9,4.9 14.9,4.7 18.9,-0.9 3.9,-5.5 1.7,-13.2 -5.4,-18.3 -5.3,-3.8 -14,-6 -18.9,0.8 -4.8,6.7 -0.6,14.1 5.4,18.4 z"
   id="path9524" />
		<path
   class="st362"
   d="m 1460.2,1256.9 40.1,24.1 c 2.9,1.8 6.4,3.7 8.7,4.9 l -3.2,5.4 -5.9,-3.2 -0.1,0.1 c 2.6,4.1 3,9.8 -0.3,15.2 -4.8,8 -15.3,10.1 -25.4,4.1 -11.1,-6.6 -13.8,-17.5 -8.9,-25.6 3,-5.1 7.5,-7.1 11.1,-7 l 0.1,-0.1 -19.8,-11.9 z m 25.4,23.4 c -0.8,-0.5 -1.8,-1 -2.7,-1.2 -4.4,-1.4 -9.5,0 -12.2,4.5 -3.7,6.2 -0.5,13.2 6.9,17.6 6.7,4 14.3,4.1 18.2,-2.4 2.4,-4 2,-9.4 -1.9,-13.2 -0.7,-0.7 -1.5,-1.3 -2.4,-1.8 z"
   id="path9526" />
		<path
   class="st362"
   d="m 1520.4,1240.2 c 3.6,1.8 6.8,3.3 9.6,4.4 l -2.8,5.6 -5.8,-2.4 -0.1,0.1 c 2,3 3.8,8.5 0.8,14.7 -2.7,5.4 -8.9,10.5 -21.1,4.5 l -20.3,-10 3.1,-6.3 19.2,9.5 c 6.6,3.3 12,3.5 14.9,-2.3 2.1,-4.2 0.6,-8.6 -1.6,-11.2 -0.8,-0.8 -1.8,-1.6 -2.9,-2.2 l -21.3,-10.5 3.1,-6.3 z"
   id="path9528" />
		<path
   class="st362"
   d="m 1482.8,1210.4 2.8,-6.5 52.3,22.3 -2.8,6.5 z"
   id="path9530" />
		<path
   class="st362"
   d="m 1527.4,1204.1 c 9,3.1 14.8,-1.3 17.2,-7.9 1.7,-4.7 1.9,-7.9 1.8,-10.8 l 5.1,0.6 c 0.2,2.7 0,7.1 -2.2,12.9 -4.1,11.2 -13.9,15.2 -24.9,11.2 -11,-4 -17.3,-13.6 -13.4,-24.2 4.3,-11.9 15.9,-11.2 22.6,-8.8 1.4,0.5 2.3,1 3,1.4 z m 2.3,-21.1 c -4.2,-1.6 -11.4,-2.2 -14.1,5.2 -2.4,6.7 2.7,11.9 7,14.1 z"
   id="path9532" />
		<path
   class="st362"
   d="m 1549.6,1173.4 c 1.9,-1.6 4.3,-4.7 5.3,-8.1 1.4,-4.9 -0.3,-7.9 -3.4,-8.8 -3.2,-0.9 -5.6,0.5 -8.9,4.9 -4.3,6 -8.9,8 -13.4,6.7 -6,-1.8 -9.5,-8 -7.1,-16 1.1,-3.8 3.1,-6.7 5,-8.5 l 4.4,3.1 c -1.3,1.2 -3.4,3.5 -4.4,7 -1.2,4 0.5,6.9 3.2,7.7 3.1,0.9 5.1,-0.9 8.4,-5.2 4.3,-5.7 8.5,-8.1 14.1,-6.5 6.5,1.9 9.6,8.3 7,17.2 -1.2,4.1 -3.3,7.5 -5.6,9.7 z"
   id="path9534" />
	</g></g></g>
</g>


</svg>
